<svg xmlns="http://www.w3.org/2000/svg" viewBox="0 0 158 169"><defs><style>.cls-1{fill:#5995da;}.cls-2{fill:none;}</style></defs><title>books_1</title><g id="Layer_2" data-name="Layer 2"><g id="homepage"><path d="M40.47,88.93c4.73,2,9.46,4.09,14.15,6.21,5.29,2.39,11.23,4.48,15.75,8.21a9.36,9.36,0,0,1,2.77,2.86q-.22,5.62-3.4,3.54c-1.88-.28-3.93-1.95-5.53-2.89a63.17,63.17,0,0,0-7-3.72A100.26,100.26,0,0,1,39.81,94c-.48-.33-.93.45-.46.78a87.3,87.3,0,0,0,16.43,8.77c6.22,2.54,11.45,7.34,18.25,8.24a.45.45,0,0,0,.44-.33c2.33-7.86-8.18-12-13.68-14.49-6.58-3-13.22-5.94-19.87-8.81-.53-.23-1,.55-.46.78Z"/><path d="M74.61,112.51c5.83-2,11.26-5.12,16.83-7.78,6.3-3,12.65-5.92,19-8.85,3.6-1.66,9.61-3.11,12.05-6.48,1.33-1.83,1.37-4.67-.88-5.78-3-1.45-6.8,1.8-9,3.2-3.58,2.26-7.09,5-10.91,6.79C92.56,98,82.72,101,73.52,105.22c-.53.24-.07,1,.46.78q11.63-5.35,23.61-9.81c5.19-1.94,9.47-4.83,14.16-7.78,1.24-.78,3.79-3.17,5.22-3.24q6,4.28,2,5.79-1.34.64-2.69,1.25c-4.36,2-8.72,4-13.08,6-9.5,4.4-18.91,9.94-28.79,13.39-.55.19-.31,1.06.24.87Z"/><path d="M95.81,71.39c7.72,5,16.3,9.06,24.54,13.1.52.25,1-.52.46-.78-8.24-4-16.82-8.1-24.54-13.1-.49-.32-.94.46-.46.78Z"/><path d="M40.82,89A175.7,175.7,0,0,0,71.1,74.72a.45.45,0,0,0-.46-.78A174.45,174.45,0,0,1,40.58,88.1c-.54.19-.31,1.07.24.87Z"/><path d="M41.19,89.65a4.41,4.41,0,0,1-.63,5c-.39.43.25,1.07.64.64A5.33,5.33,0,0,0,42,89.2c-.27-.51-1-.06-.78.46Z"/><path d="M40.93,96.9A16.69,16.69,0,0,0,34.77,98a.46.46,0,0,0-.11.83c8.64,4.8,17.45,9.29,26.43,13.4,5.5,2.52,12.25,7.46,18.28,4.78,16.73-7.41,31.1-19.29,49-24.06a.46.46,0,0,0,.11-.83l-6.58-3c-.52-.24-1,.54-.46.78.89.41,4.92,1.68,5.06,2.65,0,0-5.87,1.93-6.36,2.12a105.53,105.53,0,0,0-10.79,4.93c-7.78,4-15.17,8.75-22.9,12.89-4,2.17-8.52,5.4-13.16,4.14-5.12-1.4-10.34-4.45-15.14-6.7q-6.71-3.15-13.29-6.57a63.9,63.9,0,0,1-6.54-3.48c-3.54-2.41-.23-2,2.56-2a.45.45,0,0,0,0-.9Z"/><path d="M73.86,117.05a22.6,22.6,0,0,1,.15,9c0,.29.2.7.56.56,11.81-4.9,22-12.52,33.48-18a189.66,189.66,0,0,1,17.59-7.84c4.49-1.62,5.22-3,3.37-7.92-.2-.54-1.08-.31-.87.24,1.92,5.09-.78,6-4.26,7.41-2,.8-4,1.67-6,2.55-5.55,2.47-11.06,5-16.47,7.81-4.84,2.48-9.16,5.62-13.81,8.4-2.93,1.76-6.5,4.2-9.8,5s-1.87.66-2.5-1.77c-.44-1.71-.25-3.89-.61-5.69-.11-.57-1-.33-.87.24Z"/><path d="M34,107.26q20.54,9.12,40.6,19.27c.52.26,1-.52.46-.78Q55,115.61,34.42,106.48c-.53-.23-1,.54-.46.78Z"/><path d="M36.83,100.39c1.21,1,2.06,2.6,1.23,4.09a3.6,3.6,0,0,1-4.34,1.37c-.55-.18-.79.69-.24.87a4.49,4.49,0,0,0,5.36-1.78,4.13,4.13,0,0,0-1.37-5.19c-.45-.36-1.09.28-.64.64Z"/><path d="M25.08,109.76c4.34-1,8.64-3.53,12.73-5.29.53-.23.07-1-.46-.78-4,1.72-8.28,4.22-12.51,5.2-.57.13-.33,1,.24.87Z"/><path d="M25,109.77A189.5,189.5,0,0,0,50.37,124c7.33,3.27,18.62,3.49,23.88,9.85,1.37,1.66,2.72,4.64-.19,5.41-1.23.32-5.91-2.78-7.14-3.37l-14.29-6.73L24.06,115.66c-.52-.25-1,.53-.46.78l51.79,24.4a.46.46,0,0,0,.68-.39c.58-4.33,1.49-6.27-2.28-8.86-4.14-2.85-9.13-3.94-13.9-5.25-12.35-3.4-23.73-10.45-34.42-17.35-.49-.32-.94.47-.46.78Z"/><path d="M25.84,116.75a3.88,3.88,0,0,0,1.86-6.34c-.36-.45-1,.19-.64.64a3,3,0,0,1-1.46,4.84.45.45,0,0,0,.24.87Z"/><path class="cls-1" d="M64.41,141.22l6-2.91c1.54-.75.19-3-1.34-2.3l-6,2.91c-1.54.75-.19,3,1.34,2.3Z"/><path d="M69.59,135.75l3,1.42.11-.83a36.71,36.71,0,0,0-8.22,4.17l.66.51.43-1.65a.46.46,0,0,0-.44-.57l-2.21-.13.23.84L70,135.75c.51-.28.06-1.06-.46-.78l-6.93,3.77a.46.46,0,0,0,.23.84l2.21.13-.44-.57-.43,1.65a.46.46,0,0,0,.66.51,35.79,35.79,0,0,1,8-4.08c.33-.12.49-.64.11-.83L70,135C69.53,134.72,69.07,135.5,69.59,135.75Z"/><path d="M76.81,134.42q28.77-13.21,56.43-28.63a.46.46,0,0,0,0-.78l-8-4.44c-.51-.28-1,.5-.46.78,1.25.7,6.87,2.85,6.39,4.55-.29,1-6.41,3.52-7.29,4q-7.93,4.3-16,8.42-15.62,8-31.57,15.32c-.53.24-.07,1,.46.78Z"/><path d="M75.7,141c13.88-7.1,27.73-14.26,41.66-21.26q5.07-2.55,10.15-5.07c2-1,5.48-1.86,6.75-3.82,1.54-2.4-.07-5.64-2.37-6.58-.54-.22-.77.65-.24.87l.5,6.25-1.7.83a28.21,28.21,0,0,1-4.24,2.09l-6.77,3.37q-7.39,3.7-14.74,7.47L75.24,140.21c-.52.26-.06,1,.46.78Z"/><path d="M95.35,31.68c-4.42-4.47-9.07.5-13.29,3.11C76.88,38,72.32,40,71.73,46.43c-.87,9.43-.81,19-1,28.5C70.7,80,68.29,88.31,74.37,90.56c.4.15.57-.49.17-.63-1.39-.51-3-4.21-3.23-5.49a28.16,28.16,0,0,1,.06-4.75q.05-4.28.13-8.56c.1-5.7.25-11.4.49-17.1.11-2.53.17-5.07.39-7.59.37-4.29,2.65-6.45,6.05-8.61,3.83-2.44,12.29-9.89,16.45-5.68.3.3.76-.16.46-.46Z"/><path d="M75.51,42.56c-2.05,4.26-1.67,9.13-1.69,13.75,0,6.84-.33,13.63-.67,20.46-.18,3.57-.57,7.72.24,11.22.33,1.44.53,2,2,2.35,3.31.77,8.85-3.27,11.62-4.76,4.2-2.25,9.33-3.84,9.83-9.22.35-3.66-.77-7.76-1-11.4a83.61,83.61,0,0,1,.67-20.21c.54-3.25,1.61-9.65-.66-12.36-1.54-1.84-3.16-.07-4.85.87-2.8,1.56-5.62,3.08-8.43,4.61-2.49,1.35-5.3,2.4-7.05,4.7-.26.33.31.66.56.33,2.23-2.93,7.17-4.66,10.32-6.38,1.87-1,3.75-2,5.6-3.07,1.52-.86,2.4-1.51,3.69.51s.76,7.17.39,9.7a102.37,102.37,0,0,0-.18,28.27c.23,1.82.67,3.84.16,5.64-1.11,3.89-6.12,5.71-9.33,7.44-2.24,1.2-5.11,3.25-7.57,3.75a2.35,2.35,0,0,1-3.26-.43q-2.7-.26-2-2.79c-.53-1.65-.29-3.92-.27-5.68.08-6.48.81-12.93.82-19.43,0-5.53-.84-12.48,1.6-17.54C76.25,42.52,75.69,42.18,75.51,42.56Z"/><path d="M75.86,48.42,89.1,40.51c1.21-.72,4.62-3.75,6-2.6.5.43-.45,6.07-.49,6.9q-.33,6.55-.18,13.11c.11,4.53,1.22,9.48.9,14-.24,3.41-1.5,3.83-4.49,5.19l-6.68,3.05a34.69,34.69,0,0,1-5,2.29q-1.59,1.6-2.86-.09l0-3.8L76,48.14a.33.33,0,0,0-.65,0l.24,36.08a.33.33,0,0,0,.49.28l20.05-9.16a.31.31,0,0,0,.16-.28,182.17,182.17,0,0,1-.44-38.8.33.33,0,0,0-.49-.28L75.53,47.86A.33.33,0,0,0,75.86,48.42Z"/><path d="M81.35,40.81c-.47.76.72,1.24,1.27.8a.7.7,0,0,0,.14-.86,1.22,1.22,0,0,0-1.05-.52c-.42,0-.41.61,0,.65.12,0,.4,0,.41.16s-.12,0-.2.1c.22-.36-.35-.69-.56-.33Z"/><path d="M84.16,40.38a17.82,17.82,0,0,1,3.26-1.78c.38-.16.22-.79-.17-.63a18.61,18.61,0,0,0-3.42,1.84c-.35.24,0,.8.33.56Z"/><path d="M85.8,81.33a2.38,2.38,0,0,0-1.24,2c-.06.46-.19,1.08.21,1.42a1.32,1.32,0,0,0,1.3.12,2.8,2.8,0,0,0,1.61-2.77c0-1.05-1.13-1.12-1.87-.74-.37.19,0,.76.33.56.17-.09.51-.24.7-.12s.16.81.09,1.07a2.15,2.15,0,0,1-.48,1c-.21.22-.72.62-1,.48s-.22-1.14-.08-1.53a1.69,1.69,0,0,1,.81-.87C86.5,81.69,86.17,81.12,85.8,81.33Z"/><path class="cls-1" d="M70.11,34.64c-2.1,1.44-5,3.29-6,5.72a11.27,11.27,0,0,0-.36,4.34l0,6.72a1.33,1.33,0,0,0,2.66,0c0-2.6-.28-5.35,0-7.94.29-3.25,2.5-4.82,5-6.54,1.4-1,.07-3.27-1.34-2.3Z"/><path class="cls-1" d="M76.42,33.92a42,42,0,0,1,6.13-4.68c1.45-.91.11-3.21-1.34-2.3A45.8,45.8,0,0,0,74.53,32c-1.26,1.16.62,3,1.88,1.88Z"/><path class="cls-1" d="M65.35,84.39c-.41,3.49-.53,7.82,2.63,10.14,3.77,2.76,9.5,1.65,13.38-.17,1.55-.73.2-3-1.34-2.3-2.87,1.34-8.42,2.63-11-.11-1.79-1.93-1.32-5.19-1-7.56.2-1.7-2.47-1.68-2.66,0Z"/><path class="cls-1" d="M98.73,54.15V74.82a1.33,1.33,0,0,0,2.66,0V54.15a1.33,1.33,0,0,0-2.66,0Z"/><path class="cls-1" d="M98.67,79.83v1.23a1.33,1.33,0,0,0,2.66,0V79.83a1.33,1.33,0,0,0-2.66,0Z"/><rect class="cls-2" width="158" height="169" rx="12" ry="12"/></g></g></svg>