<?xml version="1.0" encoding="utf-8"?>
<!-- Generator: Adobe Illustrator 23.0.4, SVG Export Plug-In . SVG Version: 6.00 Build 0)  -->
<svg version="1.1" id="Layer_1" xmlns="http://www.w3.org/2000/svg" xmlns:xlink="http://www.w3.org/1999/xlink" x="0px" y="0px"
	 viewBox="0 0 158 169" style="enable-background:new 0 0 158 169;" xml:space="preserve">
<style type="text/css">
	.st0{fill:#482CF6;}
	.st1{fill:none;}
</style>
<title>books_1</title>
<g>
	<g id="homepage">
		<path d="M40.5,88.9c4.7,2,9.5,4.1,14.2,6.2c5.3,2.4,11.2,4.5,15.8,8.2c1.1,0.7,2.1,1.7,2.8,2.9c-0.1,3.7-1.3,4.9-3.4,3.5
			c-1.9-0.3-3.9-1.9-5.5-2.9c-2.3-1.4-4.6-2.6-7-3.7c-6.1-2.5-11.9-5.5-17.4-9.1c-0.5-0.3-0.9,0.4-0.5,0.8
			c5.1,3.5,10.7,6.4,16.4,8.8c6.2,2.5,11.5,7.3,18.2,8.2c0.2,0,0.4-0.1,0.4-0.3c2.3-7.9-8.2-12-13.7-14.5c-6.6-3-13.2-5.9-19.9-8.8
			C40.4,87.9,39.9,88.7,40.5,88.9L40.5,88.9z"/>
		<path d="M74.6,112.5c5.8-2,11.3-5.1,16.8-7.8c6.3-3,12.7-5.9,19-8.8c3.6-1.7,9.6-3.1,12.1-6.5c1.3-1.8,1.4-4.7-0.9-5.8
			c-3-1.4-6.8,1.8-9,3.2c-3.6,2.3-7.1,5-10.9,6.8c-9.1,4.4-19,7.4-28.2,11.6c-0.5,0.2-0.1,1,0.5,0.8c7.8-3.6,15.6-6.8,23.6-9.8
			c5.2-1.9,9.5-4.8,14.2-7.8c1.2-0.8,3.8-3.2,5.2-3.2c4,2.9,4.7,4.8,2,5.8c-0.9,0.4-1.8,0.8-2.7,1.2c-4.4,2-8.7,4-13.1,6
			c-9.5,4.4-18.9,9.9-28.8,13.4C73.9,111.8,74.1,112.7,74.6,112.5L74.6,112.5z"/>
		<path d="M95.8,71.4c7.7,5,16.3,9.1,24.5,13.1c0.5,0.2,1-0.5,0.5-0.8c-8.2-4-16.8-8.1-24.5-13.1C95.8,70.3,95.3,71.1,95.8,71.4z"/>
		<path d="M40.8,89c10.5-3.8,20.7-8.6,30.3-14.3c0.2-0.1,0.3-0.4,0.2-0.6c-0.1-0.2-0.4-0.3-0.6-0.2C61.1,79.6,51,84.3,40.6,88.1
			C40,88.3,40.3,89.2,40.8,89L40.8,89z"/>
		<path d="M41.2,89.7c0.9,1.6,0.6,3.6-0.6,5c-0.4,0.4,0.2,1.1,0.6,0.6c1.5-1.7,1.8-4.1,0.8-6.1C41.7,88.7,41,89.1,41.2,89.7
			L41.2,89.7z"/>
		<path d="M40.9,96.9c-2.1,0-4.2,0.3-6.2,1.1c-0.2,0.1-0.4,0.3-0.3,0.6c0,0.1,0.1,0.2,0.2,0.3c8.6,4.8,17.5,9.3,26.4,13.4
			c5.5,2.5,12.2,7.5,18.3,4.8c16.7-7.4,31.1-19.3,49-24.1c0.2-0.1,0.4-0.3,0.3-0.6c0-0.1-0.1-0.2-0.2-0.3l-6.6-3
			c-0.5-0.2-1,0.5-0.5,0.8c0.9,0.4,4.9,1.7,5.1,2.7c0,0-5.9,1.9-6.4,2.1c-3.7,1.4-7.3,3.1-10.8,4.9c-7.8,4-15.2,8.8-22.9,12.9
			c-4,2.2-8.5,5.4-13.2,4.1c-5.1-1.4-10.3-4.4-15.1-6.7c-4.5-2.1-8.9-4.3-13.3-6.6c-2.2-1-4.4-2.2-6.5-3.5c-3.5-2.4-0.2-2,2.6-2
			c0.2,0,0.5-0.2,0.5-0.4C41.3,97.2,41.1,97,40.9,96.9L40.9,96.9L40.9,96.9z"/>
		<path d="M73.9,117.1c0.7,3,0.7,6,0.2,9c0,0.3,0.2,0.7,0.6,0.6c11.8-4.9,22-12.5,33.5-18c5.7-2.9,11.6-5.5,17.6-7.8
			c4.5-1.6,5.2-3,3.4-7.9c-0.2-0.5-1.1-0.3-0.9,0.2c1.9,5.1-0.8,6-4.3,7.4c-2,0.8-4,1.7-6,2.6c-5.6,2.5-11.1,5-16.5,7.8
			c-4.8,2.5-9.2,5.6-13.8,8.4c-2.9,1.8-6.5,4.2-9.8,5s-1.9,0.7-2.5-1.8c-0.4-1.7-0.2-3.9-0.6-5.7C74.6,116.2,73.7,116.5,73.9,117.1
			L73.9,117.1z"/>
		<path d="M34,107.3c13.7,6.1,27.2,12.5,40.6,19.3c0.5,0.3,1-0.5,0.5-0.8c-13.4-6.8-26.9-13.2-40.6-19.3
			C33.9,106.2,33.4,107,34,107.3L34,107.3z"/>
		<path d="M36.8,100.4c1.2,1,2.1,2.6,1.2,4.1c-0.9,1.4-2.8,2-4.3,1.4c-0.5-0.2-0.8,0.7-0.2,0.9c2,0.7,4.2,0,5.4-1.8
			c0.9-1.8,0.3-4-1.4-5.2C37,99.4,36.4,100,36.8,100.4z"/>
		<path d="M25.1,109.8c4.3-1,8.6-3.5,12.7-5.3c0.5-0.2,0.1-1-0.5-0.8c-4,1.7-8.3,4.2-12.5,5.2C24.3,109,24.5,109.9,25.1,109.8z"/>
		<path d="M25,109.8c8.1,5.4,16.6,10.1,25.4,14.2c7.3,3.3,18.6,3.5,23.9,9.9c1.4,1.7,2.7,4.6-0.2,5.4c-1.2,0.3-5.9-2.8-7.1-3.4
			l-14.3-6.7l-28.6-13.5c-0.5-0.2-1,0.5-0.5,0.8l51.8,24.4c0.2,0.1,0.5,0,0.6-0.2c0-0.1,0.1-0.1,0.1-0.2c0.6-4.3,1.5-6.3-2.3-8.9
			c-4.1-2.9-9.1-3.9-13.9-5.2c-12.3-3.4-23.7-10.4-34.4-17.3C25,108.7,24.5,109.5,25,109.8L25,109.8z"/>
		<path d="M25.8,116.8c2.1-0.6,3.3-2.7,2.7-4.8c-0.2-0.6-0.5-1.1-0.9-1.6c-0.4-0.4-1,0.2-0.6,0.6c1.1,1.3,0.9,3.2-0.3,4.2
			c-0.3,0.3-0.7,0.5-1.1,0.6c-0.2,0.1-0.4,0.3-0.3,0.6C25.4,116.7,25.6,116.8,25.8,116.8L25.8,116.8L25.8,116.8z"/>
		<path class="st0" d="M64.4,141.2l6-2.9c1.5-0.8,0.2-3-1.3-2.3l-6,2.9C61.5,139.7,62.9,141.9,64.4,141.2z"/>
		<path d="M69.6,135.8l3,1.4l0.1-0.8c-2.9,1-5.7,2.4-8.2,4.2l0.7,0.5l0.4-1.6c0.1-0.2-0.1-0.5-0.3-0.6c0,0-0.1,0-0.1,0l-2.2-0.1
			l0.2,0.8l6.9-3.8c0.5-0.3,0.1-1.1-0.5-0.8l-6.9,3.8c-0.2,0.1-0.3,0.4-0.1,0.6c0.1,0.1,0.2,0.2,0.4,0.2l2.2,0.1l-0.4-0.6l-0.4,1.6
			c-0.1,0.2,0.1,0.5,0.3,0.6c0.1,0,0.2,0,0.3,0c2.5-1.7,5.2-3.1,8-4.1c0.3-0.1,0.5-0.6,0.1-0.8l-3-1.4
			C69.5,134.7,69.1,135.5,69.6,135.8z"/>
		<path d="M76.8,134.4c19.2-8.8,38-18.3,56.4-28.6c0.2-0.1,0.3-0.4,0.1-0.6c0-0.1-0.1-0.1-0.1-0.1l-8-4.4c-0.5-0.3-1,0.5-0.5,0.8
			c1.2,0.7,6.9,2.8,6.4,4.6c-0.3,1-6.4,3.5-7.3,4c-5.3,2.9-10.6,5.7-16,8.4c-10.4,5.3-20.9,10.4-31.6,15.3
			C75.8,133.9,76.2,134.6,76.8,134.4L76.8,134.4z"/>
		<path d="M75.7,141c13.9-7.1,27.7-14.3,41.7-21.3c3.4-1.7,6.8-3.4,10.2-5.1c2-1,5.5-1.9,6.8-3.8c1.5-2.4-0.1-5.6-2.4-6.6
			c-0.5-0.2-0.8,0.7-0.2,0.9l0.5,6.2l-1.7,0.8c-1.4,0.8-2.8,1.5-4.2,2.1l-6.8,3.4c-4.9,2.5-9.8,5-14.7,7.5l-29.5,15.1
			C74.7,140.5,75.2,141.2,75.7,141L75.7,141z"/>
		<path d="M95.3,31.7c-4.4-4.5-9.1,0.5-13.3,3.1C76.9,38,72.3,40,71.7,46.4c-0.9,9.4-0.8,19-1,28.5c0,5.1-2.4,13.4,3.6,15.6
			c0.4,0.2,0.6-0.5,0.2-0.6c-1.4-0.5-3-4.2-3.2-5.5c-0.1-1.6-0.1-3.2,0.1-4.8c0-2.9,0.1-5.7,0.1-8.6c0.1-5.7,0.2-11.4,0.5-17.1
			c0.1-2.5,0.2-5.1,0.4-7.6c0.4-4.3,2.7-6.5,6.1-8.6c3.8-2.4,12.3-9.9,16.4-5.7C95.2,32.5,95.6,32,95.3,31.7L95.3,31.7z"/>
		<path d="M75.5,42.6c-2.1,4.3-1.7,9.1-1.7,13.8c0,6.8-0.3,13.6-0.7,20.5c-0.2,3.6-0.6,7.7,0.2,11.2c0.3,1.4,0.5,2,2,2.3
			c3.3,0.8,8.8-3.3,11.6-4.8c4.2-2.2,9.3-3.8,9.8-9.2c0.3-3.7-0.8-7.8-1-11.4c-0.6-6.7-0.4-13.5,0.7-20.2c0.5-3.2,1.6-9.7-0.7-12.4
			c-1.5-1.8-3.2-0.1-4.8,0.9c-2.8,1.6-5.6,3.1-8.4,4.6C80.1,39.2,77.3,40.3,75.5,42.6c-0.3,0.3,0.3,0.7,0.6,0.3
			c2.2-2.9,7.2-4.7,10.3-6.4c1.9-1,3.8-2,5.6-3.1c1.5-0.9,2.4-1.5,3.7,0.5s0.8,7.2,0.4,9.7c-1.4,9.4-1.4,18.9-0.2,28.3
			c0.2,1.8,0.7,3.8,0.2,5.6c-1.1,3.9-6.1,5.7-9.3,7.4c-2.2,1.2-5.1,3.2-7.6,3.8c-1,0.8-2.5,0.6-3.3-0.4c-1.8-0.2-2.5-1.1-2-2.8
			c-0.5-1.7-0.3-3.9-0.3-5.7c0.1-6.5,0.8-12.9,0.8-19.4c0-5.5-0.8-12.5,1.6-17.5C76.2,42.5,75.7,42.2,75.5,42.6z"/>
		<path d="M75.9,48.4l13.2-7.9c1.2-0.7,4.6-3.8,6-2.6c0.5,0.4-0.4,6.1-0.5,6.9c-0.2,4.4-0.3,8.7-0.2,13.1c0.1,4.5,1.2,9.5,0.9,14
			c-0.2,3.4-1.5,3.8-4.5,5.2l-6.7,3.1c-1.6,0.9-3.3,1.7-5,2.3c-1.1,1.1-2,1-2.9-0.1v-3.8L76,48.1c0-0.2-0.2-0.3-0.4-0.3
			c-0.1,0-0.2,0.1-0.3,0.3l0.2,36.1c0,0.2,0.2,0.3,0.3,0.3c0.1,0,0.1,0,0.2,0l20-9.2c0.1-0.1,0.2-0.2,0.2-0.3
			c-1.5-12.9-1.7-25.9-0.4-38.8c0-0.2-0.2-0.3-0.3-0.3c-0.1,0-0.1,0-0.2,0L75.5,47.9c-0.1,0.1-0.2,0.3,0,0.5
			C75.6,48.4,75.7,48.5,75.9,48.4z"/>
		<path d="M81.3,40.8c-0.5,0.8,0.7,1.2,1.3,0.8c0.2-0.2,0.3-0.6,0.1-0.9c-0.2-0.3-0.6-0.5-1.1-0.5c-0.4,0-0.4,0.6,0,0.7
			c0.1,0,0.4,0,0.4,0.2s-0.1,0-0.2,0.1C82.1,40.8,81.6,40.5,81.3,40.8L81.3,40.8z"/>
		<path d="M84.2,40.4c1-0.7,2.1-1.3,3.3-1.8c0.4-0.2,0.2-0.8-0.2-0.6c-1.2,0.5-2.3,1.1-3.4,1.8C83.5,40.1,83.8,40.6,84.2,40.4
			L84.2,40.4z"/>
		<path d="M85.8,81.3c-0.7,0.4-1.2,1.2-1.2,2c-0.1,0.5-0.2,1.1,0.2,1.4c0.4,0.3,0.9,0.3,1.3,0.1c1.1-0.5,1.7-1.6,1.6-2.8
			C87.7,81.1,86.6,81,85.8,81.3c-0.4,0.2,0,0.8,0.3,0.6c0.2-0.1,0.5-0.2,0.7-0.1s0.2,0.8,0.1,1.1c-0.1,0.4-0.2,0.7-0.5,1
			c-0.2,0.2-0.7,0.6-1,0.5s-0.2-1.1-0.1-1.5c0.2-0.4,0.4-0.7,0.8-0.9C86.5,81.7,86.2,81.1,85.8,81.3z"/>
		<path class="st0" d="M70.1,34.6c-2.1,1.4-5,3.3-6,5.7c-0.4,1.4-0.5,2.9-0.4,4.3v6.7c0,0.7,0.6,1.3,1.3,1.3s1.3-0.6,1.3-1.3l0,0
			c0-2.6-0.3-5.3,0-7.9c0.3-3.2,2.5-4.8,5-6.5C72.8,35.9,71.5,33.7,70.1,34.6L70.1,34.6z"/>
		<path class="st0" d="M76.4,33.9c1.9-1.7,3.9-3.3,6.1-4.7c1.4-0.9,0.1-3.2-1.3-2.3c-2.4,1.5-4.6,3.2-6.7,5.1
			C73.3,33.2,75.2,35,76.4,33.9L76.4,33.9z"/>
		<path class="st0" d="M65.3,84.4c-0.4,3.5-0.5,7.8,2.6,10.1c3.8,2.8,9.5,1.7,13.4-0.2c1.6-0.7,0.2-3-1.3-2.3
			c-2.9,1.3-8.4,2.6-11-0.1c-1.8-1.9-1.3-5.2-1-7.6C68.2,82.7,65.5,82.7,65.3,84.4L65.3,84.4z"/>
		<path class="st0" d="M98.7,54.2v20.7c0,0.7,0.6,1.3,1.3,1.3s1.3-0.6,1.3-1.3V54.2c0-0.7-0.6-1.3-1.3-1.3S98.7,53.4,98.7,54.2z"/>
		<path class="st0" d="M98.7,79.8v1.2c0,0.7,0.6,1.3,1.3,1.3s1.3-0.6,1.3-1.3v-1.2c0-0.7-0.6-1.3-1.3-1.3S98.7,79.1,98.7,79.8z"/>
		<path class="st1" d="M12,0h134c6.6,0,12,5.4,12,12v145c0,6.6-5.4,12-12,12H12c-6.6,0-12-5.4-12-12V12C0,5.4,5.4,0,12,0z"/>
	</g>
</g>
</svg>
