<?xml version="1.0" encoding="utf-8"?>
<!-- Generator: Adobe Illustrator 21.1.0, SVG Export Plug-In . SVG Version: 6.00 Build 0)  -->
<svg version="1.1" id="Layer_1" xmlns="http://www.w3.org/2000/svg" xmlns:xlink="http://www.w3.org/1999/xlink" x="0px" y="0px"
	 viewBox="0 0 158 169" style="enable-background:new 0 0 158 169;" xml:space="preserve">
<style type="text/css">
	.st0{fill:#5995DA;}
</style>
<title>bs</title>
<g id="Layer_2">
	<g id="bp_cover">
		<path class="st0" d="M67.1,61.3c-0.1,1,0,2.1,0.1,3.1c0,0.2,0.2,0.3,0.4,0.4c1.9,0.6,4.4,0.2,6.4,0.2h8c0.3,0,0.5-0.2,0.5-0.5
			c0-1,0.4-3-0.5-3.9c-1.1-1-5-0.9-6.5-1c-2-0.1-5.1-0.5-7,0.4c-1.4,0.7-0.9,2.1-0.8,3.6c0,0.6,0.9,0.7,1,0.1
			c0.1-0.8,0.4-1.6,0.7-2.3h-0.9c0.4,0.9,0.7,1.8,0.9,2.8c0.1,0.6,1,0.4,1-0.1v-1.7c0-0.3-0.2-0.5-0.5-0.5c0,0-0.1,0-0.1,0
			c-0.8,0.2-0.8,0.2-1.2,0.8l1,0.1c-0.5-1.7,4.9-0.9,5.4-0.9c1.9,0.2,3.6,0.2,5.2,1.4c0.3,0.1,0.6,0.1,0.7-0.2
			c0-0.1,0.1-0.2,0.1-0.2l-0.1-1l-1,0.1c0.6,1.8-3,1-3.7,1c-1.1-0.1-4.2,0.1-5-0.9l-0.4,0.9c2.5-0.1,5-0.1,7.5,0.1
			c0.3,0,0.5-0.3,0.4-0.6c0-0.2-0.1-0.3-0.3-0.4l-5-1.3c-0.2-0.1-0.5,0-0.6,0.2l-0.6,1l1,0.1c-0.3-1.2-0.9-2.6-0.6-3.7
			c0.2-0.8,1.3-2.8,2.6-2.3c0.7,0.3,0.8,0.9,0.9,1.6c0.5,0.7,0.4,1.1-0.3,1.3c-0.9,0.7-1.6,0.2-2.1-1.3l-0.3,1c1.2,0,0.9,3.4,0.7,4
			c-0.4,1.2-0.9,2.3-1.4,3.4h0.9l-0.4-0.9c-0.1-0.7-1.1-0.4-1,0.3c0.2,1.4-0.7,6.8,2.4,5.4c0.2-0.1,0.3-0.3,0.3-0.4
			c0-1.7-0.1-3.4-0.2-5.1l-1,0.1c0.7,1.6,1,3.2,0.9,4.9l1-0.1c-0.8-3.2-0.9-3.9,2.2-4.7c1.8-0.4,3.5-0.9,5.3-1.5
			c0.6-0.2,0.4-1.2-0.3-1c-2.8,0.9-5.6,1.6-8.5,2.2c-0.2,0.1-0.4,0.3-0.4,0.5c0.1,1.6,0.3,3.2,0.7,4.8c0.1,0.3,0.4,0.4,0.7,0.2
			c0.2-0.1,0.3-0.2,0.3-0.4c0.1-1.8-0.2-3.6-0.9-5.2c-0.2-0.5-1.1-0.5-1,0.1s0.1,1.3,0.1,2c0,0.4,0.4,3-0.2,1.5
			c-0.2-1.2-0.4-2.5-0.4-3.7l-1,0.3c0,0.4,0.2,0.8,0.5,1.1c0.2,0.3,0.5,0.3,0.7,0.2c0.1,0,0.1-0.1,0.2-0.2c0.9-2,4.4-9.1-0.2-9
			c-0.3,0-0.5,0.2-0.5,0.5c0,0.2,0.1,0.4,0.3,0.5c2.9,2,3.8-2.8,0.4-2c-0.9,0.1-1.6,0.9-1.5,1.8c0,0.2,0.1,0.4,0.2,0.6
			c0.8,1.8,3.4,1.3,4.9,1.1c0.3,0,0.4-0.4,0.4-0.7l-0.8-4.1c-0.1-0.2-0.3-0.4-0.5-0.4c-1.3,0.1-3.6-0.3-4.4,1
			c-1,1.6-0.1,4.7,0.4,6.4c0.1,0.3,0.3,0.5,0.6,0.4c0.2,0,0.3-0.1,0.4-0.3c0.6-1.2,4,0.3,5,0.5l0.1-1c-2.5-0.2-5-0.2-7.5-0.1
			c-0.3,0-0.5,0.2-0.5,0.5c0,0.1,0.1,0.3,0.2,0.4c0.8,0.9,1.8,0.8,3,0.9c2.4,0.2,4.9,0.3,7.3,0.3c0.3,0,0.5-0.2,0.5-0.5
			c0.1-0.6,0-1.3-0.3-1.9c-0.2-0.5-1.1-0.5-1,0.1l0.1,1l0.8-0.5c-2-1.4-13.6-4-12.2,0.7c0.1,0.3,0.3,0.5,0.6,0.4
			c0.2,0,0.3-0.1,0.4-0.3l0.6-0.3l-0.7-0.5V64l1-0.1c-0.2-1-0.5-2-1-3c-0.2-0.3-0.5-0.3-0.7-0.2c-0.1,0-0.1,0.1-0.2,0.2
			c-0.4,0.8-0.6,1.7-0.8,2.5l1,0.1c-0.2-3.8,4.9-3.1,7.3-2.9c0.8,0.1,4.2,0,4.9,0.7c0.7,0.7,0.7,1.7,0.1,2.4
			c-0.1,0.1-0.1,0.1-0.2,0.2c-0.5,0.3-2.9,0-3.4,0H74c-1.1,0.1-2.3,0.1-3.4,0c-2-0.3-2.4-0.5-2.4-2.6c-0.1-0.3-0.4-0.4-0.7-0.3
			C67.3,61.1,67.2,61.2,67.1,61.3L67.1,61.3z"/>
		<path class="st0" d="M81.4,62.2c0.4-0.2,0.8-0.1,1,0.3c0.1,0.2,0.1,0.3,0.1,0.5c-0.1,0.7,1,0.7,1,0c0.1-1-0.7-1.9-1.7-1.9
			c-0.3,0-0.5,0-0.8,0.1C80.4,61.4,80.7,62.4,81.4,62.2L81.4,62.2z"/>
		<path class="st0" d="M74.6,56.3c0,1.7,0.2,3.5,0.6,5.2c0.2,0.7,1.2,0.4,1-0.3c-0.4-1.6-0.5-3.2-0.5-4.9c-0.1-0.3-0.4-0.4-0.7-0.3
			C74.8,56,74.7,56.1,74.6,56.3L74.6,56.3z"/>
		<path d="M72.1,59.5c-1.8-0.1-3.7-0.1-5.5,0c-0.2,0-0.4,0.2-0.4,0.5l0.1,5.3c0,0.2,0.2,0.4,0.4,0.4c1.1-0.1,2.2-0.2,3.3-0.1
			c1.7,0.2,1.4,0.1,1.4,1.7c0,1.4-0.5,2.7,0,4.1c0,0.2,0.2,0.3,0.3,0.3c1.7,0.2,3.5,0.1,5.2-0.1c0.2,0,0.4-0.2,0.4-0.4
			c0-0.9-0.6-3.6-0.2-4.4c0.7-1.4,4.6-1.3,6-1.6c0.2-0.1,0.4-0.3,0.3-0.6c-0.3-1.9-0.2-3.9-1.8-4.9c-0.9-0.5-2.5-0.1-3.3-0.7
			c-1.3-1-0.9-3.1-1.1-4.5c0-0.2-0.2-0.5-0.4-0.5c-1.7,0.2-3.4,0.3-5.1,0.3c-0.2,0-0.4,0.1-0.4,0.3c-0.2,0.9-1.6,6.5,1,5.8
			c0.2-0.1,0.4-0.3,0.3-0.6C72.5,59.6,72.2,59.4,72.1,59.5L72.1,59.5c-0.6,0.1-0.4-1.7-0.4-1.8c0.1-1.6,0.3-2.2,1.9-2.6
			c3.2-0.8,3,1.7,3.1,4c0,0.2,0.1,0.4,0.3,0.4c2,0.4,5.4,0.5,5.2,3.3c-0.2,2.4-3.8,2.1-5.8,2.4c-0.3,0-0.3,0.3-0.3,0.6
			c0.3,2,1.3,4.8-1.5,4.8c-3.3,0.1-2.4-3.1-1.9-5.4c0.1-0.2-0.1-0.5-0.3-0.6c0,0-0.1,0-0.1,0c-0.9-0.1-3.8,0.4-4.5,0
			c-0.8-0.5-1.2-2.7-0.8-3.4c0.8-1.5,3.5-1.1,5-0.9C72.7,60.5,72.7,59.6,72.1,59.5z"/>
		<path d="M116.3,104.7c-13.8,1.2-27.2-0.1-40.9-1.2c-7.1-0.6-14.3-1.2-21.5-1.8c-4.2-0.3-8.7-1.1-12.9-0.7c-1.3,0.1-2.7,0.4-4,0.7
			s-4.4,1.7-5.7,1.3c-3.6-0.9-2.2-10.2-2.1-13c0.1-9.8,0.5-19.7-0.5-29.5c-0.5-4.7-1.3-9.3-1.4-14c0-2.8,0.2-5.8,1.6-8.3
			c2.7-4.8,7.8-3.2,12.2-2.6C55,37.4,68.9,36.8,82.7,36c8.1-0.4,16.1-1,24.2-1.1c3.1-0.2,6.3-0.1,9.4,0.1c4.3,0.4,6,2.9,6,6.9
			c-0.1,11.1-0.2,22.3,0.1,33.4c0,0.2,0.2,0.5,0.5,0.5c0.2,0,0.4-0.2,0.4-0.5c-0.3-11.1-0.8-22.3-0.1-33.4c0.2-3.3,0-5.8-3.4-7.1
			c-4.9-2-11.6-0.8-16.7-0.7c-16.1,0.5-32.2,2.2-48.3,1.6c-3.8-0.1-7.7-0.4-11.5-0.8c-2.9-0.3-6.4-1.5-9.4-1.2
			c-3.3,0.4-5.4,3.2-6.4,6.2c-1.7,5.1-0.6,11,0,16.2c0.7,5.2,1,10.5,1.1,15.7c0.1,6.1,0,12.2-0.1,18.3c0,3.5-1.1,9,0.2,12.3
			c1,2.4,2.5,1.7,4.7,1.2c3.5-0.8,7.1-1.8,10.7-1.7c6.3,0.2,12.7,1,19,1.5c17.8,1.5,35.6,3.9,53.4,2.3
			C116.9,105.5,116.9,104.6,116.3,104.7L116.3,104.7z"/>
		<path d="M28.4,45.2c16.3-1.2,32.2,0.3,48.4,0.5c15.1,0.2,30.2-0.2,45.3,0.7c0.6,0,0.6-0.9,0-0.9c-15.1-0.8-30.2-0.4-45.3-0.7
			c-16.2-0.3-32.1-1.8-48.4-0.5C27.8,44.3,27.8,45.3,28.4,45.2z"/>
		<path d="M36.1,38.5c0.8-0.3,1.6,0.1,2,0.8c0.3,0.7,0.1,1.5-0.6,1.9c-0.1,0-0.1,0.1-0.2,0.1c-1.7,0.7-2.7-1.7-1.3-2.6
			c0.5-0.3,0-1.1-0.5-0.8c-1,0.7-1.4,2.1-0.8,3.2c0.5,1.1,1.9,1.6,3,1.1c0,0,0,0,0,0c1.2-0.4,1.8-1.8,1.4-2.9c0,0,0,0,0-0.1
			c-0.5-1.2-1.9-1.8-3.1-1.5C35.3,37.8,35.5,38.7,36.1,38.5L36.1,38.5z"/>
		<path d="M42.9,37.6c-1.1,0.4-1.7,1.6-1.4,2.8c0,0.1,0.1,0.2,0.2,0.4c0.7,1,2,1.4,3.2,0.9c1.1-0.4,1.7-1.6,1.3-2.8
			c0-0.1-0.1-0.2-0.1-0.2c-0.6-1.3-2.1-1.9-3.4-1.4c-0.5,0.2-0.1,1,0.5,0.8c1.7-0.7,3.3,2,1.3,2.8c-0.6,0.3-1.4,0.1-1.8-0.3
			c-0.4-0.5-0.4-1.3,0.2-1.8c0.1-0.1,0.2-0.2,0.4-0.2c0.2-0.1,0.4-0.3,0.3-0.6C43.4,37.6,43.2,37.5,42.9,37.6L42.9,37.6z"/>
		<path d="M50.5,37.8c-1.3,0.1-2.3,1.2-2.2,2.5c0.1,1.1,1,2,2.2,2c0.1,0,0.2,0,0.2,0c1.2-0.1,2.2-1.1,2.1-2.4c0,0,0,0,0-0.1
			c-0.2-1.4-1.5-2.3-2.9-2.1c-0.1,0-0.1,0-0.2,0c-0.2,0.1-0.4,0.3-0.3,0.6c0.1,0.2,0.3,0.4,0.6,0.3l0,0c0.9-0.2,1.8,0.3,2,1.2
			c0,0.1,0,0.1,0,0.2c0,0.8-0.6,1.4-1.4,1.4c-1.8,0.2-1.7-2.6,0-2.6c0.2,0,0.5-0.2,0.5-0.5S50.8,37.8,50.5,37.8L50.5,37.8z"/>
		<path d="M125,87.9c-4.5,0.4-5.4,3.2-7.6,6.8c-0.6,0.9-5.4,6.6-2.8,8.1s4.5-4.9,2.7,1.6c-0.7,2.5-3.4,6.7-3,9.2
			c0.2,1,1.4,1.8,2.1,2.4c2.4,2,4.9,3.8,7.6,5.4c1.1,0.7,2.5,1.9,3.9,1.8c4.1-0.2,3.6-5.5,3.5-8.3c-0.2-7.5-0.1-15.2-0.7-22.6
			C130.3,88,129,88,125,87.9c-0.2,0-0.4,0.2-0.4,0.4c0,0.2,0.2,0.5,0.4,0.5c3.3,0.1,4.6,0.7,4.8,4.2c0.2,2.7,0.2,5.3,0.2,8l0.2,8
			c0.1,2.4,0.9,6.4,0.2,8.6c0.2,1.2-0.6,2-2.3,2.3c-1,1.8-2,2.2-3.1,1.2c-1-0.2-2.3-1.4-3.1-2c-2-1.3-6.2-3.4-6.7-5.7
			c-0.4-1.7,1.4-4.6,1.9-6.3c0.8-2.4,1.4-4.9,1.9-7.4c0.1-0.2-0.1-0.5-0.3-0.6c-0.1,0-0.2,0-0.3,0c3.5-1.9-1.5,0.8-1.3,0.8
			c-3.7,0.7-1.2-1.6-0.2-3.2c2-3.2,3.5-7.7,7.8-8C125.5,88.8,125.5,87.8,125,87.9z"/>
		<path d="M115.8,115.5c-2.4,3.2-2.6,4.9-1.4,8.5c0.9,2.6,0.9,5.2,1.4,7.8c0.2,1,0.3,2.3,1.3,2.8c1.3,0.6,2.8,0.1,3.4-1.2
			c0.5-1.1,0.7-2.3,0.4-3.4c-0.3-3.6-2-6.9,0.2-10.3c0.3-0.5-0.5-0.9-0.8-0.4c-0.9,1.3-1.4,2.8-1.4,4.3c0,0.9,0.1,1.7,0.3,2.6
			c0.2,0.9,0.4,1.8,0.6,2.7c1,1.9,0.5,2.9-1.4,3c-1.7,1.3-2.4,0.8-1.9-1.5c-0.1-0.7-0.1-1.3-0.2-2c-0.1-0.9-0.3-1.8-0.5-2.7
			c-0.3-1.1-0.8-2.2-1.1-3.3c-0.7-2.6,0.4-4.5,1.9-6.4C116.9,115.5,116.1,115.1,115.8,115.5L115.8,115.5z"/>
		<path d="M122.8,122.2c1.4,3.8,1.8,7.5,2.3,11.5c0.2,1.3,0.6,3.1,2.2,3.2c1.6,0.2,2.5-1.3,2.6-2.7c0-1.7-0.1-3.5-0.5-5.2l-0.8-6.7
			c-0.1-0.6-1-0.6-0.9,0l0.8,6.7c0.3,1.1,0.4,2.2,0.4,3.4c0.4,1.5-0.5,2.3-2.7,2.4c-0.1-0.4-0.2-0.8-0.2-1.2c-0.6-4-1-7.8-2.4-11.7
			C123.5,121.4,122.6,121.7,122.8,122.2L122.8,122.2z"/>
		<path d="M117.5,135.4c0.9,1.1,0.9,2.6,0.1,3.7c-0.4,0.5-0.8,1-0.9,1.6c-0.1,0.9,0.5,1.3,1.3,1.4c2.4,0.1,4-2.6,3.5-4.8
			c-0.1-0.2-0.3-0.4-0.6-0.3c-0.1,0-0.2,0.1-0.2,0.2c-0.4-0.3-0.6-0.6-0.4-1c0.1-0.2,0.2-0.4,0.2-0.6c0.1-0.3,0.1-0.6,0.2-0.9
			c0-0.5-0.2-0.9-0.5-1.2c-0.4-0.4-1,0.2-0.6,0.6c1,1-1,2.6,0.2,3.8c0.4,0.5,1.1,0.5,1.6,0c0.1-0.1,0.1-0.1,0.2-0.2l-0.8-0.1
			c0.3,1.5-0.5,3-2,3.5c-1.3,0.4-0.8-0.8-0.4-1.4c0.2-0.3,0.4-0.6,0.5-0.9c0.6-1.4,0.3-3-0.7-4.1
			C117.7,134.3,117.1,134.9,117.5,135.4L117.5,135.4z"/>
		<path d="M125.6,136.1c0.4,1.6,1,3.5,0.4,5.1c-0.4,1.3-1.8,1.6-2.3,2.8c-0.5,1.4,1.1,1.4,2.1,1.3s2.9-0.6,3.2-1.6
			c0.5-1.5-2.1-1.7-2.9-1.9c-0.6-0.1-0.8,0.8-0.2,0.9c0.4,0.1,2.2,0.1,2,0.9c-0.1,0.3-1.4,0.6-1.8,0.7c-0.7,0.1-1.7,0.4-0.8-0.6
			c0.2-0.3,0.6-0.5,0.9-0.8c1.6-2,1-4.8,0.4-7c-0.1-0.2-0.3-0.4-0.6-0.3C125.7,135.6,125.5,135.9,125.6,136.1L125.6,136.1z"/>
		<path d="M128.9,141.9l0.4-6.1c0-0.6-0.9-0.6-0.9,0l-0.4,6.1C128,142.5,128.9,142.5,128.9,141.9z"/>
		<path d="M118.9,79.9c-0.2,1.7-0.8,4-0.4,5.6c0.1,0.4,0.3,0.8,0.7,1.1c0.4,0.3,2.5,0.7,2.1,1.5c-0.1,0.2-0.1,0.5,0.2,0.6
			s0.5,0.1,0.6-0.2l0,0c0.5-0.9,0-1.7-0.9-2.2c-0.2-0.1-0.6-0.1-0.8-0.3c-1.3-0.7-1-1.5-0.9-2.5c0.1-1.2,0.2-2.5,0.3-3.8
			C119.8,79.3,118.9,79.3,118.9,79.9z"/>
		<path d="M119.3,77c-0.8,0.8-1,2.1-0.4,3.1c0.8,1.3,1.9,1.4,2.5,3.1c0.2,1,0.5,2,1,3c1.6,2.5,5.7,3.9,6.8,0.2
			c0.3-1.5-0.2-3.1-1.3-4.2c-0.7-0.8-1-0.6-1.2-1.6c-0.1-0.7,0-1.4,0.2-2c0.2-0.8,0.3-1.6,0.2-2.3c-0.8-3.3-4.6-2-4.3,1.1l0.7-0.4
			c-1.2-0.8-2.8-0.8-4.1,0c-0.5,0.3,0,1.1,0.4,0.8h3.2c0.3,0.1,0.7,0,0.7-0.4c2.2-1,2.9-0.6,2.3,1c-0.1,0.5-0.2,0.9-0.4,1.3
			c-0.1,0.3-0.1,0.6-0.2,0.9c0.2,1.4,1.7,1.9,2.3,3.2c1.5,1.8,0.2,2.8-3.8,3c-0.7-0.6-1.2-1.4-1.5-2.3c-0.1-0.8-0.3-1.5-0.5-2.2
			c-0.6-1.4-3.7-2.5-2.1-4.6C120.3,77.2,119.6,76.5,119.3,77z"/>
		<path d="M114.5,97.4c0-0.8,0.4-2.6-0.4-3.1s-1.4,0.4-1.7,1.1c-0.9,2-0.3,4.4,1.4,5.8c0.4,0.3,1.1-0.3,0.6-0.6
			c-1.1-0.8-1.6-2.1-1.6-3.4c0-0.3,0.2-1.7,0.6-1.7c0.3,0,0.1,0.5,0.1,0.8v1.2c0,0.2,0.2,0.4,0.4,0.4
			C114.3,97.8,114.5,97.6,114.5,97.4L114.5,97.4z"/>
		<path d="M39.5,84.6c0.2,2.8,0.3,5.7,0.8,8.4c0.2,1.4,0.6,2.1,2.2,2c1.7-0.1,3.4-0.4,5.1-0.6c0.8-0.1,1.8-0.1,2.3-0.8
			s0.2-2,0.2-2.8l-0.5-6.1c0-0.2-0.2-0.4-0.5-0.4l-9.1-0.1C39.7,84.1,39.5,84.3,39.5,84.6c0,0.2,0.2,0.4,0.5,0.4l9.1,0.1l-0.5-0.4
			c0.2,2.3,0.8,5,0.6,7.3c-0.1,1.2-0.4,1.4-1.6,1.6L46,93.8c-1.2,0.3-2.4,0.4-3.7,0.5c-1.5-0.2-1.3-1.8-1.5-3.1
			c-0.2-2.2-0.4-4.3-0.5-6.5C40.3,84,39.4,84,39.5,84.6z"/>
		<path d="M58.3,86.2c-0.1,1.8,0,3.6,0.1,5.4c-0.1,1,0,2,0.3,3c0.9,1.7,4.4,1.6,6.1,1.6c1.4,0,3.8-0.2,4.2-1.9
			c0.2-1.1-0.4-2.4-0.6-3.4c-0.3-1.8-0.4-3.7-0.2-5.6c0-0.3-0.2-0.5-0.5-0.4c0,0-0.1,0-0.1,0l-7.8,1.1c-0.6,0.1-0.3,0.9,0.2,0.9
			l7.8-1.1l-0.6-0.4c-0.1,1.7-0.1,3.4,0.2,5.1c0.1,0.7,0.3,1.4,0.4,2.1c0.2,2.2-1.2,2.7-3.1,2.8c-1.2,0.1-2.5,0-3.6-0.3l-0.7-0.1
			c-0.7-0.6-1.2-1.4-1.1-2.4c-0.3-2-0.3-4.1-0.1-6.1C59.2,85.7,58.3,85.7,58.3,86.2L58.3,86.2z"/>
		<path d="M99.3,91.4l0.5-3.8c0.1-0.4,0-1.8,0.3-2.1c0.5-0.6,1.8-0.4,2.5-0.3c1.5,0.1,3,0.4,4.5,0.6c1.8,0.3,2.6,0.5,2.7,2.6
			c0.1,1.4,0.1,2.8,0.2,4.1c0.1,0.5,0.1,1,0.1,1.5l-2.5,1.5l-1.2-0.2c-2.4-0.3-4.8-0.4-7.2-0.3c-0.2,0-0.5,0.2-0.5,0.4
			c0,0.2,0.2,0.5,0.5,0.5l0,0c2.5-0.1,4.9,0.1,7.4,0.4c1.2,0.2,2.8,0.7,3.8-0.3c0.8-0.8,0.7-2,0.7-3c-0.1-1.2-0.1-2.4-0.2-3.7
			c0.1-1,0-2-0.2-3c-0.4-1.1-1.3-1.1-2.3-1.2c-2.4-0.5-4.7-0.8-7.1-1c-0.8,0-1.3,0-1.7,0.8c-0.3,0.8-0.4,1.7-0.4,2.5l-0.5,3.8
			C98.4,91.8,99.3,92,99.3,91.4L99.3,91.4z"/>
		<path d="M43.1,51c16.3-1.2,32.7-1.5,49-0.8c2,0.1,3.9,0.2,5.9,0.3c1.1,0.1,4.9-0.2,5.9,0.4c2.7,1.6,0.7,8.6,0.6,11.3
			c-0.2,3.8,0,7.8-0.4,11.7c-0.2,2.4,0.2,2.8-1.8,3.5c-1.4,0.5-3.6,0.1-5,0.1c-6.5,0.1-13.1,0.3-19.6-0.2c-4.9-0.4-9.8-1.2-14.7-1.5
			c-2.7-0.2-5.5-0.2-8.2-0.1c-1.6,0-3.2,0.1-4.8,0.2c-1,0.1-4.3,1-5.3,0.5c-2.6-1.4-1.1-8.7-1.1-11.2l0.4-13.9
			c0-0.2-0.2-0.5-0.5-0.5s-0.5,0.2-0.5,0.5l-0.8,25.7c0,0.2,0.2,0.4,0.5,0.4c10.1-1.1,20.2-1.1,30.3,0.2c10.5,1.2,21,0.7,31.5,0.5
			c0.2,0,0.4-0.2,0.4-0.4c0-9.1,0.5-18.1,1.4-27.2c0-0.2-0.2-0.4-0.4-0.5C85,48.6,64,48.6,43.2,50.1C42.6,50.1,42.6,51,43.1,51
			L43.1,51z"/>
		<path d="M91.1,88.4c-0.1,1.6,0,3.8-0.9,5.2s-3.7,0.6-5.2,0.3c-0.9-0.2-2.8-0.1-3.6-0.6c-1.2-0.8-0.8-2.1-0.9-3.3
			c0-2.2-1-6.4,2.5-6.1c1.4,0.2,2.9,0.3,4.3,0.3c0.8,0,2.3-0.4,3.1-0.1C91.7,84.7,91.1,87.3,91.1,88.4c0,0.6,0.9,0.6,0.9,0
			c0.1-1.2,0.6-3.6-0.4-4.6c-0.9-0.9-2.4-0.6-3.5-0.5c-1.6,0.1-3.3,0-4.9-0.2c-0.8-0.2-1.6-0.2-2.3,0c-2,0.8-1.3,4-1.3,5.6
			s-0.7,4.8,1.3,5.5c1.8,0.5,3.7,0.8,5.5,1c0.9,0.2,2.5,0.8,3.4,0.5c1.9-0.6,2-5.7,2.1-7.2C92,87.9,91.1,87.9,91.1,88.4z"/>
	</g>
</g>
</svg>
