<svg xmlns="http://www.w3.org/2000/svg" viewBox="0 0 158.52 169.48"><defs><style>.cls-1{fill:#f9fafb;}.cls-2{fill:#5995da;}</style></defs><title>c</title><g id="Layer_2" data-name="Layer 2"><g id="homepage"><rect class="cls-1" x="0.26" y="0.24" width="158" height="169" rx="12" ry="12" transform="translate(-0.3 0.28) rotate(-0.2)"/><path d="M50.92,39.44A181.87,181.87,0,0,1,30.79,90.93a.53.53,0,0,0,.08.64,385.36,385.36,0,0,1,37.61,34.14.53.53,0,0,0,.88-.23A130.87,130.87,0,0,1,86.78,84.72a.54.54,0,0,0-.08-.64L51.8,39.21c-.41-.53-1.15.22-.74.74l18,23.21L77.53,74c1.79,2.3,8.08,8.11,7.6,11.34-.22,1.44-2.28,3.7-3,5s-1.55,2.76-2.29,4.16Q76.9,100,74.53,105.79t-4.19,11.88c-.42,1.42-.6,3.3-1.28,4.63q.29,1.94-1.09,1.36l-2.54-2.59q-8.94-9-18.48-17.44-5.11-4.5-10.38-8.81c-1.41-1.16-4.17-2.47-4.14-4.6,0-1.34,2.29-4.1,2.94-5.32A181.36,181.36,0,0,0,51.93,39.72C52.08,39.06,51.07,38.78,50.92,39.44Z"/><path d="M91,84.85,70.63,131a.53.53,0,0,0,.45.79,233.66,233.66,0,0,0,56.32-5.38.53.53,0,0,0,.23-.88C113.51,114,103.3,98.78,91.87,84.74c-.43-.52-1.17.22-.74.74,7,8.54,13.49,17.44,20.56,25.88A108.88,108.88,0,0,0,123.1,123c.13.11,3,2.36,2.94,2.51-.08.45-4.07.92-4.45,1q-5.09,1-10.22,1.78Q100.24,130,89,130.54q-5.18.26-10.37.27c-.74,0-5.07.57-5.66-.05-1.24-1.3.33-3.24.92-4.58L92,85.38C92.22,84.77,91.32,84.23,91,84.85Z"/><path d="M40.95,78.13,35.7,88.59a.53.53,0,0,0,.19.72A34.62,34.62,0,0,1,47.54,98a.53.53,0,0,0,.9-.37,13.25,13.25,0,0,1,3.69-8.78.53.53,0,0,0,0-.74L41.77,78c-.48-.47-1.23.27-.74.74l5.7,5.56c.86.84,1.76,1.66,2.59,2.53,1.36,1.41,1.53,1.06,1,2.5-.4,1.07-1.42,2.1-1.88,3.21a14.6,14.6,0,0,0-1,5.09l.9-.37a34.76,34.76,0,0,0-8.57-7.19c-2.26-1.32-2.74-1.7-1.47-4.23l3.61-7.19C42.15,78.06,41.25,77.52,40.95,78.13Z"/><path d="M57.38,48.9C55,58.9,51.11,68.37,47.12,77.82a.54.54,0,0,0,.45.79l1.9.22a.53.53,0,0,0,.51-.39q5.5-13.8,10.38-27.84c.22-.64-.79-.91-1-.28q-2.44,7-5,14-1.3,3.48-2.64,6.94c-.23.61-2.46,6.22-2.92,5.36-.35-.64,2.14-5.12,2.47-5.94.91-2.24,1.81-4.5,2.65-6.77A127.33,127.33,0,0,0,58.4,49.18c.16-.66-.86-.94-1-.28Z"/><path d="M61.17,53.5c-1.43,7.85-4.7,15.4-7.35,22.9a.53.53,0,0,0,.37.65l2.66.75a.53.53,0,0,0,.65-.37c.57-3.44,2.46-6.37,3.74-9.57A49.22,49.22,0,0,0,64,57.33c.11-.66-.91-.95-1-.28a49.14,49.14,0,0,1-2.81,10.53c-.18.46-3.44,8.87-4.42,8.83s3-10.86,3.2-11.5a73.17,73.17,0,0,0,3.18-11.13c.12-.66-.89-.94-1-.28Z"/><path d="M61.38,86.22a3.18,3.18,0,0,0,2.76,2.84,3,3,0,0,0,3.16-2.64,2.71,2.71,0,0,0-.53-2.31,3.29,3.29,0,0,0-2.16-.91,3.14,3.14,0,0,0-3.22,3,.53.53,0,0,0,1.05,0c.07-2.62,4.51-2.56,3.79.25A1.9,1.9,0,0,1,64.36,88a2.13,2.13,0,0,1-1.93-1.81C62.36,85.55,61.31,85.54,61.38,86.22Z"/><path d="M70.76,80.45a2.31,2.31,0,0,0,1,3.06,2.76,2.76,0,0,0,3.34-1.33c1.3-2.22-3.16-3.3-4.3-1.84-.41.53.33,1.27.74.74s1-.38,1.51-.28,1.3.17,1.22.7-1.12,1.16-1.64,1.15a1.23,1.23,0,0,1-1-1.68C72,80.39,71.09,79.86,70.76,80.45Z"/><path d="M73.2,83.23a52.8,52.8,0,0,1,8.88,7.32c.47.48,1.21-.26.74-.74a54,54,0,0,0-9.09-7.48c-.57-.37-1.09.54-.53.91Z"/><path d="M74.12,81.67l9.76,6.86c.55.39,1.08-.52.53-.91l-9.76-6.86c-.55-.39-1.08.52-.53.91Z"/><path d="M65,89.18a70.21,70.21,0,0,0,11.11,11c.52.42,1.27-.32.74-.74a70.21,70.21,0,0,1-11.11-11c-.42-.53-1.16.22-.74.74Z"/><path d="M66,87.85A73.71,73.71,0,0,0,77.72,97c.57.36,1.1-.55.53-.91a72.38,72.38,0,0,1-11.46-8.94c-.49-.47-1.23.27-.74.74Z"/><path class="cls-2" d="M47.2,93.81l20.28,21.61c6,6.35,11.64,13.4,18.34,19,4.32,3.6,9.55,6.34,15.31,5.44,5.12-.8,9.54-4.08,10.58-9.31.42-2.1-2.8-3-3.22-.89-1.5,7.54-10.53,8.25-16.23,5.21-5.4-2.88-9.51-8-13.63-12.43l-29.07-31c-1.47-1.57-3.83.79-2.36,2.36Z"/><path d="M48,94c7.94,4.84,12.32,13.72,18,20.8s11.89,14.08,19.07,19.55c4.91,3.74,11,6.74,17.32,5.36,5.11-1.12,9.33-4.63,10.26-9.89.12-.66-.9-.94-1-.28-1.55,8.82-11.62,11-18.88,8.09s-12.9-9-18.09-14.47a159.08,159.08,0,0,1-14-17.18C57.25,101,53.8,96.25,48.56,93.06c-.58-.35-1.11.56-.53.91Z"/><path d="M50.11,92c6.11,4.71,10.17,12,15.12,17.81a179,179,0,0,0,17,17.56c5.93,5.33,18.15,14.13,23.94,3.52.32-.59-.58-1.12-.91-.53C94.13,150.8,58.48,97.11,50.64,91.08c-.54-.41-1.06.5-.53.91Z"/><path d="M94.32,112.92q-2.51-5.31,2.23-5.32h.95c4.94,1.8,1.7,4.32,1.08,6.28-.46,1.46-.13,2.83,0,4.38.11,1,.66,2.56,0,3.37s-2.62.8-3.43.05c-1.36-1.26-.38-5.8-.27-7.66,0-.68-1-.67-1,0-.16,2.79-1,6.23-.31,8.95a.51.51,0,0,0,.37.37c1.78.32,3.85-.21,5.64-.39.26,0,.56-.22.53-.53-.23-2.13-1.08-5-.77-7.13.22-1.5,1.34-2.59,1.48-4.19.2-2.16-.63-4.11-2.89-4.48-2.41-.39-5.52.6-6.35,3.13a3.21,3.21,0,0,0,2.44,4.2c.66.16.94-.85.28-1Z"/><path d="M60.22,36a254.5,254.5,0,0,0,54.4-5.53l-.4-1A79.68,79.68,0,0,0,101,38c-2.26,1.8-4.2,4-6.46,5.8a9.28,9.28,0,0,1-9.57,1.25C76.79,41.57,68.58,38.26,60.36,35c-.63-.25-.9.76-.28,1,5.76,2.31,11.52,4.6,17.25,7,3.39,1.4,7.43,4,11.14,4.45s5.55-1.65,8-4.07a75.28,75.28,0,0,1,18.26-12.91c.55-.28.15-1.08-.4-1a253.18,253.18,0,0,1-54.12,5.49A.53.53,0,0,0,60.22,36Z"/><path d="M61.07,38.39,88.21,73.67a.53.53,0,0,0,1-.4,88.2,88.2,0,0,1-1.26-11.41c-.08-1.94.48-4.8,0-6.64S86.31,53,84.81,52.1c-7.8-4.59-15.38-9.59-23-14.43-.57-.36-1.1.55-.53.91,7.18,4.55,14.33,9.15,21.58,13.56,2.32,1.41,3.54,1.83,4,4.87.79,5.44.4,11,1.34,16.54l1-.4L62,37.86C61.57,37.33,60.66,37.85,61.07,38.39Z"/><path d="M92,73.7a168.05,168.05,0,0,1,25.18-38.4c.32-.37,0-1-.51-.88-5.69,1.78-10.24,5.48-15,9-2.59,1.94-7.86,4.28-9.09,7.43-.61,1.57-.24,4.1-.34,5.75-.37,5.61-.82,11.22-1.25,16.82-.05.67,1,.67,1,0,.52-6.66.6-13.49,1.45-20.12.44-3.44,2.78-4.54,5.54-6.61,3.69-2.75,7.29-5.7,11.19-8.16.81-.51,5.08-2.9,5.14-2.79s-3.8,4.56-4.16,5q-3.49,4.38-6.68,9A165.57,165.57,0,0,0,91.13,73.17C90.85,73.78,91.75,74.32,92,73.7Z"/></g></g></svg>