<?xml version="1.0" encoding="utf-8"?>
<!-- Generator: Adobe Illustrator 21.1.0, SVG Export Plug-In . SVG Version: 6.00 Build 0)  -->
<svg version="1.1" id="Layer_1" xmlns="http://www.w3.org/2000/svg" xmlns:xlink="http://www.w3.org/1999/xlink" x="0px" y="0px"
	 viewBox="0 0 158 169" style="enable-background:new 0 0 158 169;" xml:space="preserve">
<style type="text/css">
	.st0{fill:none;}
	.st1{fill:#F9FAFB;}
	.st2{fill:#5995DA;}
	.st3{fill:#5D94CF;}
</style>
<title>cat</title>
<g id="Layer_2">
	<g id="Layer_12">
		<path class="st0" d="M57.7,113.2C29.4,99.3,24,60.8,46,38.8c10.7-10.7,25.4-19.4,41.1-17.4c21.5,2.7,31.7,21.6,33.2,24.4
			c12.6,23.8-1.3,47.9-2.2,49.3"/>
		<path d="M57.9,112.8C30,98.6,24.7,60.4,46.9,38.6C60.6,25.1,80.4,16.4,99,25.3c9.6,4.8,17.3,12.7,21.8,22.4
			c6.9,14.7,5.2,33.2-3.1,47.2c-0.1,0.2-0.1,0.5,0.2,0.6c0.2,0.1,0.5,0.1,0.6-0.2c13.9-23.6,7.6-55.9-16.8-69.6
			C70.4,8.2,31.1,40,32,73.1c0.4,17.1,10.2,32.7,25.5,40.4C58,113.8,58.5,113,57.9,112.8L57.9,112.8z"/>
		<path class="st1" d="M103.2,99.3c0,0.6,0,1.2,0.2,1.8c0.3,1,1.3,1.5,2.3,1.2c0.6-0.2,1-0.6,1.2-1.2c0.1-0.4,0.3-0.8,0.5-1.2
			l-3.3-0.4c0.1,0.8,0.3,1.6,0.6,2.3c0.3,1,1.3,1.5,2.3,1.2c0.7-0.2,1.2-0.9,1.2-1.6c0.1-0.8,0.3-1.5,0.6-2.3h-3.5
			c0.2,1.3,0.4,2.6,0.8,3.8c0.3,1,1.3,1.5,2.3,1.2c0.7-0.2,1.2-0.9,1.2-1.6l0.4-3.4l-3.5,0.5c0.4,1.7,0.1,3.6,0.7,5.3l1.7-2.3h0
			c-1.1-1.6-4.1-0.6-3.3,1.4c0.5,1.2,1.1,3,2.6,3.3c1.7,0.3,2.5-1.4,3.2-2.6c0.5-0.9,0.2-1.9-0.6-2.5l-0.5-0.4
			c-1.8-1.4-3.6,1.7-1.8,3.1l0.5,0.4l-0.6-2.5c-0.3,0.5-0.6,1-0.9,1.4l1.8-0.5c0.4,0.2,0.5,0.2,0.2-0.1c-0.1-0.2-0.2-0.4-0.3-0.7
			l-3.3,1.4c0.6,1.1,1.8,1.7,3,1.8c1,0,1.8-0.8,1.8-1.8c0-0.1,0-0.3-0.1-0.4c-0.6-1.7-0.3-3.5-0.7-5.3c-0.5-2.1-3.3-1.4-3.5,0.5
			l-0.4,3.4l3.5-0.5c-0.3-1.3-0.6-2.5-0.8-3.8c-0.3-1-1.3-1.5-2.3-1.2c-0.6,0.2-1,0.6-1.2,1.2c-0.3,1.1-0.6,2.1-0.7,3.2l3.5-0.5
			c-0.3-0.8-0.5-1.5-0.6-2.3c-0.2-1.5-2.6-1.7-3.3-0.4c-0.3,0.6-0.6,1.3-0.8,2h3.5c-0.2-0.3-0.2-0.6-0.1-0.9
			C107,97,103.4,97,103.2,99.3L103.2,99.3z"/>
		<path class="st2" d="M115.5,92.7c-2.8-0.8-5.8,0.8-6.7,3.6c-0.7,2.9,0.5,6,3.1,7.6c2.4,1.2,6.1-0.3,7.4-2.6
			c1.5-2.6-0.1-5.5-2.4-6.8c-0.8-0.4-1.8-0.1-2.2,0.7c-0.4,0.8-0.2,1.7,0.6,2.2c0.8,0.5,1.9,1.5,1.1,2.5c-0.6,0.8-2.4,1.5-3.2,0.9
			c-2-1.4-1.6-5.6,1.4-4.9C116.7,96.3,117.6,93.2,115.5,92.7L115.5,92.7z"/>
		<path class="st2" d="M56.8,86.2c-3-4.4-2.9-10.2,0.3-14.4c1.2-1.7-1.6-3.4-2.8-1.7c-3.8,5.3-3.9,12.3-0.3,17.7
			C55.2,89.7,58,88,56.8,86.2L56.8,86.2z"/>
		<path class="st0" d="M66.4,138.5c4.4-4.4,5.8-9.4,4-12c-1-1.4-3.2-2.6-5-2c-1.5,0.5-2,2.1-3,4c-1.2,2.5-4.6,9.4-9,10
			c-2.4,0.3-4.8-0.9-6-3c-1-1.8-0.3-3.8,0-5c0.5-1.8,1.5-2.7,4-6c1.9-2.5,2.9-3.7,4-5c6.1-7,8.7-6.5,11.3-11.4
			c1.4-2.3,2-4.9,1.9-7.5c-0.2-2-0.9-3.9-2-5.6c-2.7-4.2-5.3-7.5-5.7-12.7c-0.3-4.9,1-9.8,2.7-14.3c0.9-2.4,4.2-12.4,6.8-12.1
			c1.7,0.2,0.8,4.8,4.3,8c2.4,2.2,6.6,3.5,9.9,2.2c1.7-0.6,1.9-1.4,8.8-6.7c0.8-0.6,2-1.5,3-1.2s1.3,1.9,1.4,2.9
			c0.6,4.6,0.9,6.9-0.9,11.9c-2.7,7.3,9.6,31.6,11.2,34.7c4.1,8.3,8,21,6,40.1"/>
		<path d="M66.7,138.8c2.7-3,9.2-14.9-0.1-14.9c-3,0-3.8,2.7-4.9,5c-0.8,1.6-1.7,3.1-2.7,4.6c-0.8,1.3-1.9,2.4-3.1,3.3
			c-4.3,2.8-9.7-3.3-7.6-7.5c1.9-3.8,5.7-7.8,8.6-10.9c2.8-2.9,6.6-5,9-8.3c2.1-2.7,3.2-6.1,3.1-9.5c-0.4-5.3-4.8-9-6.6-13.8
			c-2.4-6.6-0.3-13.5,2-19.9c0.7-1.9,1.4-3.9,2.3-5.7c1-2.2,2.5-5.9,4.5-2.7c0.9,1.5,0.9,3.2,2,4.7c1.2,1.4,2.7,2.6,4.5,3.2
			c2.5,1.1,5.3,1,7.8-0.1c2.4-1.3,4.5-3.6,6.7-5.3c8.2-6.3,4.8,9.2,4.1,12.6c-1.3,6.2,2.1,13.6,4.4,19.2c2.5,6.1,5.6,11.9,8.3,18
			c5.1,11.7,5.9,24.7,4.7,37.3c-0.1,0.6,0.8,0.6,0.9,0c1.1-11,0.7-22.1-2.8-32.6c-1.9-5.8-5-11.2-7.5-16.8c-3.1-6.8-8.6-17-7-24.7
			c0.5-2.6,4.3-16.8-2-15.8c-3.5,0.5-6.4,5.2-9.4,7.1c-4.5,2.4-10.1,0.7-12.5-3.8c-0.1-0.3-0.3-0.5-0.4-0.8c-0.4-1-0.5-2.9-1.2-3.8
			c-3.2-3.8-6.1,5.2-7,7.4c-3.9,10-6.1,19.1-0.2,28.6c2.5,4,4.7,7.5,3.1,12.5c-0.7,2.2-1.9,4.2-3.5,5.9c-3.3,3.5-7.2,6-10.3,9.8
			c-2.5,3-6.2,6.6-7,10.6c-0.8,3.6,1.2,7.1,5.2,7.5c3.5,0.4,6.1-2.4,7.9-5c1.2-1.6,1.9-3.6,3-5.2c2.1-3.1,7.6-6,7.9,0.7
			c0.2,3.3-2.6,6.6-4.6,8.8C65.7,138.6,66.3,139.1,66.7,138.8L66.7,138.8z"/>
		<path d="M90.4,111.9c-1.9,5-5.7,9.1-5.9,14.7c-0.2,3.5,0.7,8.3,3.5,10.7c2,1.7,4.3,1.6,5.9-0.5c1-1.4,1.2-3.3,1.6-4.9
			c1-4,2.4-7.5,6-9.8c0.5-0.3,0-1.1-0.4-0.8c-2,1.2-3.5,2.9-4.6,5c-1.1,2.2-1.1,5.3-2.3,7.3c-0.4,2.7-2.9,3-7.3,0.9
			c-1-1.9-1.5-4-1.6-6.2c-0.1-2.7,0.5-5.3,1.6-7.7c1.3-2.9,3.2-5.4,4.3-8.4C91.5,111.6,90.6,111.4,90.4,111.9L90.4,111.9z"/>
		<path class="st2" d="M106.5,138.5c-0.1-6,7.2-11.3,11.4-14.8c3.8-3.2,5.6-6.7,7.2-11.3c0.7-2-2.5-2.9-3.2-0.9
			c-1.3,3.8-2.8,6.8-5.8,9.4c-2.3,1.9-4.5,3.8-6.6,5.9c-3.1,3.3-6.4,6.9-6.3,11.6C103.2,140.7,106.5,140.7,106.5,138.5L106.5,138.5z
			"/>
		<path class="st2" d="M45.6,117.6c3.7,4.1,8.8,6.7,14.3,7.2c2.1,0.2,2.1-3.1,0-3.3c-4.6-0.5-8.9-2.7-12-6.2
			C46.5,113.7,44.2,116,45.6,117.6L45.6,117.6z"/>
		<path d="M111.9,102.6c-0.9,1-1.9,2-2.8,3c-0.2,0.2-0.1,0.5,0.1,0.6c0.2,0.1,0.4,0.1,0.6,0c1-1,1.9-2,2.8-3
			C112.9,102.8,112.2,102.2,111.9,102.6z"/>
		<path class="st0" d="M60.8,35.3c-2.9,0.3-5.1,2.7-6.9,5c-3.3,4.4-5.9,9.2-8,14.2c-0.2,0.3-0.2,0.7-0.1,1c0.4,0.6,1.3,0,1.7-0.5
			l13-16.8c0.8-1,1.6-2.6,0.6-3.5"/>
		<path d="M60.7,34.9c-5.5,1.1-8.7,7-11.2,11.5c-0.7,1.2-5.5,8.4-3.5,9.8s8.1-8.6,9-9.8c2-2.6,4.3-5.1,6.1-7.8
			c0.9-1.4,1.4-2.4,0.6-3.9c-0.1-0.2-0.4-0.3-0.6-0.2s-0.3,0.4-0.2,0.6c1.4,2.4-5.9,9.9-7.5,12c-0.6,0.8-6,8.5-6.9,7.7
			c-0.7-0.6,4.9-9.7,5.4-10.5c2.2-3.5,4.7-7.7,9.1-8.5C61.6,35.6,61.3,34.7,60.7,34.9L60.7,34.9z"/>
		<path d="M69.3,62.5c-0.9,1.2-1.4,2.7-1.5,4.2c0,0.6,0.8,0.6,0.9,0c0.1-1.3,0.6-2.6,1.4-3.7C70.4,62.4,69.7,62,69.3,62.5L69.3,62.5
			z"/>
		<path d="M91.4,64.6c0.8-0.8,1.9-1.4,3-1.7c0.2-0.1,0.4-0.3,0.3-0.5s-0.3-0.4-0.5-0.3l0,0c-1.3,0.4-2.4,1-3.4,1.9
			C90.3,64.4,91,65,91.4,64.6L91.4,64.6z"/>
		<path d="M71.5,76c-1.3,0.3-2.1,1.6-1.7,2.9c0.1,0.4,0.3,0.7,0.5,1c1,1,2.7,1,3.6-0.1c1-1,1-2.7-0.1-3.6c-0.5-0.5-1.1-0.7-1.7-0.7
			c-1.1,0.1-2,1.1-1.9,2.2c0,0.4,0.2,0.8,0.4,1.1c1.3,1.4,3.6-0.3,2.8-2c-0.4-0.7-1.4-0.1-1.1,0.6c0.2,0.5-1.3,0.9-0.8-0.2
			s1.8-0.2,1.9,0.7c0.1,0.7-0.4,1.4-1.2,1.5c-0.3,0-0.5,0-0.8-0.1c-0.5-0.3-0.7-1-0.4-1.5c0.2-0.3,0.4-0.5,0.7-0.6
			C72.6,77,72.2,75.8,71.5,76L71.5,76z"/>
		<path d="M75.9,83.7l1.5,1.1c0.1,0.1,0.3,0.1,0.4,0c0.5-0.3,1.3-0.9,0.9-1.6c-0.4-0.5-1.1-0.8-1.8-0.6c-0.2,0.1-0.4,0.3-0.3,0.5
			s0.3,0.4,0.5,0.3l0,0c0.4-0.1,0.7,0,0.9,0.3v-0.4c-0.1,0.3-0.4,0.5-0.7,0.7h0.4l-1.5-1.1C75.9,82.5,75.4,83.3,75.9,83.7L75.9,83.7
			z"/>
		<path d="M68.3,83.4l3.9,0.3c0.6,0.1,0.6-0.8,0-0.9l-3.9-0.3C67.8,82.5,67.8,83.4,68.3,83.4z"/>
		<path d="M68,87.2c1-0.8,2.3-1.2,3.6-1.1c0.6,0,0.6-0.8,0-0.9c-1.5-0.1-3,0.3-4.2,1.3C66.9,86.9,67.6,87.6,68,87.2L68,87.2z"/>
		<path d="M82.5,83.7l2.4,0.4c0.6,0.1,0.8-0.8,0.2-0.8l-2.4-0.4C82.2,82.8,82,83.6,82.5,83.7z"/>
		<path d="M82.8,86c0.9,0.5,1.8,1.1,2.5,1.9c0.4,0.4,1-0.2,0.6-0.6c-0.8-0.8-1.7-1.5-2.7-2C82.7,85,82.2,85.8,82.8,86L82.8,86z"/>
		<path d="M76.7,89.1c0.2,0,0.4-0.2,0.4-0.4c0-0.2-0.2-0.4-0.4-0.4c-0.2,0-0.4,0.2-0.4,0.4C76.2,88.9,76.4,89.1,76.7,89.1z"/>
		<path class="st1" d="M42.4,59.5c-0.6,0.8-0.6,1.8-0.1,2.6c0.5-0.2,1-0.7,1.2-1.2c0.2-0.6,0-1.2-0.6-1.4"/>
		<path d="M42,59.2c-0.6,0.9-0.6,2.1,0,3.1c0.1,0.2,0.4,0.3,0.6,0.2c0.8-0.3,1.3-1,1.5-1.8c0.1-0.7-0.3-1.4-1-1.6
			c-0.5-0.2-0.8,0.7-0.2,0.8c0.4,0.1,0.4,0.6,0.3,1c-0.2,0.4-0.6,0.7-1,0.9l0.6,0.2c-0.4-0.7-0.4-1.5,0.1-2.2
			C43.2,59.3,42.4,58.8,42,59.2L42,59.2z"/>
		<path class="st0" d="M45.3,62.1c-0.6,0.7-0.1,1.8,0.3,2.6c0.1,0.2,0.2,0.3,0.4,0.4c0.3,0.1,0.6-0.2,0.7-0.5c0.4-0.9,0.2-2-0.4-2.8
			"/>
		<path d="M45,61.9c-0.4,0.7-0.4,1.5-0.1,2.2c0.2,0.6,0.6,1.6,1.4,1.4s1-1,1.1-1.6c0.1-0.8-0.1-1.7-0.6-2.3c-0.3-0.5-1.1,0-0.8,0.5
			c0.3,0.3,0.4,0.7,0.5,1.1c0.1,0.4,0,0.9-0.1,1.2c-0.2,0.2-0.2,0.1-0.4-0.1c-0.1-0.2-0.2-0.4-0.3-0.7c-0.2-0.4-0.2-0.9,0.1-1.3
			C46.1,61.9,45.3,61.5,45,61.9z"/>
		<path d="M113.5,102.6c-5.4-0.8-4.4-9.2,1.2-8.2c2.3,0.4,4.8,2.8,4.2,5.2s-3.4,3.2-5.5,3c-0.6-0.1-0.6,0.8,0,0.9
			c2.7,0.3,6-1.1,6.4-4.1s-2.4-5.4-5.1-5.9c-2.6-0.6-5.1,1.1-5.7,3.7c0,0.1,0,0.2-0.1,0.3c-0.4,2.8,1.5,5.5,4.3,5.9
			C113.8,103.6,114.1,102.7,113.5,102.6z"/>
		<path class="st0" d="M114.9,95.1c-1.4-0.1-2.8,0.6-3.5,1.9c-0.6,1.3-0.3,2.8,0.8,3.8c1.2,0.8,2.8,0.6,3.7-0.6
			c0.6-1.1,0.6-2.5-0.1-3.6c-0.2-0.4-0.4-0.7-0.7-0.9c-0.5-0.4-1.2-0.4-1.7-0.2"/>
		<path d="M114.9,94.6c-2-0.2-3.8,1.2-4.2,3.2c-0.3,1.8,0.9,3.5,2.6,3.8c0.1,0,0.1,0,0.2,0c5,0.4,3.6-8-0.2-6.5
			c-0.5,0.2-0.3,1.1,0.2,0.8c2.8-1.1,3.5,6-0.4,4.7c-1.2-0.5-1.8-1.8-1.4-3c0.5-1.4,1.8-2.2,3.2-2.1
			C115.4,95.6,115.4,94.7,114.9,94.6L114.9,94.6z"/>
		<path class="st3" d="M76.5,111.1c-2,0.6-3.2,2.6-2.9,4.7c0.4,2,2.1,3.5,4.1,3.9c2,0.2,4.1-0.5,5.4-2.1c0.4-0.5,0.8-1.1,1-1.7
			c0.5-2.2-0.6-4.5-2.7-5.4c-2.1-0.8-4.4-0.5-6.2,0.7"/>
		<path d="M76.4,110.7c-2.5,0.8-3.8,3.4-3,5.9c0.1,0.2,0.1,0.4,0.2,0.6c1.5,2.8,5.1,3.8,7.9,2.3c0.1,0,0.2-0.1,0.3-0.2
			c2.8-1.6,4-4.8,2.1-7.5c-2.1-2.9-6-2.6-8.7-1c-0.2,0.1-0.3,0.4-0.2,0.6c0.1,0.2,0.4,0.3,0.6,0.2c2.2-1.3,5.1-1.8,7.1,0.1
			s1.6,4.7-0.6,6.3c-1.9,1.6-4.7,1.6-6.6,0c-1.6-1.4-1.8-3.8-0.4-5.4c0.4-0.5,1-0.9,1.6-1.1C77.2,111.3,77,110.5,76.4,110.7
			L76.4,110.7z"/>
		<path d="M75.6,113.2l0.5,4.6c0.1,0.6,0.9,0.6,0.9,0l-0.5-4.6C76.4,112.7,75.6,112.7,75.6,113.2z"/>
		<path d="M76.4,115.3l1.8-1.3c0.5-0.3,0-1.1-0.4-0.8l-1.8,1.3C75.5,114.8,75.9,115.6,76.4,115.3L76.4,115.3z"/>
		<path d="M77.3,111.7c0.6,2.3,1.1,4.6,1.5,6.8c0.1,0.6,1,0.3,0.8-0.2c-0.5-2.3-1-4.6-1.5-6.8C78,110.9,77.2,111.1,77.3,111.7z"/>
		<path d="M79,112.1l0.7,4.8c0.1,0.6,0.9,0.3,0.8-0.2l-0.7-4.8C79.8,111.3,78.9,111.5,79,112.1z"/>
		<path d="M79.4,112.5c1-0.1,2.9,0.4,2.1,1.8c-0.4,0.8-1.3,1.4-1.8,2.2c-0.1,0.2-0.1,0.5,0.2,0.6c0.2,0.1,0.5,0.1,0.6-0.2
			c0.7-1.2,2.4-2,2.1-3.6c-0.3-1.4-1.9-1.9-3.2-1.8C78.9,111.7,78.9,112.6,79.4,112.5L79.4,112.5z"/>
		<path d="M84.1,76.8c-1.3,0.3-2.1,1.6-1.7,2.9c0.1,0.4,0.3,0.7,0.5,1c1,1,2.7,1,3.6-0.1c1-1,1-2.7-0.1-3.6
			c-0.5-0.5-1.1-0.7-1.7-0.7c-1.1,0.1-2,1.1-1.9,2.2c0,0.4,0.2,0.8,0.4,1.1c1.3,1.4,3.6-0.3,2.8-2c-0.4-0.7-1.4-0.1-1.1,0.6
			c0.2,0.5-1.3,0.9-0.8-0.2s1.8-0.2,1.9,0.7c0.1,0.7-0.4,1.4-1.2,1.5c-0.3,0-0.5,0-0.8-0.1c-0.5-0.3-0.7-1-0.4-1.5
			c0.2-0.3,0.4-0.5,0.7-0.6C85.2,77.8,84.8,76.6,84.1,76.8L84.1,76.8z"/>
		<path d="M45.8,113.7c2.3,3.1,6.8,5.4,10.3,6.8c1,0.4,2.4,0.5,3.3,1l1.3,0.2c0.8,2.1,0.1,2.7-2.1,1.7c-3.1-0.6-6-1.7-8.7-3.3
			c-0.2-0.1-0.5-0.1-0.6,0.2c-0.1,0.2-0.1,0.5,0.2,0.6c1.7,1,13.8,6.7,14.2,2c0.2-2.1-2.8-2-4.1-2.2c-4.2-0.8-10.5-3.8-13.1-7.3
			C46.2,112.7,45.4,113.2,45.8,113.7L45.8,113.7z"/>
		<path d="M104.6,137.6c-0.6-2.7,2.5-7.2,3.9-9.3c1.8-2.6,3.9-5.1,6.2-7.3c2.9-2.9,4.5-5.5,4.8-9.6c0-0.6-0.8-0.6-0.9,0
			c-0.5,6.8-6.8,10.6-10.4,15.8c-1.9,2.8-5.3,7.1-4.4,10.6C103.9,138.4,104.8,138.1,104.6,137.6z"/>
		<path d="M58.5,69.5c-3.2,5.1-4.3,11.3-3,17.2c0.1,0.6,1,0.3,0.8-0.2c-1.2-5.7-0.2-11.6,2.9-16.5C59.6,69.4,58.8,69,58.5,69.5
			L58.5,69.5z"/>
	</g>
</g>
</svg>
