<svg xmlns="http://www.w3.org/2000/svg" viewBox="0 0 157.79 169.17"><defs><style>.cls-1{fill:#482cf6;}.cls-2,.cls-3,.cls-4,.cls-5,.cls-6,.cls-7,.cls-8{fill:none;}.cls-2{stroke:#482cf6;}.cls-2,.cls-3,.cls-4,.cls-5,.cls-6,.cls-8{stroke-miterlimit:10;}.cls-3,.cls-4{stroke:#2c2c2c;}.cls-3{stroke-width:1.17px;}.cls-4{stroke-width:1.44px;}.cls-5,.cls-6,.cls-8{stroke:#000;}.cls-6{stroke-width:0.99px;}.cls-8{stroke-width:0.9px;}</style></defs><title>gsk_5</title><g id="Layer_2" data-name="Layer 2"><g id="Layer_8" data-name="Layer 8"><path class="cls-1" d="M118.59,95.72A15.2,15.2,0,0,0,114.83,99c-.76.82-1.53,1.68-3.11,3.71-2.07,2.66-4.1,5.35-6,8.13-.49.71-1,1.42-1.41,2.14a18.45,18.45,0,0,0-2,4.42,6.47,6.47,0,0,0-.26,3.15,6.74,6.74,0,0,0,1.29,2.72,11.2,11.2,0,0,0,2.09,2.1,9,9,0,0,0,1.32.91,10.49,10.49,0,0,0,2.1.79c4.6,1.28,9.48-1.24,12.28-4.85a20.18,20.18,0,0,0,1.93-2.91,23.21,23.21,0,0,0,1.34-3.17c.29-.82.54-1.66.79-2.49a35.36,35.36,0,0,0,1.12-5.3,37.23,37.23,0,0,0,.33-4.54c0-.67,0-1.34,0-2,0-.4,0-.77-.06-.93a8.76,8.76,0,0,0-1.73-4.29,4.62,4.62,0,0,0-2.39-1.86C121.06,94.33,119.82,95,118.59,95.72Z"/><path class="cls-2" d="M96.28,44.21c.83-.72,1.67-1.42,2.5-2.14l.11-.11c1,.36,2.08.72,3.09,1.13a7.51,7.51,0,0,1,1.12.57l.11.1a22.16,22.16,0,0,1-2.62,4.08,19.09,19.09,0,0,1-2.15,2.33l-.33.21A5.1,5.1,0,0,1,97.5,50,12.9,12.9,0,0,1,96,48.59c-.56-.61-1.13-1.23-1.65-1.88a2.82,2.82,0,0,1-.16-.26v0s0,0,0,0v0a3.27,3.27,0,0,1,.18-.3,17.65,17.65,0,0,1,1.94-1.86Zm5.79-1.08.16.07-.16-.07Zm-7.92,3.37,0,.16a1.18,1.18,0,0,1,0-.16ZM98,50.35l0,0,0,0Zm.28,0-.12,0,.12,0Zm-.32,0h0Z"/><path class="cls-1" d="M105.51,52.42a.77.77,0,0,0-.23.56c0,.37.08.73.15,1.1a2.31,2.31,0,0,0,.33.9,1.82,1.82,0,0,0,1.12.8,3.79,3.79,0,0,0,.64.1,2.53,2.53,0,0,0,.51,0,3.28,3.28,0,0,0,1.11-.33,2.56,2.56,0,0,0,.83-.65,3.1,3.1,0,0,0,.6-1.16.87.87,0,1,0-1.68-.46l0,.1a3.26,3.26,0,0,1-.21.34l-.22.22a2.73,2.73,0,0,1-.34.2l-.3.08a3.21,3.21,0,0,1-.45,0l-.2,0-.08-.08,0-.06a4.29,4.29,0,0,1-.13-.6c0-.15,0-.3-.05-.45a.84.84,0,0,0-.23-.56.79.79,0,0,0-1.11,0Z"/><path class="cls-1" d="M58.41,33.81a18.7,18.7,0,0,0-4.32,1.63,30.31,30.31,0,0,0-3.22,1.9c-.92.6-1.81,1.24-2.68,1.91-.37.29-.76.56-1.11.87s-.82.67-1.19,1l-1.16,1.18c-.38.39-.73.82-1.09,1.23-.75.86-1.43,1.79-2.12,2.7a30.74,30.74,0,0,0-1.94,2.89,20.36,20.36,0,0,0-2.52,9.18c-.1,1.61-.14,3.2-.15,4.81a26.51,26.51,0,0,0,.57,5.2,9,9,0,0,0,1.33,3.55,6.13,6.13,0,0,0,1.86,1.78,6.75,6.75,0,0,0,2.13.77,3.24,3.24,0,0,0,1.15,0,2.5,2.5,0,0,0,1.3-.35c.34-.25.48-.62.76-1.34.19-.49.15-.54.31-.92a5.41,5.41,0,0,1,.76-1.19,12.86,12.86,0,0,1,1.38-1.5c.47-.44,1-.85,1.49-1.25a27,27,0,0,1,3.7-2.19c.83-.34,1.67-.66,2.52-1s1.88-.59,2.83-.85c1.81-.51,3.65-.9,5.5-1.25,2.06-.4,4.13-.78,6.18-1.21.87-.19,1.75-.35,2.62-.55a10.38,10.38,0,0,0,4.45-2.38,20.12,20.12,0,0,0,2.07-2.11,18.92,18.92,0,0,0,1.89-2.52c.24-.39.47-.79.68-1.2.11-.21.19-.42.28-.63s.24-.58.34-.88a5.3,5.3,0,0,0,.2-1.28,12.3,12.3,0,0,0-.11-2,15,15,0,0,0-.3-2.22,13.11,13.11,0,0,0-.75-1.92,12.87,12.87,0,0,0-.74-1.42c-.35-.59-.7-1.18-1.09-1.74A14.56,14.56,0,0,0,77.93,38a11.64,11.64,0,0,0-2.41-1.72,18.85,18.85,0,0,0-3.05-1.2,38,38,0,0,0-6.17-1.39,33.76,33.76,0,0,0-3.76-.31h-.33A18.54,18.54,0,0,0,58.41,33.81Zm8.47,3.57c.68.1,1.43.22,2.9.57,5.31,1.25,6.61,2.15,4.41,1.28a10.13,10.13,0,0,1,1.55.9,16.26,16.26,0,0,1,2.2,2.18A11.16,11.16,0,0,1,80.09,46a8.58,8.58,0,0,1,.46,2.1,9.83,9.83,0,0,1-2,6.19,12,12,0,0,1-2.87,3.07,10.8,10.8,0,0,1-1.65,1,22.8,22.8,0,0,1-2.6.81c-1,.26-1.93.52-2.9.73q-3.35.73-6.71,1.42A54.62,54.62,0,0,0,56,62.89c-1,.33-2,.67-3,1.08a21.49,21.49,0,0,0-2.94,1.44c-.75.47-1.48,1-2.19,1.48a26.12,26.12,0,0,0-2.22,1.89A14,14,0,0,0,44,70.83c-.28.37-.54.75-.78,1.15a5,5,0,0,0-.35.67,3,3,0,0,1-1.79-1.11l-.34-.61A17.18,17.18,0,0,1,40,67.59l-.13-1.32c0-.43,0-.86,0-1.28,0-.83,0-1.67,0-2.49s.08-1.89.15-2.83c.05-.76.14-1.52.23-2.28a21,21,0,0,1,1.1-4.1A24,24,0,0,1,43.9,49c.87-1.11,1.75-2.21,2.7-3.25.53-.59,1.09-1.14,1.64-1.69s.9-.8,1.36-1.19a26.66,26.66,0,0,1,7.6-4.74,16.84,16.84,0,0,1,4.38-1.05A20.88,20.88,0,0,1,66.88,37.38ZM79,47.19l0,.16,0-.16Zm.17,1.31,0,.29,0-.29Z"/><path class="cls-3" d="M48.68,114.07"/><path class="cls-4" d="M44.39,106.07"/><path class="cls-5" d="M54.17,113.22a31,31,0,0,1-3.82-.52,28.71,28.71,0,0,1-2.83-.74,16.7,16.7,0,0,0,1.16,2.11s.33.5.7,1c10,13.24,22.51,13.67,22.51,13.67,7.71.07,13.6-4.1,19.79-8.49,3.27-2.31,6.35-5.52,12.53-11.94,0,0,9.65-10,14.55-19.6a16.6,16.6,0,0,0,.82-1.83,17.53,17.53,0,0,0,.57-11.79,17.08,17.08,0,0,0-7-8.77c-3.85-2.58-7.84-3.15-14.52-3.31-8.65-.2-15.37-.36-25.7,1.74C59.82,67.42,52.73,68.86,47.6,75.19a25.09,25.09,0,0,0-5.18,12.88c-.7,8.14.7,14.79,3.38,17.69A12,12,0,0,0,48.64,108c3,1.7,5.89,1.52,8.83,1.34s4.61-.3,5.5-1.65a3.07,3.07,0,0,0,.31-3c-.93-1.68-3.67-.81-9.21-2.46-2.43-.72-3.34-1.32-3.79-2.25a4,4,0,0,1,.31-3.58c1-1.66,2.84-1.79,2.76-2.46s-2.1-.38-3.7-1.79A5.16,5.16,0,0,1,48,87.63a6,6,0,0,1,2.87-3.79,10,10,0,0,1,5.8-1.66c2.84,0,3.46.88,5.77.94a11,11,0,0,0,6.86-2.46c.76,1.23,1.48,2.75.92,3.48-.79,1-3.56-.28-4.2.72-.46.72.83,1.62,1,3.68,0,.29.25,2.6-1.09,3.94-1,1-2.75,1.23-6,1.58a4.91,4.91,0,0,0-2.76,1.13c-.16.15-1.37,1.29-1.13,2.46.33,1.54,3,2.09,3.61,2.22,2,.42,2.91-.22,5.4.44a6.25,6.25,0,0,1,1.58.6,5.1,5.1,0,0,1,2.42,2.88,5,5,0,0,1-.52,3.48c-1.49,3.22-4.78,4.58-5.83,5C59.65,113.59,56.79,113.39,54.17,113.22Z"/><path class="cls-5" d="M99.64,113.74a15.49,15.49,0,0,0,4,4c1.62,1.11,4.75,3.25,8,2.39,3-.8,4.53-3.8,5.47-5.7,1.58-3.19,1.63-6,1.71-11.75a34.36,34.36,0,0,0-.46-6.61,32.17,32.17,0,0,0-1.14-4.56"/><path class="cls-5" d="M34.92,74.54c4.4,4.25,10.32,4.41,15.14,4.53,4.28.11,9.2.24,14.63-2.72A24.34,24.34,0,0,0,75,65.09c1.37-3,3.19-6.91,1.94-11.65a13.3,13.3,0,0,0-6-8c-2.6-1.46-5.06-1.36-10-1.16a36,36,0,0,0-10.74,1.81,37.59,37.59,0,0,0-10.61,5.82c-4,2.86-5.95,4.29-7.38,7.12a12.69,12.69,0,0,0,2.59,15.53Z"/><path class="cls-4" d="M44.85,106.4"/><path class="cls-4" d="M46,109.48"/><path class="cls-4" d="M47.51,112"/><path class="cls-5" d="M58.37,84.77a4.07,4.07,0,0,0-2.87.91,3.2,3.2,0,0,0,.31,4.83A4.28,4.28,0,0,0,61,90.15a3,3,0,0,0,.92-3.28C61.36,85.37,59.58,84.81,58.37,84.77Z"/><path class="cls-6" d="M84.87,82.52a2.9,2.9,0,0,1,.18,2.14c-.53-.16-1.29-.36-2.21-.57a10.42,10.42,0,0,0-3.74-.48c-.24,0-2.55.49-3,2.1a2.79,2.79,0,0,0,.37,2.12c.78,1.26,2.06,1.24,5.49,2.58,2.67,1,3.19,1.56,3.46,1.85a6.06,6.06,0,0,1,1.36,3.51,7.38,7.38,0,0,1-1.05,5.14c-1.41,2-3.67,2.6-5.32,3a14.9,14.9,0,0,1-8.6-.6c-1.39-2.11-1.4-2.89-1.13-3.2.45-.51,1.63.3,4,.5a8.37,8.37,0,0,0,5.33-1,3.16,3.16,0,0,0,.47-5.69,7.83,7.83,0,0,0-2.3-1.13C76,92,75.7,92.15,74.71,91.64a5.38,5.38,0,0,1-2.84-2.92A5.15,5.15,0,0,1,73,84.27l0-.06a8.44,8.44,0,0,1,4.26-2.61C79.26,81,83.67,80.45,84.87,82.52Z"/><path d="M98.33,41.11c-.45.73-.88,1.47-1.32,2.21s-.78,1.25-1.12,1.9a4.71,4.71,0,0,0-.33.81,1.85,1.85,0,0,0-.06.6,1.8,1.8,0,0,0,.19.68,2.78,2.78,0,0,0,.38.55,3.38,3.38,0,0,0,.37.39,11.42,11.42,0,0,0,1.84,1.33c.17.11.34.2.52.29a3,3,0,0,0,1,.36,2.66,2.66,0,0,0,1.53-.4,4.23,4.23,0,0,0,1-.87,15.87,15.87,0,0,0,1.46-1.84c.22-.31.4-.64.6-1s.35-.58.49-.88.17-.4.24-.6l.08-.24a2.35,2.35,0,0,0,.08-.34,1.37,1.37,0,0,0,0-.58,1.19,1.19,0,0,0-.16-.35,1.13,1.13,0,0,0-.28-.29,2.88,2.88,0,0,0-.73-.41,11.27,11.27,0,0,0-1.61-.46l-1.38-.29c-.49-.1-1-.17-1.48-.25a.71.71,0,0,0-.34-.59.68.68,0,0,0-.34-.09.72.72,0,0,0-.61.34Zm-.18,3L99,42.72l.16.07c.6.16,1.21.27,1.81.38l.93.17a11.61,11.61,0,0,1,1.8.44l.26.14a4,4,0,0,1-.16.54,8.87,8.87,0,0,1-.65,1.09c-.25.38-.5.75-.77,1.11s-.43.53-.66.78l-.36.4c-.22.22-.43.46-.67.66l-.29.17-.36.11h-.07a3.5,3.5,0,0,1-.46-.15,11.13,11.13,0,0,1-1.75-1.06,5.22,5.22,0,0,1-.69-.65,2.25,2.25,0,0,1-.18-.28l0-.06s0-.07,0-.1a2.35,2.35,0,0,1,.1-.31,23.15,23.15,0,0,1,1.22-2.08Zm5.39-.37.07,0-.07,0Zm.36.12,0,.05,0-.05Zm0,.08h0a.81.81,0,0,1,0,.1v-.1Zm0,0h0l0,.08,0-.08Z"/><path d="M106.58,51.84a.47.47,0,0,0-.41.34c-.06.21-.12.42-.17.64s-.07.31-.09.46a1.69,1.69,0,0,0,0,.77,1.3,1.3,0,0,0,.77.83,1.18,1.18,0,0,0,.38.08,1.87,1.87,0,0,0,.51-.07,1.33,1.33,0,0,0,.3-.13,1.48,1.48,0,0,0,.28-.21,2.5,2.5,0,0,0,.57-.75,3,3,0,0,0,.22-.5A1.69,1.69,0,0,0,109,53a.76.76,0,0,0-.06-.48,1.34,1.34,0,0,0-.2-.25,1.59,1.59,0,0,0-.25-.18,3.61,3.61,0,0,0-.74-.35,3.06,3.06,0,0,0-.83-.13h0a.43.43,0,0,0-.35.21Zm.45.72a7.57,7.57,0,0,1,.76.23,2.84,2.84,0,0,1,.33.17l-.05.17a3.19,3.19,0,0,1-.3.51,3,3,0,0,1-.25.25l-.1.06-.21.06h-.09l-.06,0-.09-.05,0,0-.06-.11,0-.14a1.89,1.89,0,0,1,0-.23,8.77,8.77,0,0,1,.21-.87Zm1.09.4h0v0Zm-.37.71,0,.06,0-.06Zm-.84.24,0,0,0,0ZM107,54l0,0,0,0Zm.15,0h0Zm.06,0h0Z"/><path d="M109.45,42.6c0,.82,0,1.65,0,2.48,0,.38,0,.75-.06,1.13s-.07.73-.07,1.09a1.73,1.73,0,0,0,0,.37,2.38,2.38,0,0,0,.15.43l.06.08a.62.62,0,0,0,.19.22,1.07,1.07,0,0,0,.43.24,2.38,2.38,0,0,0,.4,0,2.24,2.24,0,0,0,.71-.14,7.72,7.72,0,0,0,1.09-.49c.66-.34,1.28-.73,1.91-1.12l.62-.39a1.94,1.94,0,0,0,.31-.21.86.86,0,0,0,.32-.61,1.13,1.13,0,0,0-.5-.94,8.19,8.19,0,0,0-.7-.49l-.66-.45-1.33-1a6.24,6.24,0,0,0-.65-.42,3.31,3.31,0,0,0-.87-.3.78.78,0,0,0-.63-.33.79.79,0,0,0-.79.79ZM111,46.27c0-.37.06-.75.06-1.12,0-.53,0-1.06,0-1.59l.46.34h0l.82.64-.14-.11c.38.29.76.57,1.15.85.2.14.41.27.62.4-.33.2-.67.37-1,.54s-.93.47-1.41.68c-.2.08-.4.16-.61.23,0-.28,0-.57.06-.85Z"/><path class="cls-1" d="M42.08,126.63a1.54,1.54,0,0,0-1.76,1.28,1.65,1.65,0,0,0,.26,1.13c.49.86,1,1.72,1.48,2.59a6.37,6.37,0,0,1,.26.63,7.74,7.74,0,0,1-1,.31l-1.24.24a7.21,7.21,0,0,0-1.84.48,1.32,1.32,0,0,0-.84,1.33,1.3,1.3,0,0,0,1.41,1.16c.84-.11,1.67-.23,2.5-.4a12.83,12.83,0,0,0,1.66-.43,5.36,5.36,0,0,0,1.26-.64,2.46,2.46,0,0,0,.87-1.49,4.48,4.48,0,0,0-.56-2.86c-.45-.91-1-1.79-1.47-2.68a1.05,1.05,0,0,0-.25-.29,1.68,1.68,0,0,0-.76-.34Zm.39,5.58h0Zm-.05,0h0Zm0,0h0Z"/><path d="M35.88,113.12l-.48.62a.66.66,0,0,0-1.22.42,3.84,3.84,0,0,0,.19.89l-.29.36q-.84,1-1.71,2.07c-.5.59-1,1.17-1.53,1.75l-.8.92a5.3,5.3,0,0,0-.55.8,1.46,1.46,0,0,0-.17.74,1.13,1.13,0,0,0,.48.9,3.56,3.56,0,0,0,.93.4c.21.07.43.13.65.19l1.2.28,2.32.52a20.81,20.81,0,0,0,2.27.36l1.13.12.53.06a3,3,0,0,0,.63,0,.92.92,0,0,0,.8-.73,1.33,1.33,0,0,0,0-.67c-.07-.25-.15-.49-.24-.72s-.19-.44-.29-.66-.32-.7-.49-1c-.38-.76-.75-1.53-1.15-2.28s-.76-1.4-1.18-2.08c-.2-.33-.42-.65-.63-1l.92-1.18a.82.82,0,0,0-1.27-1Zm-4.19,7.64.71-.81c.51-.59,1-1.17,1.52-1.76s.88-1.05,1.31-1.59l.07.11c.37.6.72,1.21,1.05,1.83s.75,1.46,1.12,2.2c.19.36.36.73.54,1.1s.41.82.57,1.25c-.45,0-.9-.11-1.35-.17-.64-.09-1.27-.21-1.9-.36-1.25-.3-2.5-.61-3.74-.94l-.49-.17c.18-.24.38-.46.58-.69Zm-.77,1v.06a.42.42,0,0,1,0-.06Z"/><path d="M41.11,127.49a.82.82,0,0,0-.61,0l0,0a.71.71,0,0,0-.67-.28c-1.17.22-2.34.41-3.49.73A1.66,1.66,0,0,0,35,129a2.19,2.19,0,0,0,.2,1.33,11.64,11.64,0,0,0,.66,1.31c.17.34.33.68.48,1s.17.45.27.67a1.69,1.69,0,0,0,.69.78,1.84,1.84,0,0,0,1,.21,3.43,3.43,0,0,0,.63-.09c.27-.06.54-.13.81-.21l1.27-.4,1.14-.36.16-.05a1.61,1.61,0,0,0,.4-.2,1.17,1.17,0,0,0,.39-.43,1.49,1.49,0,0,0,.14-.44,2.84,2.84,0,0,0-.17-1.21,12,12,0,0,0-.46-1.13,12.73,12.73,0,0,0-.66-1.3,5.11,5.11,0,0,0-.54-.75.82.82,0,0,0-.34-.28Zm-1.17,1.25.17,0c.25.55.46,1.12.71,1.66s.45.91.62,1.38l-.4.11-.78.22c-.5.13-1,.3-1.49.42a4.25,4.25,0,0,1-.64.09l-.1-.16c-.21-.41-.41-.82-.63-1.22s-.43-.72-.63-1.08a5.29,5.29,0,0,1-.29-.67,5.31,5.31,0,0,1,.59-.16c1-.21,1.92-.39,2.89-.57Zm-3.47.7h0Zm0,0h0Zm0,0s0,0,0,0v0Zm-.11.06-.08.07.08-.07Zm1.68,3-.07,0,.07,0Z"/><path d="M48,120.78a4.92,4.92,0,0,0-2.09.73,1.94,1.94,0,0,0-.45.47,1.28,1.28,0,0,0-.22.72,1.91,1.91,0,0,0,.16.82,1.68,1.68,0,0,0,.46.59,1.72,1.72,0,0,0,.27.18,1.33,1.33,0,0,0,.31.11,1.84,1.84,0,0,0,.84,0l.35-.11a2.78,2.78,0,0,0,.32-.16,1.93,1.93,0,0,0,.57-.54,1.7,1.7,0,0,0,.3-1.31,1.89,1.89,0,0,0-.42-.86.4.4,0,0,0,.06-.25.42.42,0,0,0-.15-.27.36.36,0,0,0-.28-.08Zm-.37.88a2.68,2.68,0,0,1,.25.37,2.19,2.19,0,0,1,.12.33,1.16,1.16,0,0,1,0,.15,1.51,1.51,0,0,1,0,.28l-.08.18a2,2,0,0,1-.21.24l-.23.16a2.35,2.35,0,0,1-.35.13,2.27,2.27,0,0,1-.37,0l-.12,0-.13-.06-.17-.14-.11-.16a1.89,1.89,0,0,1-.08-.22,2.44,2.44,0,0,1,0-.28.82.82,0,0,1,0-.11l0-.08a2,2,0,0,1,.21-.25,2.56,2.56,0,0,1,.39-.26,4.67,4.67,0,0,1,.77-.27l.12,0Zm-.05,0h0Zm.32.39v0Zm.11.33v0Zm-1.92.28v.06s0,0,0-.06Z"/><rect class="cls-7" width="157.79" height="169.17" rx="7.64" ry="7.64"/><path d="M68.82,84.66c-.25-.16,1.32-2.59,1.61-2.5s0,.83-.39,1.44S68.95,84.74,68.82,84.66Z"/><path d="M71.83,102.68c-.28.08-1-2.72-.78-2.87s.62.56.81,1.25S72,102.64,71.83,102.68Z"/><path d="M84.41,84.86c-.32,0-.3-3.17,0-3.26.17,0,.49.76.48,1.55S84.58,84.86,84.41,84.86Z"/><path class="cls-8" d="M87.66,71.36c3.65-2.23,4.62-1.75,4.92-1.48s.16.51.27,3c.07,1.63.14,1.87.2,3.71.1,2.88,0,3.62,0,7,0,4.9.31,5.37.62,5.46s1.36-1,3.24-3.18c1.26-1.48,1.7-2.09,2.68-3.12a30.22,30.22,0,0,1,2.31-2.18c4.9-.49,6-.22,6,.12s-.52.59-1.41,1.21c-1.42,1-2.65,2.25-4,3.37-4.67,4-5.32,4.85-5.39,5.35a1.32,1.32,0,0,0,0,.18c0,1.77,1.71,2.73,3.58,4.4,2.16,1.93,2.73,3.14,5,5.1a8.23,8.23,0,0,0,2,1.41c1,.48,1.52.41,1.57.68.1.53-1.67,1.72-3.52,1.61-1.19-.07-2-.67-3.23-1.55a22.07,22.07,0,0,1-3.64-3.64c-1.37-1.55-2.05-2.32-2.9-3.44-1.72-2.26-2.25-3.43-2.63-3.3s-.06,1.11-.07,4c0,1.44,0,2.87,0,4.31a7.93,7.93,0,0,0,.27,2.29,7.64,7.64,0,0,0,.27.81H91.36q-1.41,0-2.76.07a22.27,22.27,0,0,0,.61-3.1,23.24,23.24,0,0,0,.07-4.85c-.22-3-.15-6-.27-9-.27-6.84-.31-7.71-.47-9.23C88.27,74.87,87.92,72.78,87.66,71.36Z"/></g></g></svg>