<?xml version="1.0" encoding="utf-8"?>
<!-- Generator: Adobe Illustrator 23.0.4, SVG Export Plug-In . SVG Version: 6.00 Build 0)  -->
<svg version="1.1" id="Layer_1" xmlns="http://www.w3.org/2000/svg" xmlns:xlink="http://www.w3.org/1999/xlink" x="0px" y="0px"
	 viewBox="0 0 323.1 268.9" style="enable-background:new 0 0 323.1 268.9;" xml:space="preserve">
<style type="text/css">
	.st0{fill:#482CF6;}
</style>
<title>Asset 3</title>
<g>
	<g id="Layer_3">
		<path class="st0" d="M238.3,44.6h10.6c1.7,0,3-1.3,3-3c0-0.3,0-0.5-0.1-0.8l-0.9-3.2c-1-3.7-6.8-2.1-5.8,1.6l0.9,3.2l2.9-3.8
			h-10.6C234.4,38.6,234.4,44.6,238.3,44.6z"/>
		<path class="st0" d="M230.4,30.1c3.6-1.4,7.3-2.5,11.1-3.2c3.8-0.7,2.2-6.5-1.6-5.8c-3.8,0.7-7.5,1.8-11.1,3.2
			C225.3,25.7,226.8,31.5,230.4,30.1z"/>
		<path class="st0" d="M230.4,1.5c-1.6,3-2.7,6.1-3.5,9.4c-0.8,3.8,5,5.4,5.8,1.6c0.6-2.8,1.6-5.4,2.9-7.9
			C237.4,1.1,232.2-1.9,230.4,1.5L230.4,1.5z"/>
	</g>
	<g id="Layer_2-2">
		<path d="M191.8,55.7c0.7-1.6,4.6-2.1,5.9-3.8c1.1-1.6,1.6-3.5,1.3-5.4c-0.1-0.5-1-2-1.1-2.3c-0.5-5.6,2.1-3.3,4.6-4
			c1.8-0.5,2.6-1.6,3.7-3c1.9-2.3,7.6-11.1,11.6-6.8c1.8,1.9,2.6,6.8,3.1,9.4c0.6,3.7,1.7,12-0.9,15.1c-2.2,2.6-8.3-0.2-10.9-1.2
			c-0.3-0.1-0.7,0-0.9,0.3c-2.1,4.5-4.6,8.7-7.5,12.7l1.4,0.2c-0.6-2.1-1.6-4.1-2.8-5.9c-0.7-0.8-1.4-1.6-2.2-2.3
			c-1.1-0.9-4.7-2.2-5.1-3.6c-0.3-0.9-1.8-0.5-1.4,0.4c0.4,1.3,1.4,1.7,2.6,2.4c3.9,2.4,6.2,4.9,7.6,9.3c0.1,0.4,0.5,0.6,1,0.5
			c0.2-0.1,0.3-0.2,0.4-0.3c1.9-2.6,3.7-5.3,5.3-8.2c0.6-1.2,1.1-3.2,2.5-3.7c0.8-0.3,3.8,1.1,4.6,1.3c2.2,0.5,4.8,1.2,6.5-0.6
			c2.8-3,2.2-10.2,1.9-13.8c-0.3-4.3-1.4-8.4-3.4-12.2c-1.5-2.6-3.6-3.2-6.4-1.9c-5.1,2.6-7.2,9.8-12.9,10.5
			c-2.9,0.4-5.4,0.5-5.4,4.1c0,0.5,0.8,1,1,1.4c1.9,4.8,1.8,6.5-2.5,8.9c-1.1,0.6-2.2,0.5-2.8,1.7C190.1,55.8,191.4,56.6,191.8,55.7
			z"/>
		<path d="M197.7,51c-3.7-2-7.4-2.2-11.5-1.6c-2.5,0.4-5,1.1-7.5,1.5c-3.9,0.7-6-0.3-5.9-4.9c0.2-1.5,0.5-3.1,1-4.5
			c2.1-7.5,1.8-12.7-5.3-16.9c-0.9-0.5-3.8-1.2-4.3-2c-1.9-2.9,5.6-2.9,7.5-2.8c5.6,0.4,11.1,0.3,16.7-0.3c5.5-0.7,11-1.7,16.5-1.8
			c3.7,0,7.8,0.2,11.1,1.9c3.9,2,6.5,6.8,2.9,10.5c-0.7,0.7,0.4,1.8,1.1,1.1c2.9-3,3-6.8,0.3-10c-3.2-3.9-8.8-4.8-13.6-4.9
			c-8-0.3-15.9,1.8-23.9,2.3c-6.2,0.4-13.4-1.8-19.2,1c-2.5,1.2-3.2,2.4-0.9,4.1s5.1,2.1,7.4,4c4.2,3.6,3.8,7.8,2.5,12.6
			c-0.8,3-3.5,10.1,0.3,12.3c2,1.2,6-0.1,8-0.5c5.5-1.1,10.8-2.5,16,0.3C197.7,52.8,198.5,51.5,197.7,51L197.7,51z"/>
		<path d="M191.2,55.9c-8.5-1.5-16.9,5.6-23.8,9.6c-8.1,4.6-13.2,11.1-18.8,18.4c-6.3,8.2-12.9,16.6-17.8,25.7
			c-2.5,4.7-6.6,13.5-1.5,17.9c2.4,2.1,5.8,1.7,8.8,1.5c5-0.4,9.9-1.3,14.7-2.6c4.3-1.2,9.4-2.5,13.2-5c2.9-1.9,3.6-4.7,4.6-7.9
			c1.5-5.1,2.5-10.9,5.3-15.6c1.8-3,6.3-7.3,10.5-5.5c3,1.3,4.2,4.6,6.8,6.3c4.3,2.8,11.4,1.5,13.5-3.4c1.4-3.3,0.8-7.2,0.2-10.7
			c-1-5.7-2-11.6-4.2-17c-2.9-7.1-9.1-12.8-17.2-11.4c-0.9,0.2-0.6,1.6,0.4,1.5c10.7-1.9,15.6,9.3,17.6,17.7c1.6,6.7,6.9,23-4.9,23
			c-6.6,0-7.8-8.3-14.7-7.8c-5,0.3-8.4,4.3-10.3,8.6c-2.9,6.5-2.8,16.7-8.8,21.2c-3.1,2.3-8.5,3.4-12.2,4.5c-4.4,1.2-8.9,2-13.4,2.5
			c-2.9,0.3-4.2,0.3-7-0.9c-2.6-1.2-3.3-1.6-3.5-4.4c0-0.8,0-1.6,0.2-2.4c0.6-4.1,2.5-7.9,4.6-11.4c4.1-6.6,8.5-13,13.3-19.1
			c5.1-6.8,10.3-15.2,17.5-19.9c3.6-2.4,7.5-4.3,11.2-6.4c4.8-2.7,9.8-6.4,15.6-5.4C191.7,57.4,192.2,56,191.2,55.9L191.2,55.9z"/>
		<path d="M195,105.8l7.4,18.5c1.2,3,2,6.6,3.7,9.3c0.5,0.9,0.8,1.8,1.9,2c1.9,0.4,1.4-1.4,2.4-2.1c3.7-2.5,2.4,7.1,5.5,8
			c2.6,0.8,3.6-2.6,4-4.4c0.6-3.7-0.8-6.7-3-9.6c-3.7-4.7-6.4-10-7.9-15.8c-1.4-4.8-2.8-9.4-5.3-13.7c-0.2-0.4-0.7-0.5-1-0.3
			c-0.4,0.2-0.5,0.7-0.3,1c3.9,6.7,4.8,14.5,7.9,21.5c1.7,3.9,4.6,6.4,6.7,9.9c1.1,1.8,2.8,11.1-1.6,8.3c-0.4-0.3-0.8-3.9-1-4.6
			c-0.5-1.3-1.5-3.7-3.4-3.4c-1.5,0.2-1.2,2.2-2,2.5c-2.5,0.9-11.5-25.1-12.6-27.7C196.2,104.5,194.7,104.9,195,105.8L195,105.8z"/>
		<path d="M160.8,125.8c10.8,9.9,16.6,25,20.7,38.7c2.4,8.2,3.3,16.7,2.6,25.2c-0.4,4.8-1.1,9.6-1.9,14.4c-0.2,1.4-0.1,4.3-1,5.4
			l-5.2,2.8c-2.2-0.8-3.8-2.6-4.4-4.9c-1.2-4-0.1-8.6,0.4-12.6s0.8-7.9,1.2-11.8c0.5-5.6,2.8-12.9-1.9-17.1
			c-5.2-4.6-12.2-8-18.1-11.8c-6.5-4.2-14-8.3-16.8-16c-0.3-0.9-1.8-0.5-1.4,0.4c2.4,6.4,7.4,10.3,12.9,14c4.3,2.8,8.6,5.6,12.9,8.3
			c2.2,1.4,4.6,2.7,6.7,4.3c3.7,2.9,5.3,5.6,5,10c-0.4,5.3-0.9,10.5-1.4,15.8c-0.5,4.9-2,10.6-1.1,15.5c0.8,4.1,3.9,8.4,8.6,7.5
			c1.5-0.3,2.9-1.2,3.7-2.6c2.3-3.7,2.2-10.3,2.8-14.5c1.2-9.1,1.5-18.2-0.5-27.2c-3.5-15.6-10.5-33.7-22.5-44.8
			C161.2,124.2,160.2,125.2,160.8,125.8L160.8,125.8z"/>
		<path d="M127.7,129.7c-0.8,8.8,0.2,17.8,3.1,26.1c0.3,0.9,1.8,0.5,1.4-0.4c-2.8-8.3-3.9-17-3.1-25.8
			C129.2,128.7,127.7,128.7,127.7,129.7z"/>
		<path d="M172.4,213.6c0,3.4,0.1,7.5,3.9,8.7c4.3,1.3,11.6,0.4,15.8-1.4c1.6-0.7,5.7-2.5,4.6-5c-0.5-1.1-1.8-1.4-2.8-1.8
			c-3.9-1.6-6.7-3-9.6-6.2c-0.6-0.7-1.7,0.3-1.1,1.1c1.5,1.7,3.2,3.3,5.2,4.5c2.1,1.3,7.2,2,4.9,5.2c-1.7,2.3-8.2,2.4-10.5,2.4
			c-1.5,0.1-2.9,0.1-4.4-0.1c-4.4-0.8-4.6-3.8-4.5-7.4c0-0.4-0.3-0.8-0.8-0.8S172.4,213.2,172.4,213.6L172.4,213.6z"/>
		<path d="M137.7,235.9c-0.2,3.2-0.2,7.6,3.4,9c1.4,0.5,2.9,0.3,4.1-0.4c3.2-1.4,5.2-3.4,9-3.2c1,0,1-1.5,0-1.5
			c-2.5-0.1-5,0.5-7.2,1.8c-2.1,1.2-4.2,2.7-6.6,1c-1.9-1.3-1.4-4.8-1.3-6.8C139.2,235,137.7,235,137.7,235.9L137.7,235.9z"/>
		<path d="M137,205.5c-0.1,4.8-1.1,11.4,1.7,15.6c0.5,0.8,1.8,0,1.3-0.8c-2.5-3.8-1.6-10.5-1.5-14.9c0-0.4-0.3-0.8-0.8-0.8
			S137,205.1,137,205.5L137,205.5z"/>
		<path d="M150.5,157.5c-0.3,10.1,2.9,20,1.8,30.1c-0.1,1,1.4,1,1.5,0c1.1-10.1-2.1-20-1.8-30.1C152,156.5,150.5,156.5,150.5,157.5z
			"/>
		<path d="M151.9,201.8c-0.3,7.2-0.2,14.4,0.6,21.6c0.1,1,1.6,1,1.5,0c-0.7-7.2-0.9-14.4-0.6-21.6
			C153.4,200.8,152,200.8,151.9,201.8z"/>
		<path d="M208.3,136.7c-1.1,0.7-1.4,2.1-0.7,3.2c0.1,0.2,0.3,0.4,0.5,0.5c1.3,1.1,3.1,1.1,4.5,0.1c1.4-0.8,1.9-2.5,1.3-4
			c-0.6-1.5-2.3-2.3-3.9-1.8c-0.9,0.3-0.5,1.8,0.4,1.4c0.9-0.3,1.8,0.2,2.2,1c0.2,0.6,0,1.3-0.4,1.8c-0.5,0.5-1.2,0.8-1.9,0.7
			c-0.7-0.1-2.2-1.1-1.1-1.8C209.9,137.5,209.1,136.2,208.3,136.7L208.3,136.7z"/>
		<path d="M218.2,141.6c4.9-1.3,15.3,42.2,16.7,47c2.2,7.7,4.4,15.3,7.2,22.8c1.8,4.8,3.5,10,8.3,12.5c0.4,0.2,0.8,0.1,1-0.3
			c0.1-0.2,0.1-0.4,0.1-0.5c-4.2-19.9-8.3-39.8-15-59.1c-2.1-6.2-3.3-12.8-5.6-18.9c-1.9-5.3-6-8.9-10.8-11.5
			c-0.8-0.5-1.6,0.8-0.8,1.3c5.9,3.3,9.3,7.4,11,13.8s3.5,12.7,5.8,19c6.5,17.9,9.9,37.2,13.8,55.8l1.1-0.9
			c-7.2-3.7-9.5-16.6-11.7-23.8c-2.5-8.2-4.7-16.5-7.1-24.8s-4.8-16.5-7.8-24.5c-1.1-2.8-2.5-10.5-6.8-9.4c-0.4,0.1-0.6,0.5-0.5,0.9
			C217.4,141.5,217.8,141.7,218.2,141.6L218.2,141.6z"/>
		<path d="M105.5,171.8c-2.1,0.2-4.8,1-6.7-0.4c-3.2-2.3-0.9-8,0.4-10.5c2-4,5.4-6.8,10.2-4.9c3,1.2,5.2,2.6,8.6,3
			c4.6,0.5,9.3,0.1,13.8,1.3c3.1,0.8,6.5,3.8,2.7,6.6c-1.4,0.8-2.9,1.3-4.5,1.4c-2.9,0.5-5.8,0.7-8.7,0.6
			C115.7,168.8,111.1,171,105.5,171.8c-0.9,0.1-1,1.6,0,1.5c4.9-0.6,9.7-2.9,14.5-2.9c4.1,0,8.4,0.1,12.4-1.1c2.4-0.7,5.3-2,5.7-4.9
			c0.8-5-6.8-5.9-10.1-6.3c-3.3-0.4-6.7-0.2-10.1-0.6c-3.8-0.4-6.3-2.8-9.8-3.6c-4.6-1-8.3,2.4-10.2,6.2c-1.7,3.3-4.1,8.9-0.7,11.9
			c2.5,2.2,5.3,1.6,8.3,1.2C106.5,173.1,106.5,171.6,105.5,171.8z"/>
		<path d="M83,215.8c-5.4,0.4-6.8,6.6-4.9,10.9c1.8,3.7,6.2,5.3,10,3.6c3.9-1.9,5.7-6.5,4.1-10.5c-1.8-4.1-6.5-6-10.7-4.3
			c-0.9,0.3-0.5,1.8,0.4,1.4c2.9-1.2,6.3-0.3,8.2,2.3c1.8,2.8,1.3,6.6-1.2,8.8c-2.3,1.8-5.5,1.9-7.9,0.1c-3.2-2.7-3.5-10.5,1.9-10.9
			C84,217.2,84,215.7,83,215.8L83,215.8z"/>
		<path d="M87,214l40.3-31.7c0.8-0.6-0.3-1.6-1.1-1.1l-40.3,31.6C85.2,213.5,86.2,214.5,87,214L87,214z"/>
		<path d="M104.1,206.8c5.1-2.8,9.4-6.7,13.8-10.4c1.5-1.2,5.7-5.9,7.5-6.1c2.8-0.2,6.1,5.5,7.7,7.5l0.3-1.2
			c-10.9,1.7-20.5,6.7-31.1,9.2c-0.9,0.2-0.5,1.7,0.4,1.4c10.6-2.5,20.2-7.4,31.1-9.2c0.6-0.1,0.6-0.9,0.3-1.2l-7.2-8.7
			c-0.3-0.3-0.8-0.3-1.1,0c-7.2,5.9-14.4,13-22.6,17.4C102.5,205.9,103.2,207.2,104.1,206.8L104.1,206.8z"/>
		<path d="M91.1,216.6c27.3-3.4,53.2-14.6,78.9-24c0.9-0.3,0.5-1.8-0.4-1.4c-25.5,9.4-51.3,20.6-78.5,24
			C90.2,215.3,90.1,216.8,91.1,216.6L91.1,216.6z"/>
		<path d="M120.1,171.9c2.5,3.2,4.5,6.7,6.1,10.4l0.3-1l-0.1,0.1l1,0.3l-0.1-0.1c-0.5-0.8-1.8-0.1-1.3,0.8l0.1,0.1
			c0.2,0.3,0.6,0.5,1,0.3l0.1-0.1c0.3-0.2,0.4-0.6,0.3-1c-1.6-3.7-3.6-7.2-6.1-10.4C120.8,170.5,119.5,171.2,120.1,171.9
			L120.1,171.9z"/>
		<path d="M127.3,172.1l10.6,16.3c1.4,2.1,2.7,6.1,5.5,6.4c1.1,0.1,2.5-0.7,3.5-1.1l8.9-3.8l17.8-7.5c0.9-0.4,0.1-1.7-0.8-1.3
			c-8.4,3.6-17,8.3-25.7,10.9c-4.2,1.3-4.7,0.4-6.7-2.7l-3.7-5.7l-7.9-12.2C128.1,170.5,126.8,171.2,127.3,172.1L127.3,172.1z"/>
		<path d="M187.3,176.7c6.2-2,11.2-7.1,16-11.3c5.9-5.3,11.8-10.5,19-13.9c0.9-0.4,0.1-1.7-0.8-1.3c-5.8,2.8-10.8,6.7-15.7,11
			c-5.6,5-11.6,11.8-18.9,14.2C186,175.6,186.4,177.1,187.3,176.7L187.3,176.7z"/>
		<path d="M186.8,183.9c13.1-8.1,25.5-17.2,37.1-27.4c0.7-0.6-0.3-1.7-1.1-1.1c-11.5,10.1-23.8,19.2-36.8,27.2
			C185.2,183.1,185.9,184.4,186.8,183.9L186.8,183.9z"/>
		<path d="M93.1,224.7c9.8,2.1,19.7,3.7,29.7,4.8c11,1.2,22.5,0.6,33.3,2.7c0.9,0.2,1.4-1.3,0.4-1.4c-9.8-1.8-20-1.3-29.9-2.3
			c-11.1-1.1-22.2-2.8-33.1-5.2C92.6,223,92.2,224.5,93.1,224.7L93.1,224.7z"/>
		<path d="M93.1,219.9c22.2-0.1,44.4,2.3,66.1,7.2c0.9,0.2,1.3-1.2,0.4-1.4c-21.8-4.9-44.1-7.3-66.5-7.2c-0.4,0-0.8,0.3-0.8,0.8
			S92.7,219.9,93.1,219.9z"/>
		<path d="M166.4,224.8c-5.7-0.4-7.6,5.9-6.2,10.4c1.5,4.9,6.5,8.4,11.7,6.9c4.5-1.3,8-7.1,6.4-11.7c-1.9-5.6-10-6.3-14.8-5.3
			c-0.9,0.2-0.5,1.6,0.4,1.4c3.8-0.8,8.5-0.4,11.5,2.3c3.3,3,1.2,9.4-2.4,11.2c-3.8,1.9-8.3,0.5-10.4-3.2c-2.2-3.6-2.1-11,3.8-10.6
			C167.4,226.3,167.4,224.8,166.4,224.8L166.4,224.8z"/>
		<path d="M177.5,228.7l5.6-4.2c0.8-0.6,0-1.9-0.8-1.3l-5.6,4.2C176,227.9,176.8,229.3,177.5,228.7z"/>
		<path d="M193,210.1c13.4-11,25.5-23.4,36.1-37c0.6-0.8-0.5-1.8-1.1-1.1c-10.6,13.6-22.8,26-36.1,37
			C191.2,209.7,192.3,210.7,193,210.1z"/>
		<path d="M185.4,208.9c8.5-6.6,16.2-14,23.2-22.2c6.7-7.8,12.1-17.2,20.7-23c0.8-0.5,0-1.8-0.8-1.3c-8.3,5.6-13.5,14.4-19.9,22
			c-7.3,8.6-15.5,16.5-24.4,23.5C183.6,208.5,184.6,209.6,185.4,208.9L185.4,208.9z"/>
		<path d="M99.2,199.1c-6-3.3-13.5-6.6-20.6-5.8c-5.7,0.6-10.5,4.4-13.8,8.8c-7.4,9.9-10.5,27.5-6,39.1c9.9,25.7,56,14,53.3-13.4
			c-0.1-1-1.6-1-1.5,0c2.7,27.1-43.9,37.2-51.1,10.7c-2.8-10.3-0.5-24.1,5-33.2c3.3-5.5,8.9-10.5,15.7-10.6
			c6.3-0.1,12.8,2.7,18.2,5.7C99.4,200.9,100.1,199.6,99.2,199.1L99.2,199.1z"/>
		<path d="M104.6,195c-4.3-4.5-10-6.5-16-7.9s-13.3-3-19.4-1c-5.6,1.9-8.5,6.9-11.1,11.9c-3.5,6.6-7,13.4-8.6,20.8
			c-2.4,11-1.1,28.9,8.4,36.6c9.8,7.9,26.5,9.1,38,5.1c12.9-4.5,22.5-17.2,20.8-31.1c-0.1-0.9-1.6-1-1.5,0
			c1.9,15.6-10.5,28.5-25.3,31.1c-7.8,1.3-15.8,0.6-23.3-2.2c-8.6-3.1-13.3-8.8-15.1-17.7c-1.6-7.8-2.2-16.1,0-23.8
			c2-7.2,5.5-14.1,9.2-20.5c2.3-4,5-7.5,9.7-8.8c4.3-1.2,9.1-0.4,13.5,0.4c7.2,1.3,14.5,2.9,19.7,8.3
			C104.2,196.8,105.3,195.7,104.6,195L104.6,195z"/>
		<path d="M113.2,212.2c0.8,2.3,1.5,4.6,2,7c0.2,0.9,1.7,0.5,1.4-0.4c-0.5-2.4-1.2-4.7-2-7C114.4,210.9,112.9,211.3,113.2,212.2z"/>
		<path d="M106.2,213.9l1.7,5.1c0.3,0.9,1.8,0.5,1.4-0.4l-1.7-5.1C107.3,212.5,105.9,212.9,106.2,213.9z"/>
		<path d="M234.7,192.9c-5.6,0-8.6,5.4-10.8,9.9c-2.9,6-4.4,12.5-4.2,19.2c0.3,12.2,7.3,23.7,18.6,28.7c10.4,4.6,26.1,1.8,34-6.7
			c4.1-4.5,5.6-10.7,6.4-16.6c1-7.1,1.8-14.6-0.5-21.6c-4.6-14.1-19.3-21.4-33.4-18c-0.9,0.2-0.5,1.7,0.4,1.4
			c16.6-4,31.9,7.6,32.9,24.5c0.4,6.9-0.4,13.9-2.4,20.5c-2.5,8.4-8.4,12.5-16.4,15.2c-13.5,4.6-27.4-0.4-34.4-13.1
			c-3.7-6.7-4.5-14.8-3.2-22.3c1.1-6.1,5-19.8,12.9-19.8c0.4,0,0.8-0.3,0.8-0.8S235.1,193,234.7,192.9L234.7,192.9z"/>
		<path d="M231.3,186.5c-14.6,5.9-16.5,23.7-17,37.6c-0.6,15.6,7.5,28.5,22.9,33c14,4,31.5,1.9,40.3-10.7c4.7-6.8,6.6-15,7.9-23
			c1.2-7.6,2.5-14.9-1-22.1c-7.5-15.4-24.2-25.7-41.2-20.8c-0.4,0.1-0.6,0.5-0.5,0.9c0.1,0.4,0.5,0.6,0.9,0.5
			c17.1-4.9,37.3,7.4,41.4,24.9c1.2,5.3-0.1,10.9-0.9,16.1c-0.6,4.1-1.5,8.2-2.7,12.1c-2.8,8.7-8.2,16.9-17.1,20.1
			c-16.7,6-40.9,0.6-46.8-18c-2.7-8.6-1.4-17.8,0.1-26.4c1.6-9.7,4.2-18.7,14.2-22.7C232.6,187.6,232.2,186.2,231.3,186.5
			L231.3,186.5z"/>
		<path d="M299.6,221.4c-0.1-2.8,0.7-5.6,2.2-8l-1.4-0.2c0.7,3.4,2,6.6,4,9.4c0.2,0.4,0.7,0.5,1,0.2c0.2-0.1,0.3-0.4,0.4-0.6
			c0-5.2,1.3-10.3,3.7-14.9l-1.4-0.2c1.7,8.7,3.8,17.3,6.2,25.8c1.7,6.1,3,13,7.5,17.7c0.7,0.7,1.7-0.4,1.1-1.1
			c-5-5.3-6.3-13.9-8.1-20.7c-2-7.3-3.7-14.7-5.2-22.2c-0.1-0.4-0.5-0.6-1-0.5c-0.2,0.1-0.3,0.2-0.4,0.3c-2.5,4.8-3.9,10.2-3.9,15.7
			l1.4-0.4c-1.9-2.8-3.2-5.8-3.9-9.1c-0.1-0.4-0.5-0.6-1-0.5c-0.2,0.1-0.3,0.2-0.4,0.3c-1.6,2.6-2.5,5.7-2.4,8.8
			c0,0.4,0.3,0.8,0.8,0.8S299.6,221.8,299.6,221.4L299.6,221.4z"/>
		<path d="M16.3,267.6c-4.1-4.6-9.7-6.8-15.4-8.8l-0.2,1.5c8.6,0.4,17.1,1.9,25.3,4.5c0.4,0.1,0.8-0.1,0.9-0.6c0-0.1,0-0.2,0-0.4
			c-0.8-2.5-0.1-5.2,1.9-7l-1.2-0.3c0.7,3.2,3,5.9,6.1,6.9c0.4,0.1,0.8-0.1,0.9-0.5c0-0.1,0-0.1,0-0.2c0-4.1,1-8.1,2.7-11.8
			l-1.4-0.2c2.3,7.2,6.8,13.4,12.8,17.9c0.8,0.6,1.5-0.7,0.8-1.3c-5.7-4.3-10-10.2-12.2-17c-0.2-0.6-1.1-0.8-1.4-0.2
			c-1.2,2.5-2.1,5.1-2.5,7.9c-0.2,0.9-0.3,1.9-0.3,2.9c-2.1,1.1-3.9-3.8-4.2-4.8c-0.1-0.4-0.5-0.6-0.9-0.5c-0.1,0-0.2,0.1-0.3,0.2
			c-2.2,2.2-3.1,5.4-2.3,8.4l0.9-0.9c-8.3-2.6-17-4.2-25.7-4.5c-0.9,0-1,1.2-0.2,1.5c5.5,1.9,10.8,4,14.8,8.4
			C15.9,269.3,17,268.3,16.3,267.6L16.3,267.6z"/>
		<path d="M229.2,12.2c0.3-2.3,1.4-4.4,3.1-6.1L231.1,6c0.6,0.9,1.5,1.7,2.4,2.4c0.5,0.3,1,0.4,1.5,0.7c0.3,0,0.5,0.2,0.5,0.5
			c0.3,0.3,0.3,0.5-0.1,0.6c-0.3,0.3-0.8,0.6-1.2,0.7c-0.9,0.3-0.5,1.8,0.4,1.4c1.3-0.5,3.2-1.5,2.6-3.2c-0.3-0.7-0.9-1.2-1.6-1.4
			c-1.3-0.5-2.5-1.4-3.3-2.5c-0.2-0.4-0.7-0.5-1-0.3c0,0-0.1,0.1-0.1,0.1c-1.8,1.8-3.1,4.2-3.5,6.8C227.6,12.8,229,13.2,229.2,12.2
			L229.2,12.2z"/>
		<path d="M237.8,22c1.8-0.4,4.1-1.4,6-1.3c1.2,0,1.7,0.3,1.6,1.5c-0.1,1.9-1.6,1.7-2.9,2c-4,0.9-8,2-11.9,3.3
			c-0.9,0.3-0.5,1.8,0.4,1.5c3.6-1.2,7.2-2.2,10.8-3.1c2.1-0.5,4.5-0.3,5.1-2.6c0.3-1.2,0.4-3.6-0.9-4.3c-0.7-0.4-2,0.2-2.6,0.3
			l-6,1.3C236.4,20.7,236.8,22.2,237.8,22L237.8,22z"/>
		<path d="M236.2,43.4c4-0.1,8-0.1,12,0.2c0.4,0,0.8-0.3,0.8-0.8l-0.4-4.7c-0.1-1-1.6-1-1.5,0l0.4,4.7l0.8-0.8c-4-0.2-8-0.3-12-0.2
			c-0.4,0-0.8,0.3-0.8,0.8S235.7,43.4,236.2,43.4z"/>
	</g>
</g>
</svg>
