<svg xmlns="http://www.w3.org/2000/svg" viewBox="0 0 159.04 169.96"><defs><style>.cls-1{fill:#f9fafb;}.cls-2{fill:#5995da;}</style></defs><title>light</title><g id="Layer_2" data-name="Layer 2"><g id="homepage"><rect class="cls-1" x="0.52" y="0.48" width="158" height="169" rx="12" ry="12" transform="translate(-0.61 0.57) rotate(-0.41)"/><path d="M72.09,126c-2.55,4.18,2.53,5.61,5.75,5.67,4.2.08,8.43-.19,12.62-.28,1.9,0,5.41.41,7.12-1,2.17-1.77.84-3.8-1.25-4.8-6.6-3.18-16.7-1.85-23.5-.36-.66.15-.38,1.17.28,1A50.72,50.72,0,0,1,84.05,125a46.93,46.93,0,0,1,7.28.57c2.4.38,3.88-.26,3.19,2.72-.64,2.77-1.43,2-4.07,2.07l-4.51.1-4.51.1c-1.66,0-11.15.45-8.44-4a.53.53,0,0,0-.91-.53Z"/><path d="M74.91,131.18c-3.82,6.38,16.53,5.39,19,5.27a.54.54,0,0,0,.53-.53,10.48,10.48,0,0,0-.72-4.18c-.24-.63-1.26-.36-1,.28,1,2.63,1,3.13-1.69,3.49a24.68,24.68,0,0,1-4.34-.07c-1.64-.08-12.69-.58-10.81-3.73a.53.53,0,0,0-.91-.53Z"/><path d="M78.9,135.89c.89,2.37,2.73,4.78,5.31,5.43,2.08.52,4.47-.78,4.2-3.14-.08-.67-1.14-.68-1.06,0,.37,3.21-3.52,2.16-4.94,1a8.35,8.35,0,0,1-2.48-3.56c-.24-.63-1.26-.36-1,.28Z"/><path d="M73.55,124.79c2.72-14.67-12.94-24.5-18.63-36.25C51.21,80.89,48.14,69,52.42,61,56.36,53.8,65,50,72.92,49.46c8.24-.57,17.35,1.94,23.63,7.45,6.87,6,8.65,14.87,7,23.55-2.77,14.43-13.34,26.69-11.11,42,.1.67,1.12.39,1-.28-2.29-15.78,9.42-28.53,11.46-43.63,1.49-11-3.16-20.89-13.1-26.14-9.68-5.11-22.13-5.75-31.77-.22C49.88,58,48.35,67.54,50.53,78.3a45.56,45.56,0,0,0,9.12,19.44c5.94,7.66,14.86,16.12,12.88,26.77-.12.67.9,1,1,.28Z"/><path d="M87.33,121.15a116,116,0,0,1-6.85-27.78A113.32,113.32,0,0,1,79.75,79q0-2.7.2-5.4.11-1.8.28-3.59-.74-5.71,6.35-3.93C89.47,69.1,88.32,77,87.86,81c-.55,4.79-1.19,11.65-5.73,14.52a8.73,8.73,0,0,1-7.18.76c-1.06-.32-5.89-2.28-5.39-3.84-.18.57,2.43-1.8,2.23-1.56a5.11,5.11,0,0,0,1.1-2.48.53.53,0,0,0-1-.28l-3.8,3.55a.54.54,0,0,0-.23.88c5.2,6.22,14.7,7.49,18.62-.7,2-4.26,2.54-9.72,2.78-14.37.19-3.83.41-10.47-2.86-13.31-8.33-7.23-7.71,13.93-7.7,16.66a116,116,0,0,0,7.62,40.65c.24.63,1.26.36,1-.28Z"/><path class="cls-2" d="M72.91,28.92l-1.13,10c-.28,2.51,3.64,2.49,3.92,0l1.13-10c.28-2.51-3.64-2.49-3.92,0Z"/><path class="cls-2" d="M101.59,42l1.12-9.89c.28-2.51-3.64-2.49-3.92,0L97.67,42c-.28,2.51,3.64,2.49,3.92,0Z"/><path class="cls-2" d="M44.24,36.44a36.56,36.56,0,0,1,8.18,7.06c1.66,1.91,4.42-.87,2.77-2.77a40.12,40.12,0,0,0-9-7.67c-2.14-1.35-4.11,2-2,3.39Z"/><path d="M54.85,43.64a19,19,0,0,1-6.38-4,18.58,18.58,0,0,1-2.37-2.75,8.76,8.76,0,0,1-.85-1.32L44.95,35Q44.89,33.7,47,34.7c.23.64,1.25.36,1-.28-.79-2.21-2.94-1.28-4.22-.07a.54.54,0,0,0-.08.64,20.14,20.14,0,0,0,10.82,9.66c.64.24.91-.78.28-1Z"/><path d="M75.53,29.29a34.35,34.35,0,0,0-.17,10.8.53.53,0,0,0,.51.39l2.39-.1a.55.55,0,0,0,.53-.53,46.28,46.28,0,0,0,.28-8.13C79,31,78,31,78,31.7a46.28,46.28,0,0,1-.28,8.13l.53-.53c-1.17.05-1.71.3-2.07-1A11.82,11.82,0,0,1,76,35.49a32.56,32.56,0,0,1,.51-5.92c.12-.67-.9-1-1-.28Z"/><path d="M98.6,43.22l.94-8.08c.13-1.1,0-2.76.44-3.77q-.27-2.4,2.74-1,1.47,2.41-.06,4c-.41.54.51,1.07.91.53,2.41-3.16-.22-7-4-6.24a.54.54,0,0,0-.39.51l-1.63,14c-.08.68,1,.67,1.06,0Z"/><path d="M117.78,63.55c-1.47,3,3.87,4.46,5.94,4.34,3.8-.22,3.57-4.44,1.15-6.41s-6.65-1.45-7.65,2a3.73,3.73,0,0,0,5.1,4.4c.62-.27.08-1.18-.53-.91-2.42,1.05-4.44-1.77-3.25-3.88a3.73,3.73,0,0,1,5.77-.66c1.78,1.57,1.89,4.48-1,4.46-1.05,0-5.52-1-4.63-2.76.3-.61-.61-1.15-.91-.53Z"/><path d="M119.92,105.91c-1.69-.44-3.94-.72-5.41.51a3.17,3.17,0,0,0-1,1.56,7.44,7.44,0,0,0-.1,1.5c-.18,2.45-1.15,5.15-3.89,5.73-.62.13-.41,1,.14,1,3.72.37-1,5.92-.85,7.34s1.08,2,2.39,2a.53.53,0,0,0,0-1.06l-.13-3.2.67-.73c.16-.35.51-.62.68-1a3.12,3.12,0,0,0,.32-2.11,3.17,3.17,0,0,0-3.08-2.3l.14,1A5.76,5.76,0,0,0,114,113.1a8.51,8.51,0,0,0,.51-2.24q-.66-2.53,1.9-4.16a6.46,6.46,0,0,1,3.2.23.53.53,0,0,0,.28-1Z"/><path d="M124.57,111c3.65,0-.4,4.7-.81,5.44a7.8,7.8,0,0,0-.91,2.76c-.29,2,1.86,7-.41,8.06-.62.29-.08,1.2.53.91a2.87,2.87,0,0,0,1.79-2.86c0-1.14-.59-2.18-.77-3.27-.59-3.57.74-4.59,2.4-7.24,1.22-2,1.21-4.88-1.82-4.86a.53.53,0,0,0,0,1.06Z"/><path d="M39.85,102.32l-6.67,2.42a.53.53,0,0,0-.23.88,12,12,0,0,0,5.4,2.8c.66.15.95-.87.28-1a10.89,10.89,0,0,1-4.94-2.53l-.23.88,6.67-2.42c.63-.23.36-1.25-.28-1Z"/><path d="M44.35,99l-1.53,13.6c-.08.68,1,.67,1.06,0L45.41,99c.08-.68-1-.67-1.06,0Z"/><path d="M47.85,103.83a13.18,13.18,0,0,1,2.55.33c.66.16,2.21.33,1.93,1.3-.16.56-.87,1.16-1.22,1.62l-1.55,2c-.41.54.5,1.07.91.53.8-1,1.62-2.07,2.4-3.13.44-.59.95-1.37.52-2.12s-1.23-.82-1.84-1a14.15,14.15,0,0,0-3.71-.61c-.68,0-.68,1,0,1.06Z"/></g></g></svg>