<?xml version="1.0" encoding="utf-8"?>
<!-- Generator: Adobe Illustrator 21.1.0, SVG Export Plug-In . SVG Version: 6.00 Build 0)  -->
<svg version="1.1" id="Layer_1" xmlns="http://www.w3.org/2000/svg" xmlns:xlink="http://www.w3.org/1999/xlink" x="0px" y="0px"
	 viewBox="0 0 158 169" style="enable-background:new 0 0 158 169;" xml:space="preserve">
<style type="text/css">
	.st0{fill:#F9FAFB;}
	.st1{fill:#5995DA;}
</style>
<title>newclock</title>
<g id="Layer_2">
	<g id="bp_cover">
		<path class="st0" d="M88.3,38.1l6.2-2.1l-1.4-1.8l-3.1,4.4c-0.7,0.9-1.6,2.1-1.1,3.3c0.5,1,1.6,1.3,2.6,0.9c0,0,0,0,0,0
			c1.7-0.7,2.9-1.5,4.8-1.8c1.5-0.2,0.9-2.5-0.7-2.3c-1.1,0.1-2.1,0.4-3.1,0.8c-0.3,0.2-0.7,0.3-1,0.5c-0.2,0.1-0.5,0.3-0.7,0.4
			c0.1,0.8,0.3,0.9,0.5,0.5c0.2-0.1,0.6-0.9,0.8-1.1l1-1.5l2-2.9c0.3-0.6,0.1-1.3-0.5-1.7c-0.3-0.1-0.6-0.2-0.9-0.1l-6.2,2.1
			C86.2,36.3,86.8,38.6,88.3,38.1L88.3,38.1z"/>
		<path class="st0" d="M97.4,33.3c0.8-0.4,3.6-2.1,4.4-1.8l-0.7-0.6c0.3,0.5-1.7,3.5-2,4.1c-0.5,0.9-1.2,2-0.7,3.1
			c0.4,0.8,1.4,1.1,2.2,0.8c1.6-0.4,3.2-1,4.7-1.6c1.5-0.5,0.8-2.8-0.7-2.3l-2.6,0.9c-0.3,0.1-1.9,0.8-2,0.8l0.6,0.7
			c-0.1-0.2,0.6-1.3,0.8-1.6l1.2-2.4c0.5-1,1.2-2.2,0.7-3.3c-1.2-2.7-5.7,0.4-7.3,1.1C94.7,31.8,95.9,33.9,97.4,33.3L97.4,33.3z"/>
		<path class="st0" d="M108.2,28.1c0.8-0.6,1.6-1,2.6-1.3c0.4-0.1,2.2-0.6,2.5-0.3l-0.5-1.1c0,0.1-1.3,1.1-1.5,1.2
			c-0.5,0.5-0.9,1-1.3,1.5c-0.8,0.9-1.1,2.1-1,3.4c0.2,1.1,1.2,1.9,2.3,1.8c2.1,0.1,4.1,0,6.2-0.1c2-0.1,2-3.2,0-3.2
			s-4.4,0.5-6.3,0.1l0.9,0.7c-0.4-0.6,2.5-2.9,2.9-3.3c0.9-0.9,1.4-2.2,0.5-3.3c-2-2.4-6.9-0.3-8.9,1
			C104.9,26.5,106.5,29.2,108.2,28.1L108.2,28.1z"/>
		<path class="st1" d="M88.3,38.1l6.2-2.1l-1.4-1.8l-3.1,4.4c-0.7,0.9-1.6,2.1-1.1,3.3c0.5,1,1.6,1.3,2.6,0.9c0,0,0,0,0,0
			c1.7-0.7,2.9-1.5,4.8-1.8c1.5-0.2,0.9-2.5-0.7-2.3c-1.1,0.1-2.1,0.4-3.1,0.8c-0.3,0.2-0.7,0.3-1,0.5c-0.2,0.1-0.5,0.3-0.7,0.4
			c0.1,0.8,0.3,0.9,0.5,0.5c0.2-0.1,0.6-0.9,0.8-1.1l1-1.5l2-2.9c0.3-0.6,0.1-1.3-0.5-1.7c-0.3-0.1-0.6-0.2-0.9-0.1l-6.2,2.1
			C86.2,36.3,86.8,38.6,88.3,38.1L88.3,38.1z"/>
		<path class="st1" d="M97.4,33.3c0.8-0.4,3.6-2.1,4.4-1.8l-0.7-0.6c0.3,0.5-1.7,3.5-2,4.1c-0.5,0.9-1.2,2-0.7,3.1
			c0.4,0.8,1.4,1.1,2.2,0.8c1.6-0.4,3.2-1,4.7-1.6c1.5-0.5,0.8-2.8-0.7-2.3l-2.6,0.9c-0.3,0.1-1.9,0.8-2,0.8l0.6,0.7
			c-0.1-0.2,0.6-1.3,0.8-1.6l1.2-2.4c0.5-1,1.2-2.2,0.7-3.3c-1.2-2.7-5.7,0.4-7.3,1.1C94.7,31.8,95.9,33.9,97.4,33.3L97.4,33.3z"/>
		<path class="st1" d="M108.2,28.1c0.8-0.6,1.6-1,2.6-1.3c0.4-0.1,2.2-0.6,2.5-0.3l-0.5-1.1c0,0.1-1.3,1.1-1.5,1.2
			c-0.5,0.5-0.9,1-1.3,1.5c-0.8,0.9-1.1,2.1-1,3.4c0.2,1.1,1.2,1.9,2.3,1.8c2.1,0.1,4.1,0,6.2-0.1c2-0.1,2-3.2,0-3.2
			s-4.4,0.5-6.3,0.1l0.9,0.7c-0.4-0.6,2.5-2.9,2.9-3.3c0.9-0.9,1.4-2.2,0.5-3.3c-2-2.4-6.9-0.3-8.9,1
			C104.9,26.5,106.5,29.2,108.2,28.1L108.2,28.1z"/>
		<path class="st1" d="M81.4,88.3c-1.2-3.9-4-7.1-5.8-10.8c-0.8-1.7-3.4-0.2-2.6,1.5c0.8,1.8,1.7,3.5,2.8,5.1c1.2,1.5,2.1,3.2,2.7,5
			C79.1,90.9,82,90.2,81.4,88.3L81.4,88.3z"/>
		<path class="st1" d="M80.8,91c2.4-0.2,4.8-0.2,7.2,0c1.9,0.2,1.9-2.9,0-3c-2.4-0.2-4.8-0.2-7.2,0C78.8,88.1,78.8,91.1,80.8,91
			L80.8,91z"/>
		<path d="M53.6,93.8c0.9,4.7,2.5,9.5,6.2,12.8c0.4,0.3,0.9-0.2,0.6-0.6c-3.6-3.2-5.1-7.9-6-12.5C54.2,93.1,53.5,93.3,53.6,93.8
			L53.6,93.8z"/>
		<path d="M70,66.3c-10.8,4.5-18.2,14.2-16.6,26.2c0.1,0.5,0.8,0.3,0.8-0.2c-1.6-11.5,5.8-21,16.1-25.2C70.7,66.9,70.5,66.1,70,66.3
			L70,66.3z"/>
		<path d="M65.2,102c-2.8-5.9-5.8-12.7-4-19.3c2-7.4,11.6-12.7,19-11.7c11.4,1.5,19.9,12.1,18,23.6c-0.1,0.5,0.7,0.7,0.8,0.2
			c1.1-5.8-0.3-11.8-4-16.4c-3.9-4.7-11.2-8.8-17.4-8.3c-6.5,0.6-14.1,4.6-16.6,10.9c-2.9,7.3,0.4,14.9,3.5,21.5
			C64.8,102.8,65.4,102.4,65.2,102L65.2,102z"/>
		<path d="M99.9,81.6c1.2,4.2,1.5,8.6,1,13c-0.1,0.5,0.7,0.5,0.8,0c0.6-4.4,0.2-8.9-1-13.2C100.5,80.8,99.8,81,99.9,81.6L99.9,81.6z
			"/>
		<path d="M70.1,67.1c9.1-0.6,18.7,0.2,25.1,7.5c0.3,0.4,0.9-0.2,0.6-0.6c-6.5-7.4-16.3-8.3-25.7-7.7C69.6,66.3,69.6,67.1,70.1,67.1
			z"/>
		<path d="M98.1,72.5c-0.7-0.9-1.9-1-2.8-0.4c0,0-0.1,0.1-0.1,0.1c-1.4,1.3-0.3,3.5,0.6,4.7c1.1,1.4,2.5,2.5,3.6,3.9
			c1.4,1.9,2.5,4,3.1,6.3c0.6,1.6,1.5,3.4,3.5,3.2s2.1-1.9,2.3-3.4c0.5-3.1,1.3-6.5,0.2-9.5c-1.9-4.9-7.7-5.7-12.3-4.9
			c-0.5,0.1-0.3,0.8,0.2,0.8c3.3-0.6,7.4-0.4,9.9,2.1c1.7,1.7,2,4.1,1.9,6.4c0,1.3,0,4.8-0.8,5.9c-0.5,0.7-3.8-0.4-4.2-1.2
			c-0.2-0.6-0.4-1.3-0.6-1.9c-0.4-1-0.9-2-1.6-2.9c-0.7-0.9-1.4-1.8-2.1-2.6c-0.5-0.5-1-1-1.5-1.6c-0.3-0.3-0.6-0.7-0.9-1.1
			c-1.2-1-0.8-2.1,1.1-3.3C97.8,73.5,98.4,72.9,98.1,72.5L98.1,72.5z"/>
		<path d="M78.4,57.9c-2.7,0.6-9.3,3.4-9.5,6.7c-0.1,1.4,1.3,1.7,2.4,1.9c1.9,0.3,3.8,0.4,5.7,0.3c3.1,0.1,6.2,0.5,9.2,1.4
			c1.7,0.4,4,1.4,4.8-0.5c0.7-1.4-0.6-4.3-1.3-5.6C87.4,57.3,83.2,57,78.4,57.9c-0.5,0.1-0.3,0.9,0.2,0.8c4.2-0.8,8.1-0.5,10.2,3.3
			c1.3,2.4,1.8,5.4-1.7,5.6c-1.6,0.1-3.8-1.2-5.4-1.4c-2.1-0.2-4.2-0.2-6.4-0.2c-0.9,0-4.2,0.2-4.6-0.4c-0.8-1,0.3-2.6,0.9-3.3
			c1.5-1.9,4.6-3.2,7-3.7C79.2,58.5,78.9,57.8,78.4,57.9z"/>
		<path d="M81.6,57.9c-0.1-0.8-0.3-2,0.3-2.7c0.3-0.4,1.2-0.6,1.5-0.2s0.1,1.2,0.1,1.7c0,0.5,0.4,0.8,0.8,0.8c0.5,0,0.5-0.7,0-0.8
			c-0.1,0,0-0.9,0-1c0-0.3,0-0.7-0.1-1c-0.3-0.6-1-0.9-1.6-0.8c-2,0.2-2,2.5-1.7,4C80.9,58.5,81.6,58.3,81.6,57.9L81.6,57.9z"/>
		<path d="M109,77.2c0.2-0.6,1.3-1.7,2-0.9c0.3,0.3,0.2,1.4-0.4,1.2s-0.7,0.7-0.2,0.8c1.3,0.3,2-1.4,1.3-2.4
			c-0.4-0.5-1.2-0.7-1.8-0.5c-0.8,0.2-1.4,0.9-1.7,1.6C108,77.5,108.8,77.7,109,77.2L109,77.2z"/>
		<path d="M88.2,60.7c2.1,0,4.1-0.7,5.8-2c0.6-0.5,1.2-1,1.6-1.7c1.3-0.5,2.7-0.2,3.7,0.7c1.7,1,3.2,2.2,4.5,3.7
			c2.7,3.5-0.9,5.4-0.5,8.8c0.3,2.2,1.9,4.1,3.3,5.8c0.3,0.4,0.9-0.2,0.6-0.6c-2.4-2.9-3.1-5.6-1.8-9.2c0.4-0.7,0.6-1.4,0.7-2.2
			c0-2.2-2.7-4-4.1-5.2s-3.8-3.5-5.8-3.2c-0.4,0.1-0.6,0.5-1,0.7c-0.6,0.3-1.3,1.4-1.8,1.8c-1.5,1.2-3.3,1.8-5.2,1.8
			C87.7,59.9,87.7,60.7,88.2,60.7L88.2,60.7z"/>
		<path d="M78.5,89.3c-0.6,0.4-1.2,1-0.8,1.8c0.4,0.7,1.2,1,2,0.8c0.7-0.4,0.9-1.2,0.6-1.9C80,89,79.2,88.8,78.5,89.3
			c-0.2,0.1-0.2,0.4-0.1,0.6c0.1,0.1,0.3,0.2,0.4,0.1c0.2-0.1,0.4-0.3,0.5-0.2s0.2,0.3,0.2,0.5c0,0.3,0,0.7-0.3,0.8
			s-0.9-0.2-0.9-0.5s0.4-0.6,0.6-0.7C79.3,89.7,78.9,89.1,78.5,89.3z"/>
		<path d="M79.4,88.5c-0.2-4.4-1.6-8.6-3.9-12.3L75,76.8l1,0.6c0.2,0.1,0.4,0,0.5-0.2c0-0.1,0.1-0.2,0-0.3c-0.3-1.7-0.9-3.1-2.8-2.7
			c-0.2,0.1-0.3,0.3-0.3,0.5c0.2,0.9-0.9,1.8-0.6,2.8c0.1,0.3,0.5,0.4,0.7,0.6c0.7,0.6,1.3,1.2,2,1.9c0.5,1,0.9,2.1,1.2,3.2l2.4,6.4
			c0.2,0.5,0.9,0.3,0.8-0.2L77.6,83c-0.5-1.3-1-3.9-2-5c0.1,0.1-1.5-1.1-1.3-0.8c-0.2-0.6-0.2-1.2,0.1-1.7c0.1-0.1,0.1-0.3,0.1-0.4
			c-0.1-0.9,0.3-0.3,1.4,2l0.6-0.4l-1.1-0.6c-0.2-0.1-0.4,0-0.5,0.2c-0.1,0.1-0.1,0.3,0,0.4c2.2,3.6,3.5,7.7,3.8,11.9
			C78.6,89,79.4,89,79.4,88.5L79.4,88.5z"/>
		<path d="M81.1,90.3c3.2-0.4,6.4-0.3,9.6,0.2c0.2,0,0.4-0.1,0.5-0.3c0-0.1,0-0.3-0.1-0.4l-1-1.2l-0.4,0.7c0.3,1.5,0,2-1,1.5
			c-0.5-0.2-1-0.3-1.5-0.4c-0.8-0.2-1.6-0.3-2.5-0.5c-1.6-0.2-3.3-0.3-4.9-0.3c-0.2,0-0.4,0.2-0.3,0.5c0,0.2,0.2,0.3,0.3,0.3
			c2.1-0.1,4.2,0.1,6.3,0.5c1.2,0.2,3.3,1.5,4.4,0.9c1.7-0.8,0.8-2.9-0.7-3.2c-0.2,0-0.4,0.1-0.5,0.3c0,0.1,0,0.3,0.1,0.4l1,1.2
			l0.4-0.7c-3.2-0.5-6.6-0.6-9.8-0.2C80.5,89.6,80.5,90.4,81.1,90.3L81.1,90.3z"/>
		<path d="M57.2,91.2c-2.8,1-5.8,1.3-8.8,1c-0.9-0.1-1.7,0-1.5,1.2c0.2,1.3,1.7,1.3,2.7,1.2c2.8-0.2,5.7-0.7,8.5-1.1
			c0.5-0.1,0.5-0.8,0-0.8l-5.4,0.7c-0.7,0.1-4.9,1-4.4-0.4c0,0.1,4.2,0.1,4.6,0c1.5-0.2,3-0.5,4.5-1C57.8,91.9,57.6,91.1,57.2,91.2
			L57.2,91.2z"/>
		<path d="M48.5,95.7c0,4.7,2.9,13.1,8.9,13.2c2.3,0,3.4-1.8,4.9-3.2c4.2-3.9,10-5.8,15.3-7.7c5.2-1.9,10.7-2.8,16.2-2.8
			c3.6,0,7.4,0.1,10.8-1.4c4.8-2.1,7.7-7.3,4.7-12.1c-0.3-0.4-1,0-0.7,0.4c3.1,4.8-0.8,9.9-5.6,11.4c-3.2,1-6.7,0.8-10.1,0.8
			c-5.6,0-11.2,1.1-16.4,3.1c-4.4,1.6-9.3,3.2-13,6c-2.8,2.2-5.1,5.9-9.3,2.9c-3.4-2.4-4.8-6.9-4.8-10.9c0-0.2-0.2-0.4-0.5-0.3
			C48.6,95.3,48.5,95.5,48.5,95.7L48.5,95.7z"/>
		<path d="M60.4,56.6l1.4-2.7c0.6-1.1,1.2-2.7,2.1-0.7c0.5,1.2-0.2,1.8,0.9,2.9c2.3,2.3,6.9,3,9.9,3.8c0.2,0,0.4-0.1,0.4-0.4
			c0-0.2-0.1-0.3-0.2-0.4c-2.6-0.7-6.4-1.2-8.6-2.9c-5.2-3.8-0.5-2-1.6-4.1c-0.3-0.5-0.2-0.9-0.8-1.2c-2.2-1-3.5,4.2-4.2,5.4
			C59.5,56.6,60.1,57,60.4,56.6z"/>
		<path d="M90.8,65.7c6.2,5.5,14.2,6.2,22.1,6.2c5.9,0,11.7,0,17.5,1.6c2.1,0.7,4.2,1.3,6.4,1.7c1.6,0.3,3.3-0.2,4.8,0.1
			c-10.3-1.9,1.7-0.2,1.5-0.5c0.6,0.7-2,2.5-2.6,3.1c-1.3,1.3-2.4,2.7-3.5,4.2c-2.7,4.2-4.5,8.9-7.1,13.1
			c-5.5,9-12.9,16.8-21.8,22.6c-2.8,1.9-7.1,3.3-9.2,6c-1.2,1.5-0.6,3-3.7,1.6c-0.7-0.3-1.1-1.4-2-1.8c-3.3-1.4-8.2,0.3-11.7,0.2
			c-6.5-0.2-12.9-1.3-19.1-3.2c-5.1-1.5-10.2-3.3-15.2-5.2c-5.6-2.1-11.4-4.1-16.1-7.9c-2.9-2.3-5.3-5.2-8.7-6.8
			c-1.8-0.7-3.6-1.2-5.5-1.6c-1-0.2-1.9-0.6-2.9-1c-1.2-0.3-2.1-1.2-2.3-2.5l0.7-0.3c0.3-0.7,3.5-2.6,4.1-3.2
			c1.2-1.4,2.2-2.9,3.2-4.5c3-4.8,6.6-9.2,10.5-13.3c8.2-8.4,18.2-14.8,29.1-19c0.5-0.2,0.3-0.9-0.2-0.8c-9.6,3.6-18.5,9-26.1,15.9
			c-3.7,3.3-7.1,7-10.1,11c-3.6,4.7-6.4,12-12.6,13.7c-0.2,0.1-0.3,0.3-0.3,0.5c0,0,0,0.1,0,0.1c3.4,5.1,11.1,4.3,15.8,8.1
			c2.5,2,4.6,4.3,7.3,6.1c3.3,1.9,6.7,3.5,10.3,4.8c8.2,3.2,16.4,6.3,25,8.2c4.3,1,8.6,1.5,12.9,1.6c1.8,0,3.7,0,5.6-0.2
			c4-0.3,3.6-0.7,8.2,2.3c1.3,0.9,1.1,1.3,2.5,0.9c0.3-0.1,0.6-0.8,0.7-0.9c0.4-1,0.9-1.9,1.4-2.9c1-0.8,2.1-1.6,3.2-2.1
			c6-3.7,11.6-7.4,16.6-12.3c5.3-5.3,9.8-11.4,13.2-18c1.7-3.2,3.1-6.6,5.2-9.6s5.3-4.7,6.5-8.1c0.1-0.3-0.3-0.6-0.6-0.4
			c-5,2.8-9.9,0.2-14.9-1.1c-3.8-0.8-7.7-1.2-11.6-1.2c-9.1-0.1-18.8,0.5-26.1-6C91,64.8,90.4,65.3,90.8,65.7L90.8,65.7z"/>
		<path d="M14.1,99.4c7.2,7.6,13.9,17.3,23,22.8c6.2,3.7,13.1,6.3,19.8,8.9c6.3,2.6,12.9,4.3,19.6,5.1c25.7,2.3,50.7-12.3,60.8-36.1
			c3.1-7.3,4.9-15.1,5.2-23c0-0.2-0.2-0.4-0.5-0.3c-0.2,0-0.3,0.2-0.3,0.3c-0.8,27.3-20.1,51.3-46.9,57.1c-17.5,3.8-33-1.6-49-8.6
			c-5.8-2.5-11.2-5.4-15.6-10c-5.2-5.5-10.3-11.2-15.6-16.7C14.3,98.5,13.7,99,14.1,99.4z"/>
		<path d="M80.2,50c0.7,0.2,1.4-0.2,1.6-0.8c0-0.1,0.1-0.2,0.1-0.3c0-0.5-0.8-0.5-0.8,0c0,0.3-0.3,0.5-0.6,0.4c0,0-0.1,0-0.1,0
			C79.9,49.1,79.7,49.8,80.2,50z"/>
		<path d="M84.1,47c0.2,0.6,0.8,0.9,1.4,0.7c0.1,0,0.1-0.1,0.2-0.1c0.5-0.4,0.6-1.1,0.2-1.6c-0.1-0.1-0.1-0.1-0.2-0.2
			c-0.4-0.3-1,0.2-0.6,0.6s-0.2,0.8-0.4,0.4S83.8,46.5,84.1,47L84.1,47z"/>
		<path d="M88.8,43.1c-0.4,0.4-0.4,1-0.1,1.4c0.1,0.1,0.3,0.2,0.4,0.2c0.7-0.1,1.1-0.7,1.1-1.4c0-0.2-0.2-0.4-0.5-0.3
			c-0.2,0-0.3,0.2-0.3,0.3c0,0.3-0.2,0.6-0.5,0.6c0,0,0,0,0,0l0.4,0.2c-0.1-0.1-0.1-0.3,0-0.5C89.7,43.3,89.1,42.7,88.8,43.1z"/>
		<path d="M88.4,36.8c0.9-0.5,1.7-1,2.6-1.5c0.5-0.3,1.1-0.5,1.6-0.8c0.9-0.4,1.4-0.5,1.1,0.7c-0.4,1.1-0.8,2.2-1.4,3.2L90.7,42
			c-0.1,0.2,0,0.4,0.2,0.5c0.1,0,0.2,0.1,0.3,0c2.1-0.6,4.2-1.6,5.9-2.9c0.4-0.3,0-1-0.4-0.7c-1.7,1.3-3.7,2.3-5.7,2.9l0.4,0.6
			l2.6-5.8c0.3-0.6,1.4-2.2,0.9-3s-1.5-0.3-2.1,0c-1.7,0.7-3.3,1.5-4.8,2.5c-0.2,0.1-0.2,0.4,0,0.6C88.1,36.9,88.2,36.9,88.4,36.8
			L88.4,36.8z"/>
		<path d="M97.7,31.7c0.8-0.9,1.8-1.6,2.9-2.1c0.6-0.4,1.3-0.6,1.9-0.7c1.2,0.1,0.7,0.9,0.5,1.5c-0.4,1.2-1,2.3-1.7,3.4
			c-0.5,0.9-1,1.9-1.4,2.8c-1.3,3.7,4.7,0.3,5.8-0.1c0.5-0.2,0.3-1-0.2-0.8l-3.6,1.4l-1,0.4v-1.3c0.3-0.7,0.6-1.4,1-2.1l1.8-3.8
			c0.2-0.5,0.9-1.4,0.7-2c-0.9-2.4-6.5,1.8-7.4,2.7c-0.1,0.2-0.1,0.4,0.1,0.6C97.3,31.8,97.5,31.8,97.7,31.7L97.7,31.7z"/>
		<path d="M107.6,27c2.3-2.1,5.4-3.1,8.6-2.9l-0.3-0.7c-2.4,1.9-4.4,4.4-5.7,7.1c-0.1,0.2,0,0.4,0.2,0.5c0,0,0.1,0,0.1,0
			c1.9,0.5,3.9,0.2,5.6-0.8c0.2-0.1,0.2-0.4,0-0.6c-0.1-0.1-0.3-0.2-0.4-0.1c-1.5,0.9-3.3,1.2-5,0.8l0.2,0.6c1.3-2.7,3.2-5.1,5.6-7
			c0.3-0.2,0-0.7-0.3-0.7c-3.4-0.2-6.7,0.9-9.2,3.2C106.6,26.8,107.2,27.4,107.6,27L107.6,27z"/>
	</g>
</g>
</svg>
