<svg xmlns="http://www.w3.org/2000/svg" viewBox="0 0 708.09 325.89"><defs><style>.cls-1{fill:#f5bc8e;}.cls-2{fill:#2d304d;}.cls-3{fill:#2c6899;}.cls-4{fill:#b85d3f;}.cls-5{fill:#2e6eac;}.cls-6{fill:#fff;}.cls-7{fill:#1c3951;}.cls-8{fill:#88b9e2;}.cls-9{fill:#e8e6e6;}.cls-10{fill:#6b3f2d;}.cls-11{fill:#4eadaf;}.cls-12{fill:#66cacc;}.cls-13{fill:#c69b7b;}.cls-14{fill:#f9fafb;}.cls-15{fill:#efbc90;}.cls-16{fill:#f7a354;}</style></defs><title>Asset 5</title><g id="Layer_2" data-name="Layer 2"><g id="bitesize"><path class="cls-1" d="M621.52,125c0-.2-1.34-7.4-1.34-7.4s-12.95-13.92-14.34-15c-2.74-5.39-4.93-11-7.17-16.65-.49-1.22-1.71-5.74-3.53-8.28.35-.67.66-1.35.94-2a8.92,8.92,0,0,0,.94-2.81v0a7.15,7.15,0,0,0,.25-1.47,2.72,2.72,0,0,0,0-1.21c-.32-1.16-2.07-1.3-2.17,0a.67.67,0,0,0,.17.52,7.32,7.32,0,0,1-.4,1.79,11,11,0,0,0-1.74-5.15,2.17,2.17,0,0,0-2.21-.79,17.88,17.88,0,0,1-3.27-.3,3,3,0,0,0-1.1-.11c-2.87.49-.84,3.3.25,4.39.9.9,2.28,6.84,3.56,9,.11.72.32,1.42.45,2L593,91.32q1.21,5.31,2.41,10.62c.66,2.91,1.31,5.71,3,8.22a1.22,1.22,0,0,0,.47.42,39.89,39.89,0,0,0,3.71,4.48q7.6,8.44,15.21,16.87c.77.85,1.82.16,2-.74a2,2,0,0,0,1.34-.15C623.41,130,622.86,127.47,621.52,125Zm-2.44,2.66a1.31,1.31,0,0,0,.28-.08,1.14,1.14,0,0,0,.59.12,2.89,2.89,0,0,1,0,.73A4.25,4.25,0,0,1,619.08,127.63Z"/><path class="cls-1" d="M645.46,132.87a2,2,0,0,0,1.34-.07c.32.85,1.47,1.36,2.09.4q6.1-9.57,12.19-19.16a39.9,39.9,0,0,0,2.92-5,1.22,1.22,0,0,0,.4-.5c1.23-2.76,1.4-5.62,1.57-8.61q.31-5.44.61-10.88l.56-10.07c0-.59.11-1.32.11-2,.89-2.37,1.27-8.45,2-9.49.89-1.26-2.93-7.3-4.06-7.16-.94.12-2.21,4.13-2.71,5.06a11,11,0,0,0-.86,5.37,7.32,7.32,0,0,1-.69-1.7.67.67,0,0,0,.08-.54c-.32-1.31-2-.88-2.15.32a2.72,2.72,0,0,0,.2,1.19,7.16,7.16,0,0,0,.49,1.41l0,0A8.92,8.92,0,0,0,661,74c.39.63.81,1.25,1.27,1.85-1.38,2.81-1.83,7.47-2.1,8.75-1.28,5.92-2.5,11.84-4.3,17.61-1.19,1.3-11.64,17.18-11.64,17.18s-.16,7.33-.09,7.52C643.19,129.61,643.07,132.2,645.46,132.87Zm.75-2.83a2.89,2.89,0,0,1-.11-.72,1.14,1.14,0,0,0,.56-.21,1.32,1.32,0,0,0,.29,0A4.25,4.25,0,0,1,646.21,130Z"/><path class="cls-1" d="M611.48,271l0-.33a4.13,4.13,0,0,1-.06-.53c0-.35-.85-29.28-.51-35.65.56-10.43,1.9-23.75,7.67-32.92a2.36,2.36,0,0,1,3.44-.74,5.22,5.22,0,0,1,6.34,1,2.5,2.5,0,0,1,1.33,2.38,7.39,7.39,0,0,1-.06,3.8,2,2,0,0,1,1.42,2.75c-3.46,9.41-7.79,18.63-9.8,28.48-1.84,9-4,31.34-5.32,32.88C614.77,274,611.19,273.73,611.48,271Z"/><path class="cls-2" d="M616.52,270.71c0-.64.08-1.09-.55-1.17a16.23,16.23,0,0,0-6.1.06c-2.15.57-3.76,1.22-6,1.83-1.7.46-4.22,1.3-5,3.07a2.41,2.41,0,0,0,.48,2.63c1.14,1.3,4,.84,5.45.85,2.61,0,5.31.23,7.91,0C617.23,277.67,616.33,274,616.52,270.71Z"/><path class="cls-1" d="M675.59,264.58l-.14-.3a4.13,4.13,0,0,1-.33-.43A115.65,115.65,0,0,1,667.6,252c-4.9-9.22,2.64-13.19,6-3.71,3.07,8.67,6.76,12.85,6.39,14.86C680,265.47,676.73,267,675.59,264.58Z"/><path class="cls-2" d="M679.74,261.71c-.3-.57-.49-1-1.07-.72a16.22,16.22,0,0,0-5.2,3.2c-1.55,1.59-2.59,3-4.24,4.69-1.22,1.27-2.95,3.29-2.66,5.19a2.41,2.41,0,0,0,1.77,2c1.65.53,3.85-1.33,5.11-2.08,2.25-1.33,4.67-2.54,6.8-4.06C683.93,267.31,681.3,264.67,679.74,261.71Z"/><path class="cls-1" d="M642.4,91.71c-.59-5-4.29-9.92-9.63-10.35-11.62-.93-15.49,16.87-11.44,25.78a31.31,31.31,0,0,0,2.08,4.5c2.08,3,10.81,2.37,13.92-2.14C640.64,104.68,643.09,97.58,642.4,91.71Z"/><path class="cls-1" d="M650.18,152.44c.56-6.36,1.28-17.53,1-23.92-.24-5.1-6-10.49-6-10.49l-7.16-.3c.19-4.14.13-8.27-.09-12.42-.13-2.5-3.84-2.66-4.67-.62a2.67,2.67,0,0,0-3,1.13,2.07,2.07,0,0,0-2.81,1.95q-.13,4.77-.24,9.53l-.59,0a2.67,2.67,0,0,0-.62.05c-4.2-.15-9.1-.31-11.24,3.92s-1.17,10.36-1.17,15a176.9,176.9,0,0,0,.7,18.06c.29,2.79.63,5.57.88,8.36q.09,3.31.38,6.61c0,1.62,0,3.23-.16,4.86a2.39,2.39,0,0,0,.43,1.61,3.33,3.33,0,0,0,1,2.32l0,.23a2.44,2.44,0,0,0,4.33,1.09c5.92.51,12.49,1.49,18.32.65,2.5-.36,6.52-2.15,6.95-4.75a2.63,2.63,0,0,0,1.18-1.64C649.34,166.78,649.56,159.53,650.18,152.44Z"/><path class="cls-3" d="M676.68,254.57c-.75-4.22-25.62-77.23-28-81-1.17-1.84-1.4-8.12-4.24-7.75a2.14,2.14,0,0,0-2,2.65l0,.15,0,.09a2.59,2.59,0,0,0-.87.54,2.15,2.15,0,0,0-3.07.45c-1.21.17-2.31,1.19-1.73,2.53l.23.53a2,2,0,0,0-1.5,3l.42.87-.13,0a1.82,1.82,0,0,0-.52-.66,2.2,2.2,0,0,0-3.8-.77,2.26,2.26,0,0,0-2.61-1.17,2.07,2.07,0,0,0-3.38-.65,20.12,20.12,0,0,0-3,4c.11-.62.22-1.25.34-1.87.48-2.61-3.57-3.73-4.06-1.1-2.35,12.62-4.25,25.3-5.95,38-1.72,12.91-3.42,51.45-3.42,51.45s7.26,2.34,8.43-1.17c4.16-12.4,11.52-47.51,18.79-62.44,3.4,9.34,30.11,49.23,32.51,56.65C669.78,258.89,677,256.19,676.68,254.57Z"/><path class="cls-4" d="M645.41,90.56a3.28,3.28,0,0,0-1.31-1.65,3.65,3.65,0,0,0-.25-3.94c-1-1.56-2.53-2.17-4.2-2.7a25.64,25.64,0,0,1-4.85-2.09c-.57-.32-.88-.53-1.22-.68a7.67,7.67,0,0,0-7.13-2.15,6.44,6.44,0,0,0-4.73,4.3c-.13.45-.14.93-.23,1.38-.32,1.59.26.64-.67,1.28s-1.79.49-2.69,1.45c-3.44,3.63.51,8.3,4.79,7.31,1.29-.3,2.47-1.13,3.75-1.37,1.91-.36,2.64.54,4.06,1.25,2.6,1.29,4.48-1.43,6.63-.58.78.31,1.17,1.51,1.56,2.89.8,2.81-2.55,7,.23,9.29a1.55,1.55,0,0,0,1.56.2c1.45-.64,2-2.12,2.15-3.77.69-1.92,1.38-3.85,2.06-5.77C645.44,93.72,646,92.11,645.41,90.56Z"/><path class="cls-5" d="M659.38,106.7c-1.58-1-3.12-1.86-4.6-2.63q-1.68,2-3.37,4.28a101.64,101.64,0,0,0-5.89,8.83,16.83,16.83,0,0,1-2.66.72,2.55,2.55,0,0,0-1.93-.08,2.58,2.58,0,0,0-1.22,1.47c-.47,1.18-2.31,3.62-7.76,9-3.23-6.19-5.93-10.52-6.58-10.78a4.11,4.11,0,0,0-.72-.21,3.63,3.63,0,0,0-1.12,0c-2.7-1.41-5.34-2.89-7.89-4.53l-6-6.37c-1.25,1.19-2.62,2.41-4.13,3.64-1.81,1.49-3.58,2.8-5.26,3.94,1,1.79,2.37,4.37,4.09,7.49,2.26,4.11,2.91,5,3.44,6.05,1.46,3,3.09,5.77,5.78,7.62,0,.42,0,.84,0,1.24a176.9,176.9,0,0,0,.7,18.06c.29,2.79.75,5.57.88,8.36.48,10.41-1.81,15,.17,17.14.06.07,4.08.33,8.94.49.63.12,10.64.15,15,1.14,3.41.78,6.79,2.32,10.3,1,5.49-2.07,4.44-7.8,4-13-.3-3.3-.3-6.66-.81-9.89-.3-1.95-.72-5.09-1.07-8a1.16,1.16,0,0,0,.27-1,60.66,60.66,0,0,1,8.73-32,55.16,55.16,0,0,1,5.37-7.3A72.82,72.82,0,0,0,659.38,106.7Z"/><path class="cls-6" d="M700.39,45.86a7.71,7.71,0,0,1,5.08,1.89,7.55,7.55,0,0,1,1.16,1.45c2.15,3.55.74,11.77.58,12.63a5.7,5.7,0,0,1-6.61,5.88L627.44,71.5a62.39,62.39,0,0,1-9.22-.36c-5.81-.66-8.78-1.83-14.23-2.9a101.43,101.43,0,0,0-13.72-1.52c-14-1-20.29.06-42.32-.07-2.9,0-5.24-.05-6.61-.07a2.3,2.3,0,0,1-1.89-.87,2.35,2.35,0,0,1,.29-2.61,2.86,2.86,0,0,1,2.76-1c1.87-.06,4.91-.17,8.64-.36,4.54-.23,20.18-1.1,40.15-4.14,11.83-1.8,13.89-2.64,15.61-3.56a33,33,0,0,1,9-3.63,29.85,29.85,0,0,1,5.37-.73C629.36,49.26,661.18,47.72,700.39,45.86Z"/><rect class="cls-7" x="643.99" y="28.46" width="13.92" height="60.99" rx="5.84" ry="5.84" transform="translate(694.52 -593.2) rotate(88.65)"/><circle class="cls-4" cx="673.24" cy="58.06" r="4.27" transform="translate(541.28 720.8) rotate(-83.67)"/><rect class="cls-8" x="643.76" y="45.1" width="10.23" height="28.58" rx="2.68" ry="2.68" transform="translate(692.93 -590.7) rotate(88.65)"/><path class="cls-7" d="M547.63,62a40.73,40.73,0,0,0-5.92.09,3,3,0,0,0-2,.75,2.32,2.32,0,0,0-.66,2.24,2.75,2.75,0,0,0,2,1.52c1,.33,1.7.12,3.29,0a24.57,24.57,0,0,1,3.29,0Z"/><path class="cls-7" d="M687.89,46.18l.18,21.52a28,28,0,0,0,11.19-.41c3.08-.76,5.68-1.44,7.32-3.78,1.22-1.75,1.31-3.59,1.46-6.45.11-2.2.25-4.77-1.15-7.2a9,9,0,0,0-3.21-3.33c-1.2-.7-2.69-1.17-9.19-.86C692.83,45.76,690.58,45.9,687.89,46.18Z"/><path class="cls-4" d="M112.41,106.62c-8.93-.06-18.86-.13-26.58,5.16C75.26,119,76.24,131.1,72.28,164.93c-2.43,20.74-8.34,61.52-3.32,84.91.76,3.53,2.33,9.29,7.4,13.73,2.31,2,5.55,4,16.93,6.17,14.37,2.8,25,4.75,38,1.24,5-1.35,9.29-2.56,13.37-6.2,6.69-6,7.77-14.68,8.28-19.26,3-26.5-.52-57.15-1.32-64.61a378.22,378.22,0,0,1-2-48.33v-.16c.47-7.9-5.63-14.37-7.67-16.35l-.5-.47C136,110.51,125.31,106.7,112.41,106.62Z"/><path class="cls-9" d="M111.74,120.68c12.46.38,27.81.84,34.11-9.43,5-8.23,1.47-18.76,0-22.5A81.89,81.89,0,0,1,83.44,88c-.68,1.77-5.63,15.28,1.45,24.67C90.43,120,99.89,120.32,111.74,120.68Z"/><path class="cls-6" d="M84.17,88.12c-.18,3.34,15.14,8.54,30.11,8.61,15.31.08,31-5.21,30.84-8.61-.2-3.75-19.73-5.27-31.58-5.17C103.31,83,84.37,84.45,84.17,88.12Z"/><path class="cls-6" d="M84.09,144.13a3.78,3.78,0,0,1,2.16-.11c8.09,1.6,16.41,1.75,24.6,2.75,18.21,2.21,23.91-3.85,29,1.28,3.63,3.65.35,7,1.12,24,.74,16.3,4.3,25.46-1.57,31a6.91,6.91,0,0,1-3.54,2.22,83.71,83.71,0,0,1-29.25,1.62c-22.63.18-27.85-7.43-29.21-10-3.25-6.17,2-9.31,3-29C81,156.12,79.77,145.8,84.09,144.13Z"/><path class="cls-10" d="M61,136.26c5.29-4.08,9.44-9.21,13.55-14.42a2,2,0,0,1,.3-.3c.7-2.45-.14-3.25.35-4.58s1-1.45,2.33-.76a2.19,2.19,0,0,1,.78.69,12.08,12.08,0,0,1,1.77-3.09c1.13-1.41,3.15-3.31,5-2.17a2.26,2.26,0,0,1,.34,2.58c-.87,2.27-1,5.13-2.84,6.66-2.26,1.87-2.76,1.47-4.44,4.35-1.86,3.17-15.85,27.62-18.81,28-1.35.15-9.87-2.34-9.38-4C51.71,143.32,56.37,139.84,61,136.26Z"/><polygon class="cls-10" points="65.06 275.05 70.14 274.27 69.05 244.8 58.98 245.56 65.06 275.05"/><path class="cls-2" d="M64.67,273.78c-.09-.48-.16-.8.3-.92a12.16,12.16,0,0,1,4.54-.53c1.65.22,2.91.55,4.67.79,1.3.18,3.26.57,4,1.82a1.81,1.81,0,0,1-.11,2c-.73,1.08-2.88,1-4,1.15-1.94.26-3.92.67-5.88.77C64.8,279,65.13,276.24,64.67,273.78Z"/><polygon class="cls-10" points="0.83 268.72 5.69 270.41 18.51 243.86 9.26 239.81 0.83 268.72"/><path class="cls-2" d="M1.08,267.42c.15-.46.23-.79.69-.67A12.15,12.15,0,0,1,6,268.4c1.35,1,2.31,1.85,3.75,2.89,1.07.77,2.61,2,2.66,3.47a1.81,1.81,0,0,1-1,1.71c-1.15.61-3-.46-4-.84-1.84-.68-3.78-1.25-5.55-2.08C-1.26,272.11.33,269.8,1.08,267.42Z"/><path class="cls-11" d="M15.57,172.62c1-2.7,5.41-1.57,5.42,1.13v.58A3.29,3.29,0,0,1,24.1,177c.13.82.23,1.64.33,2.46l.38.13c0-.89,0-1.79.09-2.7.15-1.87,2-2.9,3.82-2.82l-.39-.83c-1.38-3,3.48-5.27,5.12-2.49,1-1.45,3-2.11,4.32-.6A3.1,3.1,0,0,1,41,167.74c.71-2.48,4.55-3.95,6.55-1.16C58,181.14,65.41,197,67.66,214.89c1.23,9.78,2,19.63,2.93,29.43l.73,7.53c.2,2.07.85,8.05-1.1,8.89a11.18,11.18,0,0,1-7.55,1A3.56,3.56,0,0,1,60,259.4c-3.73-14.4-9.56-37.2-17.64-49.87-2.37-3.72-5-7.36-7.41-11.06-1.43,5.89-3.68,11.84-5.44,17.62C26.22,226.82,19,250.24,14.2,260.38c-1.9,4-2.69,2.09-7.22-.53-4.79-2.78-4.18-2.75-3.33-6.92,2.36-11.54,7.29-29.86,7.73-41.67C11.89,198.21,11.09,185.11,15.57,172.62Z"/><rect class="cls-10" x="26.68" y="98.8" width="9.81" height="14.96" transform="translate(30.71 217.15) rotate(-163)"/><path class="cls-10" d="M32.11,78.9a5.84,5.84,0,0,1,3.16-.34,3.19,3.19,0,0,1,4.49-1.69c3.63,1.76,4.28,5.78,5,9.4.75,3.89,1.42,8.63.52,12.55-.84,3.66-3.75,6.85-7.75,6.61-3.77-.23-6.68-3.13-8.33-6.32A20.9,20.9,0,0,1,27.38,88C27.62,84.45,28.29,80.28,32.11,78.9Z"/><path class="cls-10" d="M63.18,120.49c4.47-5,9.91-8.7,15.44-12.38a2,2,0,0,0,.32-.27c2.5-.51,3.23.4,4.59,0s1.52-.87.94-2.26a2.19,2.19,0,0,0-.63-.83,12.08,12.08,0,0,0,3.22-1.52c1.5-1,3.55-2.88,2.56-4.84a2.26,2.26,0,0,0-2.55-.54c-2.33.69-5.19.6-6.86,2.32-2,2.1-1.68,2.63-4.68,4.09-3.3,1.61-28.77,13.65-29.33,16.57-.26,1.34,1.56,10,3.24,9.67C55.42,129.21,59.25,124.84,63.18,120.49Z"/><path class="cls-12" d="M14.92,118.9c2.61-5.28,6.68-9.3,12.6-10.39,2.55-.47,12.12.9,20.14,9.13,2.72,2.79,10.89,16.46,11.89,20.17,1.09,4.09,1.29,8.58,1.84,12.77.35,2.61-3,4.85-5.24,3.44-1.53-1-3.13-1.88-4.71-2.85.35,2.06.64,4.12.89,6.19.66,5.38,1.8,11.4.45,16.75-.64,2.55-2.47,3.72-5,4-3.08.41-6.21.59-9.3.88-6,.57-12.2,1.72-18.18.89-4.92-.69-10.16-3.42-11.08-8.73-.46-2.66-.1-5.52,0-8.2q.18-4.66.46-9.31c.38-6.22.87-12.43,1.42-18.63C11.64,129.36,12.35,124.1,14.92,118.9Z"/><path class="cls-2" d="M29.17,75.53c4.77-1.28,13-.27,13.57,6.21.14,1.62-1.56,6.19-2.51,7.26a5.45,5.45,0,0,1-2.72,1.38C35.57,91,35.07,91.91,35,94c0,2.36,0,5.06-2.06,6.64-1.08.81-4.81,2.34-5.76,2.15-4.64-.92-9.9-9.05-8.85-14.76S23.52,77,29.17,75.53Z"/><path class="cls-13" d="M367.45,33.17c-20.32-.95-35.39,1-58.94,4.09-19.58,2.55-29.46,3.9-34.24,7.38-15.33,11.17-10.35,30.94-14.34,71.68-3,30.8-15.17,114.47-12.71,132.92a30.34,30.34,0,0,0,5.2,13.33,28.41,28.41,0,0,0,6.59,5.91c14.92,9.41,52.53,5.53,52.53,5.53,18.6-1.92,32.47-2.24,60.21-2.87,37.24-.85,52.13,1.9,60.21-8.6,5.19-6.75,4.63-15.14,4.3-20.07-2.47-37.27-4-74.6-7.17-111.82-4.81-57.21,6.81-73.93-8.6-87.45C411.39,35.22,396.74,34.54,367.45,33.17Z"/><path class="cls-9" d="M348.82.19c-5.5,1-9.09,5.8-10.12,9.77-1,3.8.88,4.95-.09,6.88-3.08,6.12-22.92-2.91-32.87,4.64-8.51,6.46-9.48,24.83-1.72,31,8.35,6.59,20.07-6.79,46-6.83,23.93,0,34.26,11.36,42.39,4.93,7.5-5.93,7.76-22.41.37-28.84-9.39-8.16-31.17-.15-32.72-5.14-.5-1.63,1.68-2.88,1.52-6.9a10.18,10.18,0,0,0-2.76-6.85C355-.9,349.33.1,348.82.19Z"/><path class="cls-14" d="M344.55,10.89a5.75,5.75,0,1,0,11.4,0,5.76,5.76,0,0,0-11.4,0Z"/><path class="cls-14" d="M273.93,63.49c21,1.62,43.43,2.71,67,3.05,25.59.37,49.8-.19,72.44-1.38q3.51,34.69,5.91,71.42c2.22,34.46,3.46,67.74,3.9,99.74a439.77,439.77,0,0,1-85,10.22,441,441,0,0,1-67.78-3.72,435.08,435.08,0,0,1-4.59-70.88c0-2.8.23-11.9,2-37C269.2,114.94,271.14,90.87,273.93,63.49Z"/><path class="cls-6" d="M280.86,59.19c19.33,1.5,39.9,2.52,61.59,2.83,23.51.34,45.75-.2,66.55-1.32q3.21,32.47,5.4,66.85c2,32.25,3.15,63.4,3.54,93.35a397.09,397.09,0,0,1-78.08,9.6A397.76,397.76,0,0,1,277.6,227a414.67,414.67,0,0,1-4.19-66.34c0-2.62.22-11.14,1.81-34.64C276.5,107.35,278.29,84.81,280.86,59.19Z"/><path class="cls-15" d="M491.73,210.7c-.07-.08.15,9.94.08,9.87l-.08-.2a3.24,3.24,0,0,0-1.47-3.68,3.39,3.39,0,0,0-4.55,1.19l-.16.23a3.59,3.59,0,0,0-1.24.67,3.41,3.41,0,0,0-5.31.47l-.71,1c-.22-1.81-2.35-3.06-4.15-2.8a3.23,3.23,0,0,0-.33-.53l.08-.72c.43-3.69-5.91-4.58-6.54-.88-2,12.05-11.08,33.28-12.6,39.42-2.36,9.59,9.48,33.81,12.51,50.15,0,1.18,4.63.35,4.62-.25h0c.1-1.07-4.63-39.25-6.45-44.68.82-1,10.47-15.07,12.92-18.59l.44-.63c1.73,19.12,9,71.14,10.06,78.07.24,1.61,0,1.48,1.46,1.26,1.62-.24,2.93-.35,2.92-2,0-2.17,1.89-56.56,2.12-80.23C495.42,232,495.9,215.37,491.73,210.7Z"/><path class="cls-1" d="M460.67,205.3a16,16,0,0,1-2.45-1.22q-.41-.56-.79-1.14a.83.83,0,0,0,.07-.46,1,1,0,0,0,.41-1.13l.11.09c.88.76,2.16-.51,1.28-1.28l-.56-.5.63.3c.89.42,1.88-.66,1.1-1.43-1.34-1.32-.53-.8-1.93-2-2.42-.91-4.92-2.61-5.49-4.73a5.66,5.66,0,0,0,1.07-4,3,3,0,0,0-2.39-2.44c-3.18-.44-3.17,6.27-3.15,6.34-.27,2.3,4.35,10.53,4.8,11.2,1.73,2.52,4,4.71,7.27,4.2C461.66,206.9,461.4,205.59,460.67,205.3Z"/><path class="cls-1" d="M363.21,253.71c-.06-.62,4.82-17.6,4.82-17.62-.4-3.1-.56,12.27.7,14.63a4,4,0,0,1,2.78,1.22c1.55-.59,2.38-2,2.5.15,1.17,21.09-.2,39.63-1.62,65.4-.17,3.12-5,2.63-5.38-.41C364.86,299,363.49,256.72,363.21,253.71Z"/><path class="cls-2" d="M373,319.54c.12,1.15.76,4.77-.43,5.38a8.14,8.14,0,0,1-3.49.42c-3.14-.22-7-1.46-7-3.31-.05-2.22,1.86-3,5-4.53.78-.39,5.63.14,5.63.14l.36,1.89Z"/><path class="cls-1" d="M389,238.28c0-.62-6.18-17.17-6.17-17.2.16-3.12,1.51,12.19.44,14.64a4,4,0,0,0-2.68,1.43c-1.6-.46-2.53-1.81-2.48.34.48,21.11,3.28,39.5,6.7,65.07.42,3.1,5.21,2.23,5.33-.83C390.92,283.6,389,241.3,389,238.28Z"/><path class="cls-5" d="M393.65,196.93c-2.64-4-1-2.36-2.91-2.47a3.47,3.47,0,0,0-3.28-1.48c-1.69.25-18.64-6.12-19.39-6.33-1.58-.43-1.79,8.48-2.82,10-6.15,8.89-7.13,33.51-9.23,47-1,6.65-2.56,26.77-3,33.55-.2,3.24-.75,7.1,2.13,9.35,2.29,1.8,5.83,2.33,8.61,3q2.41.55,4.85.94c1.74.28,3.58.62,5.2-.3,3.21-1.81,2.73-6.46,3-9.61l.34-3.82a55.94,55.94,0,0,0,6.1.91c3,.15,11-.34,13.19-2.74,1.87-2.06-.52-17.06-.58-24C395.75,237.38,398.48,206.31,393.65,196.93Z"/><path class="cls-1" d="M362.83,170a3.14,3.14,0,0,0-2.81.58l-.32,0c-3.09-.36-1.77-7-3.09-4.72s-5.36,14.15-6.34,16.46c-1.76,4.12-5.18,11.54.1,14.49s7.39-5.92,9.13-9.67c2.18-4.69,4.41-9.77,5-14.9C364.61,170.73,364.13,170.32,362.83,170Z"/><path class="cls-1" d="M400.37,157.88c-1.82-3-4.25,9.29-4.45,12.05a2.22,2.22,0,0,0-.86.39c-2,1.57-3.17-1.12-2.38.79,2.23,5.46,6,19.09,8.17,23,1.63,3,7.32,1.3,7.45-1.85C408.64,184,404.68,165,400.37,157.88Z"/><path class="cls-15" d="M404,171.13a44.27,44.27,0,0,0-2.88-12c-1.33-3-6.78-6.54-9.85-8.07-2.85-1.42-2.4-1.42-5.53-1.24a15.71,15.71,0,0,0-3.67.61,3.15,3.15,0,0,0-1.66,0,3,3,0,0,0-.5.19,3.66,3.66,0,0,0-2.86-.55,30.54,30.54,0,0,0-22.61,21.07,3.36,3.36,0,0,0,2.32,4.09l5.76.9c.17,0,1.32.42,1.51.43.46,5.5.46,12.39,1.21,20,.15,1.47,7.84,1.84,14,1.81,3.14,0,11.45-.54,14.45-1.51-.94,1.21,1.61-14.41,1.34-21.57-.13-3.42,5-.67,6.55-1A3.34,3.34,0,0,0,404,171.13Z"/><path class="cls-1" d="M481.65,137c-2.28-2-5.38-1.54-8.22-.06a33.44,33.44,0,0,0-4.36,3.4c-.8.9-1.6,7.85-.2,12.73.66,2.3,1.07,5.4,2.92,6.46,2.42,1.38,7,.9,8,.17a6.94,6.94,0,0,0,1.38-1.25c1-1.1,3.64-9.43,3.71-12.41C484.95,142.78,484.24,139.3,481.65,137Z"/><path class="cls-2" d="M388.54,301c-3.43-1.13-4.74,1.46-4.91,3.11-.22,2.15.5,4.53.87,6.64.32,1.87.71,5,2.84,5.74,2.35.81,3.48-1.71,3.75-3.53C391.44,310.59,392.79,302.45,388.54,301Z"/><path class="cls-1" d="M483.15,150.54c-.44-2-8.34,2.94-8.26,3.68.37,3.33,3.06,12.17,3.23,12.6.65,1.62,8.11-.23,7.79-2.12Q484.68,157.59,483.15,150.54Z"/><path class="cls-14" d="M396.19,154a3.13,3.13,0,0,1-.18,1.08c-2.45,6.73-29.85,4.75-30.49.65a1.07,1.07,0,0,1,0-.45L362,157.56a48.07,48.07,0,0,0-5,6,58.9,58.9,0,0,0-5,9c-3.19,6.73-4.76,10.13-4,12,1.57,3.85,8,5.93,11,4,1.11-.72,1.74-2.15,3-5,1.36-3.07,1.7-5,2-5s0,3.86,0,8a60.88,60.88,0,0,0,1,11c1.64.25,4.06.62,7,1a80.67,80.67,0,0,0,10,1,29.57,29.57,0,0,0,11.65-2.63c1.07-14.07,1.67-17.6,2-17.59s-.4,4.69,2.33,7.21,8.07,2.44,10,0a2.82,2.82,0,0,0,.4-.71c1.52-3.67-1.16-9-3.4-16.29-.93-3-2-6-3-9a10,10,0,0,0-3-5A8.43,8.43,0,0,0,396.19,154Z"/><path class="cls-11" d="M472.14,242.89a2.13,2.13,0,0,0-1.06-.18,2,2,0,0,0-1-.72,1.85,1.85,0,0,0-1.45-1.08,2,2,0,0,0-1.74-1.31,2.3,2.3,0,0,0-1.3-1.41q.42-2.33.66-4.7c.2-2.06-2.7-2.51-3.66-1-1.58,2.5-2.76,5.45-5.4,14.8-2.06,7.31-2.69,6.65-3.22,10.26-.29,2-.58,5.49,2,16,3.06,12.46,4.68,18.72,9,20,1.5.44,4.42.67,6-1,5-5.32-8.22-25-4-32,.2-.33,1.38-2.2,3-5s1.34-2.48,2.53-4.52a27.58,27.58,0,0,0,3.1-6.41C476.33,242.64,473.19,241.19,472.14,242.89Z"/><path class="cls-11" d="M490.36,259.35a17.65,17.65,0,0,1-3.23-.46q-.63-.15-1.25-.34c-.34-.11-.68-.22-1-.35a6.57,6.57,0,0,0-.68-.26c0-.16-.14-.53-.16-.67a10.76,10.76,0,0,1-.08-1.4,1.79,1.79,0,0,0-.12-.62c0-.32,0-.64,0-1-.18-2.51-4.13-4.8-4.13-4.77.05,4.1,1.35,13.1,1.35,13.1a180.34,180.34,0,0,1,2,17.95c.81,13.4-.28,20.37,4,23a6.71,6.71,0,0,0,7,0c2.75-2,1.31-6.45,1-20-.17-7.28-.25-10.92,0-14,.47-5.72,1.53-11.42,0-12C494,257.18,493,259.35,490.36,259.35Z"/><path class="cls-16" d="M398.16,144.33c-.32-3.21-.88-6.4-1.39-9.59a81,81,0,0,0-1.64-8.08c-3-11-8.59-10.59-9.68-10.78-7.1-1.25-12.58,3.46-14.8,9.93a30.07,30.07,0,0,0-1.25,8.52c-.05,1.3-.07,2.61-.13,3.91,0,.61-.06,1.21-.12,1.82q0,.37-.07.74l-.07.33c-.65,3-1.62,5.91-1.88,9a7,7,0,0,0,2,5.7,9.14,9.14,0,0,0,5.79,2.15c2.55.23,5.05-.4,7.59-.39l.72,0,.24.05.18,0,.48.2a14.39,14.39,0,0,0,4.07,1.6c4.31.73,8.41-1.41,9.57-5.8A26.94,26.94,0,0,0,398.16,144.33Z"/><path class="cls-6" d="M493.1,171.47c-.62-4.26-6.51-10.4-13.55-5.63a42.55,42.55,0,0,0-8.94,8.65c-2.69,3.74-6,11.68-8.54,15.49-1.48,2.18-3.72,4.83-4.75,7.63-.36.51-3.84,5.43,1,9.14,2.49,1.91,6.71-1.53,8.83-3.31-1.22,3.33-1.56,7.16-2,10.53-.17,1.38-2.41,13.56-3.16,15.63-.69,1.9-3.28,6.67,1.42,11.37,3.42,3.42,16.6,16.67,20.59,19.42,3.33,2.3,8.52,4.47,11.53.71,3.34-4.18,3.3-9.8,3.61-12.06C500.37,240.07,495.1,185.16,493.1,171.47Z"/><path class="cls-2" d="M500,158.41c-.23-3.83-3.14-6.37-5.68-8.87a8.18,8.18,0,0,1-2.58-4.09c-.46-2-.48-4-1.32-5.93a10.12,10.12,0,0,0-1.72-2.64c.55-1.47,1.11-2.62.6-4.34-1-3.52-5.87-4.62-8-1.52a5,5,0,0,0-.87,2.08,12.93,12.93,0,0,0-10.13,5,7.23,7.23,0,0,0-1.11,1.92c-1.46,4,4.68,5.42,7.3,6.55a4.66,4.66,0,0,1,2.91,2.79c.62,1.81.41,3.82.46,5.7.1,4,1.33,7.44,4.59,9.85a10.43,10.43,0,0,0,9.83,1.52C497.53,165.19,500.2,162.12,500,158.41Z"/><path class="cls-2" d="M473.17,307.33c-.17-1.36,0-3.47-1.81-3.58a4.6,4.6,0,0,0-2.66.79,1,1,0,0,0-1.45-.26c-1.89,1.54-3.95,3-5.7,4.69-.92.89-2.29,2.74-1.44,4.09s3.42.61,4.59.3a48.13,48.13,0,0,0,6.88-2.16C473.35,310.41,473.39,309.08,473.17,307.33Z"/><path class="cls-2" d="M494.42,321.36c0-1.13-.19-2.8-1.56-3.11a4.23,4.23,0,0,0-2.92.91.8.8,0,0,0-1.38-.24,13,13,0,0,1-4.25,3.12c-1,.51-1.94,1.75-1.28,2.88s3.14.94,4.26.93,5.27.11,6-.32C494.47,324.79,494.45,322.59,494.42,321.36Z"/><path class="cls-3" d="M389.5,222.49c-2.84,1.61-6.71,1.91-8.55,4.94-1.08,1.78-1.13,4-1.35,6q-.41,3.7-.79,7.39-1.51,14.77-2.57,29.58c-.08,1.16,1.73,1,1.81-.11q1-14,2.41-27.91.34-3.4.71-6.8a30.57,30.57,0,0,1,.87-6.18c1.14-3.47,5.67-3.81,8.46-5.4C391.53,223.43,390.51,221.92,389.5,222.49Z"/></g></g></svg>